G04 #@! TF.FileFunction,Paste,Bot*
%FSLAX46Y46*%
G04 Gerber Fmt 4.6, Leading zero omitted, Abs format (unit mm)*
G04 Created by KiCad (PCBNEW 4.0.2+dfsg1-stable) date Sat 12 May 2018 07:31:38 PM EDT*
%MOMM*%
G01*
G04 APERTURE LIST*
%ADD10C,0.100000*%
%ADD11R,2.990000X5.280000*%
%ADD12C,17.980000*%
%ADD13R,1.200000X1.200000*%
%ADD14R,1.500000X1.800000*%
%ADD15R,0.590000X0.450000*%
%ADD16R,1.520000X3.050000*%
%ADD17R,3.050000X1.520000*%
%ADD18R,1.600000X0.300000*%
%ADD19R,0.300000X1.600000*%
%ADD20R,1.000000X0.700000*%
%ADD21R,0.700000X0.600000*%
%ADD22R,0.800000X1.600000*%
%ADD23R,2.500000X1.700000*%
%ADD24R,0.250000X1.100000*%
%ADD25R,2.100000X1.900000*%
G04 APERTURE END LIST*
D10*
D11*
X128370000Y-83500000D03*
X106400000Y-83500000D03*
D12*
X117385000Y-83500000D03*
D13*
X133800000Y-77050000D03*
X135900000Y-77050000D03*
X133550000Y-95300000D03*
X135650000Y-95300000D03*
X133650000Y-100100000D03*
X135750000Y-100100000D03*
X168650000Y-104250000D03*
X168650000Y-102150000D03*
X167400000Y-99950000D03*
X165300000Y-99950000D03*
X135700000Y-88200000D03*
X133600000Y-88200000D03*
X148750000Y-89300000D03*
X148750000Y-91400000D03*
X146650000Y-89300000D03*
X146650000Y-91400000D03*
X182500000Y-82850000D03*
X184600000Y-82850000D03*
X152400000Y-89300000D03*
X152400000Y-91400000D03*
X176900000Y-112450000D03*
X176900000Y-114550000D03*
X165800000Y-112650000D03*
X165800000Y-114750000D03*
X158650000Y-116850000D03*
X158650000Y-114750000D03*
X160850000Y-116850000D03*
X160850000Y-114750000D03*
X159550000Y-121000000D03*
X159550000Y-118900000D03*
X135750000Y-115900000D03*
X137850000Y-115900000D03*
X131450000Y-120700000D03*
X131450000Y-118600000D03*
X134050000Y-120700000D03*
X134050000Y-118600000D03*
D14*
X135700000Y-97700000D03*
X132100000Y-97700000D03*
D15*
X128695000Y-111550000D03*
X125405000Y-111550000D03*
X133745000Y-111550000D03*
X130455000Y-111550000D03*
D16*
X135895000Y-81800000D03*
X133605000Y-81800000D03*
X173595000Y-117250000D03*
X171305000Y-117250000D03*
D17*
X165300000Y-102155000D03*
X165300000Y-104445000D03*
D13*
X173100000Y-79100000D03*
X173100000Y-81200000D03*
X137950000Y-108100000D03*
X135850000Y-108100000D03*
X138900000Y-91400000D03*
X138900000Y-93500000D03*
X173350000Y-91650000D03*
X173350000Y-89550000D03*
X171150000Y-91650000D03*
X171150000Y-89550000D03*
X168950000Y-91650000D03*
X168950000Y-89550000D03*
X163500000Y-112650000D03*
X163500000Y-114750000D03*
X168100000Y-114750000D03*
X168100000Y-112650000D03*
X175550000Y-79100000D03*
X175550000Y-81200000D03*
X178000000Y-79100000D03*
X178000000Y-81200000D03*
X135800000Y-111550000D03*
X137900000Y-111550000D03*
X135750000Y-113900000D03*
X137850000Y-113900000D03*
D18*
X156850000Y-96650000D03*
X156850000Y-97150000D03*
X156850000Y-97650000D03*
X156850000Y-98150000D03*
X156850000Y-98650000D03*
X156850000Y-99150000D03*
X156850000Y-99650000D03*
X156850000Y-100150000D03*
X156850000Y-100650000D03*
X156850000Y-101150000D03*
X156850000Y-101650000D03*
X156850000Y-102150000D03*
X156850000Y-102650000D03*
X156850000Y-103150000D03*
X156850000Y-103650000D03*
X156850000Y-104150000D03*
X156850000Y-104650000D03*
X156850000Y-105150000D03*
X156850000Y-105650000D03*
X156850000Y-106150000D03*
X156850000Y-106650000D03*
X156850000Y-107150000D03*
X156850000Y-107650000D03*
X156850000Y-108150000D03*
X156850000Y-108650000D03*
D19*
X155250000Y-110250000D03*
X154750000Y-110250000D03*
X154250000Y-110250000D03*
X153750000Y-110250000D03*
X153250000Y-110250000D03*
X152750000Y-110250000D03*
X152250000Y-110250000D03*
X151750000Y-110250000D03*
X151250000Y-110250000D03*
X150750000Y-110250000D03*
X150250000Y-110250000D03*
X149750000Y-110250000D03*
X149250000Y-110250000D03*
X148750000Y-110250000D03*
X148250000Y-110250000D03*
X147750000Y-110250000D03*
X147250000Y-110250000D03*
X146750000Y-110250000D03*
X146250000Y-110250000D03*
X145750000Y-110250000D03*
X145250000Y-110250000D03*
X144750000Y-110250000D03*
X144250000Y-110250000D03*
X143750000Y-110250000D03*
X143250000Y-110250000D03*
D18*
X141650000Y-108650000D03*
X141650000Y-108150000D03*
X141650000Y-107650000D03*
X141650000Y-107150000D03*
X141650000Y-106650000D03*
X141650000Y-106150000D03*
X141650000Y-105650000D03*
X141650000Y-105150000D03*
X141650000Y-104650000D03*
X141650000Y-104150000D03*
X141650000Y-103650000D03*
X141650000Y-103150000D03*
X141650000Y-102650000D03*
X141650000Y-102150000D03*
X141650000Y-101650000D03*
X141650000Y-101150000D03*
X141650000Y-100650000D03*
X141650000Y-100150000D03*
X141650000Y-99650000D03*
X141650000Y-99150000D03*
X141650000Y-98650000D03*
X141650000Y-98150000D03*
X141650000Y-97650000D03*
X141650000Y-97150000D03*
X141650000Y-96650000D03*
D19*
X143250000Y-95050000D03*
X143750000Y-95050000D03*
X144250000Y-95050000D03*
X144750000Y-95050000D03*
X145250000Y-95050000D03*
X145750000Y-95050000D03*
X146250000Y-95050000D03*
X146750000Y-95050000D03*
X147250000Y-95050000D03*
X147750000Y-95050000D03*
X148250000Y-95050000D03*
X148750000Y-95050000D03*
X149250000Y-95050000D03*
X149750000Y-95050000D03*
X150250000Y-95050000D03*
X150750000Y-95050000D03*
X151250000Y-95050000D03*
X151750000Y-95050000D03*
X152250000Y-95050000D03*
X152750000Y-95050000D03*
X153250000Y-95050000D03*
X153750000Y-95050000D03*
X154250000Y-95050000D03*
X154750000Y-95050000D03*
X155250000Y-95050000D03*
D20*
X171300000Y-112650000D03*
X171300000Y-113600000D03*
X171300000Y-114550000D03*
X173900000Y-112650000D03*
X173900000Y-114550000D03*
D21*
X133600000Y-84500000D03*
X133600000Y-86400000D03*
X135900000Y-86400000D03*
X135900000Y-85450000D03*
X135900000Y-84500000D03*
D13*
X161200000Y-86700000D03*
X163300000Y-86700000D03*
D22*
X160345000Y-93100000D03*
X160345000Y-89200000D03*
X161615000Y-93100000D03*
X161615000Y-89200000D03*
X162885000Y-93100000D03*
X162885000Y-89200000D03*
X164155000Y-93100000D03*
X164155000Y-89200000D03*
D23*
X167500000Y-117900000D03*
X163500000Y-117900000D03*
D24*
X141250000Y-117500000D03*
X141750000Y-117500000D03*
X142250000Y-117500000D03*
X142750000Y-117500000D03*
X143250000Y-117500000D03*
X143750000Y-117500000D03*
X144250000Y-117500000D03*
X144750000Y-117500000D03*
X145250000Y-117500000D03*
X145750000Y-117500000D03*
X146250000Y-117500000D03*
X146750000Y-117500000D03*
X147250000Y-117500000D03*
X147750000Y-117500000D03*
X148250000Y-117500000D03*
X148750000Y-117500000D03*
X149250000Y-117500000D03*
X149750000Y-117500000D03*
X150250000Y-117500000D03*
X150750000Y-117500000D03*
X151250000Y-117500000D03*
X151750000Y-117500000D03*
X152250000Y-117500000D03*
X152750000Y-117500000D03*
X153250000Y-117500000D03*
X153750000Y-117500000D03*
X154250000Y-117500000D03*
X154750000Y-117500000D03*
X140750000Y-117500000D03*
X155250000Y-117500000D03*
D25*
X139100000Y-121400000D03*
X156900000Y-121400000D03*
M02*
