G04 #@! TF.FileFunction,Copper,L2,Bot,Signal*
%FSLAX46Y46*%
G04 Gerber Fmt 4.6, Leading zero omitted, Abs format (unit mm)*
G04 Created by KiCad (PCBNEW 4.0.2+dfsg1-stable) date Sat 12 May 2018 06:52:34 PM EDT*
%MOMM*%
G01*
G04 APERTURE LIST*
%ADD10C,0.100000*%
%ADD11C,0.600000*%
%ADD12R,2.790000X5.080000*%
%ADD13C,17.780000*%
%ADD14R,1.200000X1.200000*%
%ADD15R,1.500000X1.800000*%
%ADD16R,0.590000X0.450000*%
%ADD17R,1.520000X3.050000*%
%ADD18R,3.050000X1.520000*%
%ADD19C,1.524000*%
%ADD20R,0.250000X1.100000*%
%ADD21R,1.700000X1.500000*%
%ADD22C,0.900000*%
%ADD23R,1.600000X0.300000*%
%ADD24R,0.300000X1.600000*%
%ADD25R,1.000000X0.700000*%
%ADD26R,0.500000X0.400000*%
%ADD27R,0.600000X1.400000*%
%ADD28R,2.500000X1.700000*%
%ADD29C,0.700000*%
%ADD30C,0.250000*%
%ADD31C,0.500000*%
%ADD32C,0.300000*%
%ADD33C,0.600000*%
%ADD34C,0.400000*%
%ADD35C,0.254000*%
G04 APERTURE END LIST*
D10*
D11*
X138550000Y-95650000D03*
X178350000Y-110150000D03*
X170450000Y-111150000D03*
X182500000Y-88500000D03*
X178500000Y-104500000D03*
X145000000Y-106500000D03*
X105000000Y-116500000D03*
X112000000Y-120500000D03*
X130500000Y-75500000D03*
X130000000Y-78000000D03*
X177500000Y-83500000D03*
X172500000Y-86500000D03*
X168000000Y-78000000D03*
X169500000Y-75000000D03*
X186500000Y-77500000D03*
X186500000Y-86000000D03*
X190000000Y-85000000D03*
X189500000Y-89500000D03*
X186500000Y-92000000D03*
X187500000Y-99500000D03*
X178500000Y-91500000D03*
X180500000Y-98000000D03*
X176000000Y-98000000D03*
X171500000Y-105500000D03*
X170500000Y-108500000D03*
X166000000Y-108500000D03*
X186000000Y-104500000D03*
X190000000Y-105000000D03*
X187000000Y-109000000D03*
X189500000Y-112000000D03*
X185000000Y-112500000D03*
X149500000Y-121500000D03*
X144000000Y-121500000D03*
X116000000Y-107000000D03*
X132500000Y-108000000D03*
X150000000Y-108000000D03*
X149000000Y-100000000D03*
X144500000Y-100000000D03*
X141500000Y-89000000D03*
X129500000Y-89000000D03*
X126000000Y-91000000D03*
X108000000Y-91000000D03*
X106500000Y-97000000D03*
X115000000Y-97500000D03*
X120500000Y-98500000D03*
X130500000Y-115500000D03*
X116500000Y-118000000D03*
X126000000Y-120500000D03*
X121500000Y-115000000D03*
X110500000Y-108500000D03*
D12*
X128370000Y-83500000D03*
X106400000Y-83500000D03*
D13*
X117385000Y-83500000D03*
D14*
X133800000Y-77050000D03*
X135900000Y-77050000D03*
X133550000Y-95300000D03*
X135650000Y-95300000D03*
X133650000Y-100100000D03*
X135750000Y-100100000D03*
X168650000Y-104250000D03*
X168650000Y-102150000D03*
X167400000Y-99950000D03*
X165300000Y-99950000D03*
X135700000Y-88200000D03*
X133600000Y-88200000D03*
X148750000Y-89300000D03*
X148750000Y-91400000D03*
X146650000Y-89300000D03*
X146650000Y-91400000D03*
X182500000Y-82850000D03*
X184600000Y-82850000D03*
X152400000Y-89300000D03*
X152400000Y-91400000D03*
X176900000Y-112450000D03*
X176900000Y-114550000D03*
X165800000Y-112650000D03*
X165800000Y-114750000D03*
X158650000Y-116850000D03*
X158650000Y-114750000D03*
X160850000Y-116850000D03*
X160850000Y-114750000D03*
X159550000Y-121000000D03*
X159550000Y-118900000D03*
X135750000Y-115900000D03*
X137850000Y-115900000D03*
X131450000Y-120700000D03*
X131450000Y-118600000D03*
X134050000Y-120700000D03*
X134050000Y-118600000D03*
D15*
X135700000Y-97700000D03*
X132100000Y-97700000D03*
D16*
X128695000Y-111550000D03*
X125405000Y-111550000D03*
X133745000Y-111550000D03*
X130455000Y-111550000D03*
D17*
X135895000Y-81800000D03*
X133605000Y-81800000D03*
X173595000Y-117250000D03*
X171305000Y-117250000D03*
D18*
X165300000Y-102155000D03*
X165300000Y-104445000D03*
D19*
X190900000Y-118700000D03*
X188400000Y-118700000D03*
X185900000Y-118700000D03*
X183400000Y-118700000D03*
X180900000Y-118700000D03*
X180900000Y-121200000D03*
X183400000Y-121200000D03*
X185900000Y-121200000D03*
X188400000Y-121200000D03*
X190900000Y-121200000D03*
D20*
X141250000Y-117500000D03*
X141750000Y-117500000D03*
X142250000Y-117500000D03*
X142750000Y-117500000D03*
X143250000Y-117500000D03*
X143750000Y-117500000D03*
X144250000Y-117500000D03*
X144750000Y-117500000D03*
X145250000Y-117500000D03*
X145750000Y-117500000D03*
X146250000Y-117500000D03*
X146750000Y-117500000D03*
X147250000Y-117500000D03*
X147750000Y-117500000D03*
X148250000Y-117500000D03*
X148750000Y-117500000D03*
X149250000Y-117500000D03*
X149750000Y-117500000D03*
X150250000Y-117500000D03*
X150750000Y-117500000D03*
X151250000Y-117500000D03*
X151750000Y-117500000D03*
X152250000Y-117500000D03*
X152750000Y-117500000D03*
X153250000Y-117500000D03*
X153750000Y-117500000D03*
X154250000Y-117500000D03*
X154750000Y-117500000D03*
X140750000Y-117500000D03*
X155250000Y-117500000D03*
D21*
X139100000Y-121400000D03*
X156900000Y-121400000D03*
D14*
X173100000Y-79100000D03*
X173100000Y-81200000D03*
X137950000Y-108100000D03*
X135850000Y-108100000D03*
X138900000Y-91400000D03*
X138900000Y-93500000D03*
X173350000Y-91650000D03*
X173350000Y-89550000D03*
X171150000Y-91650000D03*
X171150000Y-89550000D03*
X168950000Y-91650000D03*
X168950000Y-89550000D03*
X163500000Y-112650000D03*
X163500000Y-114750000D03*
X168100000Y-114750000D03*
X168100000Y-112650000D03*
X175550000Y-79100000D03*
X175550000Y-81200000D03*
X178000000Y-79100000D03*
X178000000Y-81200000D03*
X135800000Y-111550000D03*
X137900000Y-111550000D03*
X135750000Y-113900000D03*
X137850000Y-113900000D03*
D22*
X109650000Y-75350000D03*
X106650000Y-75350000D03*
D23*
X156850000Y-96650000D03*
X156850000Y-97150000D03*
X156850000Y-97650000D03*
X156850000Y-98150000D03*
X156850000Y-98650000D03*
X156850000Y-99150000D03*
X156850000Y-99650000D03*
X156850000Y-100150000D03*
X156850000Y-100650000D03*
X156850000Y-101150000D03*
X156850000Y-101650000D03*
X156850000Y-102150000D03*
X156850000Y-102650000D03*
X156850000Y-103150000D03*
X156850000Y-103650000D03*
X156850000Y-104150000D03*
X156850000Y-104650000D03*
X156850000Y-105150000D03*
X156850000Y-105650000D03*
X156850000Y-106150000D03*
X156850000Y-106650000D03*
X156850000Y-107150000D03*
X156850000Y-107650000D03*
X156850000Y-108150000D03*
X156850000Y-108650000D03*
D24*
X155250000Y-110250000D03*
X154750000Y-110250000D03*
X154250000Y-110250000D03*
X153750000Y-110250000D03*
X153250000Y-110250000D03*
X152750000Y-110250000D03*
X152250000Y-110250000D03*
X151750000Y-110250000D03*
X151250000Y-110250000D03*
X150750000Y-110250000D03*
X150250000Y-110250000D03*
X149750000Y-110250000D03*
X149250000Y-110250000D03*
X148750000Y-110250000D03*
X148250000Y-110250000D03*
X147750000Y-110250000D03*
X147250000Y-110250000D03*
X146750000Y-110250000D03*
X146250000Y-110250000D03*
X145750000Y-110250000D03*
X145250000Y-110250000D03*
X144750000Y-110250000D03*
X144250000Y-110250000D03*
X143750000Y-110250000D03*
X143250000Y-110250000D03*
D23*
X141650000Y-108650000D03*
X141650000Y-108150000D03*
X141650000Y-107650000D03*
X141650000Y-107150000D03*
X141650000Y-106650000D03*
X141650000Y-106150000D03*
X141650000Y-105650000D03*
X141650000Y-105150000D03*
X141650000Y-104650000D03*
X141650000Y-104150000D03*
X141650000Y-103650000D03*
X141650000Y-103150000D03*
X141650000Y-102650000D03*
X141650000Y-102150000D03*
X141650000Y-101650000D03*
X141650000Y-101150000D03*
X141650000Y-100650000D03*
X141650000Y-100150000D03*
X141650000Y-99650000D03*
X141650000Y-99150000D03*
X141650000Y-98650000D03*
X141650000Y-98150000D03*
X141650000Y-97650000D03*
X141650000Y-97150000D03*
X141650000Y-96650000D03*
D24*
X143250000Y-95050000D03*
X143750000Y-95050000D03*
X144250000Y-95050000D03*
X144750000Y-95050000D03*
X145250000Y-95050000D03*
X145750000Y-95050000D03*
X146250000Y-95050000D03*
X146750000Y-95050000D03*
X147250000Y-95050000D03*
X147750000Y-95050000D03*
X148250000Y-95050000D03*
X148750000Y-95050000D03*
X149250000Y-95050000D03*
X149750000Y-95050000D03*
X150250000Y-95050000D03*
X150750000Y-95050000D03*
X151250000Y-95050000D03*
X151750000Y-95050000D03*
X152250000Y-95050000D03*
X152750000Y-95050000D03*
X153250000Y-95050000D03*
X153750000Y-95050000D03*
X154250000Y-95050000D03*
X154750000Y-95050000D03*
X155250000Y-95050000D03*
D25*
X171300000Y-112650000D03*
X171300000Y-113600000D03*
X171300000Y-114550000D03*
X173900000Y-112650000D03*
X173900000Y-114550000D03*
D26*
X133600000Y-84500000D03*
X133600000Y-86400000D03*
X135900000Y-86400000D03*
X135900000Y-85450000D03*
X135900000Y-84500000D03*
D14*
X161200000Y-86700000D03*
X163300000Y-86700000D03*
D27*
X160345000Y-93100000D03*
X160345000Y-89200000D03*
X161615000Y-93100000D03*
X161615000Y-89200000D03*
X162885000Y-93100000D03*
X162885000Y-89200000D03*
X164155000Y-93100000D03*
X164155000Y-89200000D03*
D28*
X167500000Y-117900000D03*
X163500000Y-117900000D03*
D11*
X106500000Y-105500000D03*
X113500000Y-114000000D03*
X106000000Y-110500000D03*
X138000000Y-100000000D03*
X137500000Y-103000000D03*
X107950000Y-88750000D03*
X127300000Y-79750000D03*
X106600000Y-79300000D03*
X153850000Y-115150000D03*
X160350000Y-94750000D03*
X160350000Y-103100000D03*
X153650000Y-120000000D03*
X164000000Y-120750000D03*
X180200000Y-114550000D03*
X160350000Y-108650000D03*
X169800000Y-79300000D03*
X147000000Y-115600000D03*
X147000000Y-112200000D03*
X184600000Y-81000000D03*
X146750000Y-96750000D03*
X173100000Y-77350000D03*
X175550000Y-77350000D03*
X155300000Y-97600000D03*
X178000000Y-77300000D03*
X158600000Y-93300000D03*
X151250000Y-97790000D03*
X151890000Y-98350000D03*
X153220000Y-99880000D03*
X185470000Y-115940000D03*
X187190000Y-119930000D03*
X152530000Y-99050000D03*
X152900000Y-113250000D03*
X139700000Y-111450000D03*
X139400000Y-108100000D03*
X145450000Y-108100000D03*
X159100000Y-96400000D03*
X158750000Y-100050000D03*
X162100000Y-101300000D03*
X165200000Y-94150000D03*
X167000000Y-92150000D03*
X161350000Y-100300000D03*
X120000000Y-107200000D03*
X120000000Y-104050000D03*
X149250000Y-106100000D03*
X129000000Y-96750000D03*
X129000000Y-99800000D03*
X147700000Y-104100000D03*
X148350000Y-105150000D03*
X146950000Y-103100000D03*
X176000000Y-106200000D03*
X176000000Y-108150000D03*
X162050000Y-108300000D03*
X162450000Y-107150000D03*
X167000000Y-98200000D03*
X167000000Y-95700000D03*
X162900000Y-106100000D03*
X161650000Y-105650000D03*
X155000000Y-89200000D03*
X154150000Y-99900000D03*
X173900000Y-100250000D03*
X165650000Y-97200000D03*
X159200000Y-86700000D03*
X158200000Y-81250000D03*
X147650000Y-98500000D03*
X147650000Y-96500000D03*
X145450000Y-96800000D03*
X144750000Y-98500000D03*
X170550000Y-83550000D03*
X167100000Y-87000000D03*
X144950000Y-89550000D03*
X146650000Y-92800000D03*
X188550000Y-75550000D03*
X184600000Y-75550000D03*
X180500000Y-84050000D03*
D29*
X106400000Y-83500000D02*
X105350000Y-84550000D01*
X105350000Y-84550000D02*
X105350000Y-87100000D01*
X128370000Y-83500000D02*
X128370000Y-80820000D01*
X105350000Y-87100000D02*
X105350000Y-86700000D01*
X106900000Y-88650000D02*
X105350000Y-87100000D01*
X106900000Y-88750000D02*
X106900000Y-88650000D01*
X107950000Y-88750000D02*
X106900000Y-88750000D01*
X128370000Y-80820000D02*
X127300000Y-79750000D01*
X135900000Y-86400000D02*
X135350000Y-86400000D01*
X135350000Y-86400000D02*
X134300000Y-85350000D01*
X128370000Y-83500000D02*
X130320000Y-85450000D01*
X134200000Y-85450000D02*
X134300000Y-85350000D01*
X134300000Y-85350000D02*
X135900000Y-83750000D01*
X130320000Y-85450000D02*
X134200000Y-85450000D01*
X135900000Y-84500000D02*
X135900000Y-83750000D01*
X135900000Y-83750000D02*
X135900000Y-81805000D01*
X135900000Y-81805000D02*
X135895000Y-81800000D01*
X135900000Y-77050000D02*
X135900000Y-81795000D01*
X135900000Y-81795000D02*
X135895000Y-81800000D01*
X106600000Y-79300000D02*
X113185000Y-79300000D01*
X113185000Y-79300000D02*
X117385000Y-83500000D01*
D30*
X117385000Y-83500000D02*
X112885000Y-79000000D01*
D29*
X135650000Y-92650000D02*
X135650000Y-92100000D01*
X135650000Y-92100000D02*
X134950000Y-91400000D01*
X135650000Y-92650000D02*
X135650000Y-92000000D01*
X135650000Y-92000000D02*
X136250000Y-91400000D01*
X131450000Y-118600000D02*
X134050000Y-118600000D01*
X122950000Y-111800000D02*
X122950000Y-108800000D01*
X129750000Y-118600000D02*
X122950000Y-111800000D01*
X134050000Y-118600000D02*
X129750000Y-118600000D01*
X135750000Y-101550000D02*
X130650000Y-106650000D01*
X130650000Y-106650000D02*
X125100000Y-106650000D01*
X125100000Y-106650000D02*
X123000000Y-108750000D01*
X135750000Y-101550000D02*
X135750000Y-100100000D01*
X122950000Y-108800000D02*
X123000000Y-108750000D01*
X160345000Y-93100000D02*
X160345000Y-92005000D01*
X160345000Y-92005000D02*
X160950000Y-91400000D01*
X160345000Y-93100000D02*
X160345000Y-92445000D01*
X160345000Y-92445000D02*
X159300000Y-91400000D01*
X160345000Y-94745000D02*
X160345000Y-93100000D01*
X160350000Y-94750000D02*
X160345000Y-94745000D01*
D30*
X156850000Y-102650000D02*
X159900000Y-102650000D01*
X159900000Y-102650000D02*
X160350000Y-103100000D01*
D29*
X176900000Y-114550000D02*
X180200000Y-114550000D01*
X160345000Y-93100000D02*
X160345000Y-93105000D01*
X148750000Y-91400000D02*
X152400000Y-91400000D01*
X138900000Y-91400000D02*
X136250000Y-91400000D01*
X136250000Y-91400000D02*
X134950000Y-91400000D01*
X134950000Y-91400000D02*
X134400000Y-91400000D01*
X134400000Y-91400000D02*
X134100000Y-91100000D01*
X133600000Y-88200000D02*
X133600000Y-90600000D01*
X133600000Y-90600000D02*
X134100000Y-91100000D01*
X160345000Y-93100000D02*
X160345000Y-92745000D01*
X173595000Y-117250000D02*
X173595000Y-118705000D01*
X173595000Y-118705000D02*
X171550000Y-120750000D01*
X153650000Y-118750000D02*
X153650000Y-118600000D01*
X153650000Y-120000000D02*
X153650000Y-118750000D01*
X171550000Y-120750000D02*
X164000000Y-120750000D01*
D31*
X136300000Y-118600000D02*
X153650000Y-118600000D01*
X153650000Y-118600000D02*
X153450000Y-118600000D01*
X134050000Y-118600000D02*
X136300000Y-118600000D01*
D29*
X180200000Y-114550000D02*
X173900000Y-114550000D01*
D32*
X142250000Y-117500000D02*
X142250000Y-118350000D01*
X142250000Y-118350000D02*
X142000000Y-118600000D01*
X136300000Y-118600000D02*
X142000000Y-118600000D01*
X142000000Y-118600000D02*
X142500000Y-118600000D01*
X153750000Y-117500000D02*
X153750000Y-116050000D01*
D29*
X153750000Y-115250000D02*
X153750000Y-116050000D01*
X153850000Y-115150000D02*
X153750000Y-115250000D01*
X160350000Y-108650000D02*
X153850000Y-115150000D01*
X169000000Y-89550000D02*
X169000000Y-80100000D01*
X169000000Y-80100000D02*
X169800000Y-79300000D01*
X171150000Y-89550000D02*
X173400000Y-89550000D01*
X169000000Y-89550000D02*
X171150000Y-89550000D01*
X154700000Y-91400000D02*
X159300000Y-91400000D01*
X159300000Y-91400000D02*
X159000000Y-91400000D01*
X159000000Y-91400000D02*
X160950000Y-91400000D01*
X160950000Y-91400000D02*
X165850000Y-91400000D01*
X165850000Y-91400000D02*
X167700000Y-89550000D01*
X167700000Y-89550000D02*
X169000000Y-89550000D01*
X148750000Y-91400000D02*
X154700000Y-91400000D01*
D30*
X148750000Y-95050000D02*
X148750000Y-91400000D01*
X148750000Y-95050000D02*
X148750000Y-96400000D01*
X147500000Y-97650000D02*
X148750000Y-96400000D01*
X147500000Y-97650000D02*
X141650000Y-97650000D01*
X141650000Y-97650000D02*
X135750000Y-97650000D01*
X135750000Y-97650000D02*
X135700000Y-97700000D01*
D29*
X136900000Y-91400000D02*
X134400000Y-91400000D01*
X146650000Y-91400000D02*
X136900000Y-91400000D01*
X136900000Y-91400000D02*
X135650000Y-92650000D01*
X148750000Y-91400000D02*
X146650000Y-91400000D01*
X135700000Y-97700000D02*
X135700000Y-100050000D01*
X135700000Y-100050000D02*
X135750000Y-100100000D01*
X135650000Y-95300000D02*
X135650000Y-97650000D01*
X135650000Y-97650000D02*
X135700000Y-97700000D01*
X133600000Y-90600000D02*
X134100000Y-91100000D01*
X134100000Y-91100000D02*
X134400000Y-91400000D01*
X134400000Y-91400000D02*
X135650000Y-92650000D01*
X135650000Y-92650000D02*
X135650000Y-95300000D01*
X133600000Y-88200000D02*
X133600000Y-86400000D01*
D30*
X146750000Y-117500000D02*
X146750000Y-115850000D01*
X146750000Y-115850000D02*
X147000000Y-115600000D01*
X147250000Y-117500000D02*
X147250000Y-115850000D01*
X147250000Y-115850000D02*
X147000000Y-115600000D01*
X145750000Y-111250000D02*
X145750000Y-110250000D01*
X147000000Y-112200000D02*
X146700000Y-112200000D01*
X146700000Y-112200000D02*
X145750000Y-111250000D01*
D32*
X146750000Y-117500000D02*
X146750000Y-118450000D01*
X146750000Y-118450000D02*
X146600000Y-118600000D01*
X142250000Y-118350000D02*
X142500000Y-118600000D01*
X142500000Y-118600000D02*
X146600000Y-118600000D01*
X146600000Y-118600000D02*
X147450000Y-118600000D01*
X146750000Y-117500000D02*
X147250000Y-117500000D01*
X147250000Y-117500000D02*
X147250000Y-118400000D01*
X153750000Y-118300000D02*
X153450000Y-118600000D01*
X153750000Y-118300000D02*
X153750000Y-117500000D01*
X153450000Y-118600000D02*
X147450000Y-118600000D01*
X147450000Y-118600000D02*
X147250000Y-118400000D01*
D33*
X173900000Y-114550000D02*
X173900000Y-116945000D01*
X173900000Y-116945000D02*
X173595000Y-117250000D01*
D29*
X165300000Y-102155000D02*
X165300000Y-99950000D01*
X165300000Y-102155000D02*
X165305000Y-102150000D01*
X165305000Y-102150000D02*
X168650000Y-102150000D01*
D30*
X156850000Y-102150000D02*
X165295000Y-102150000D01*
X165295000Y-102150000D02*
X165300000Y-102155000D01*
X146750000Y-95050000D02*
X146750000Y-93800000D01*
X146450000Y-93500000D02*
X146750000Y-93800000D01*
X146450000Y-93500000D02*
X138900000Y-93500000D01*
D34*
X184600000Y-82850000D02*
X184600000Y-109850000D01*
X182150000Y-119950000D02*
X182150000Y-112300000D01*
X182150000Y-119950000D02*
X180900000Y-121200000D01*
X184600000Y-109850000D02*
X182150000Y-112300000D01*
D30*
X184600000Y-82850000D02*
X184600000Y-81000000D01*
X146750000Y-96750000D02*
X146750000Y-95050000D01*
D29*
X165800000Y-112650000D02*
X168100000Y-112650000D01*
X163500000Y-112650000D02*
X168100000Y-112650000D01*
X168050000Y-112600000D02*
X168100000Y-112650000D01*
X171300000Y-112650000D02*
X168100000Y-112650000D01*
X163500000Y-114750000D02*
X160850000Y-114750000D01*
X158650000Y-114750000D02*
X160850000Y-114750000D01*
X163500000Y-114750000D02*
X159550000Y-114750000D01*
X163500000Y-114750000D02*
X165800000Y-114750000D01*
D32*
X154750000Y-117500000D02*
X154750000Y-116000000D01*
D29*
X156000000Y-114750000D02*
X154750000Y-116000000D01*
X156000000Y-114750000D02*
X163500000Y-114750000D01*
X163500000Y-114750000D02*
X163500000Y-117900000D01*
D30*
X159550000Y-118900000D02*
X155000000Y-118900000D01*
X154250000Y-118150000D02*
X155000000Y-118900000D01*
X154250000Y-118150000D02*
X154250000Y-117500000D01*
X137850000Y-115900000D02*
X142000000Y-115900000D01*
X142750000Y-116650000D02*
X142750000Y-117500000D01*
X142000000Y-115900000D02*
X142750000Y-116650000D01*
D29*
X133600000Y-84500000D02*
X133600000Y-81805000D01*
X133600000Y-81805000D02*
X133605000Y-81800000D01*
D30*
X165300000Y-104445000D02*
X159795000Y-104445000D01*
X156850000Y-103150000D02*
X158500000Y-103150000D01*
X158500000Y-103150000D02*
X159795000Y-104445000D01*
X159795000Y-104445000D02*
X159800000Y-104450000D01*
X173100000Y-77350000D02*
X173100000Y-79100000D01*
X175550000Y-77350000D02*
X175550000Y-79100000D01*
X155850000Y-98150000D02*
X156850000Y-98150000D01*
X155850000Y-98150000D02*
X155300000Y-97600000D01*
X178000000Y-77300000D02*
X178000000Y-79100000D01*
X156200000Y-95700000D02*
X158600000Y-93300000D01*
X155350000Y-96550000D02*
X156200000Y-95700000D01*
X154300000Y-97050000D02*
X154800000Y-96550000D01*
X154300000Y-97850000D02*
X154300000Y-97050000D01*
X155100000Y-98650000D02*
X156850000Y-98650000D01*
X155100000Y-98650000D02*
X154900000Y-98450000D01*
X154900000Y-98450000D02*
X154300000Y-97850000D01*
X154800000Y-96550000D02*
X155250000Y-96550000D01*
X155250000Y-96550000D02*
X155350000Y-96550000D01*
X151250000Y-97790000D02*
X151250000Y-95050000D01*
X151750000Y-95050000D02*
X151750000Y-97250000D01*
X151890000Y-97390000D02*
X151890000Y-98350000D01*
X151750000Y-97250000D02*
X151890000Y-97390000D01*
X152750000Y-96820000D02*
X152750000Y-95050000D01*
X153220000Y-97290000D02*
X152750000Y-96820000D01*
X153220000Y-99880000D02*
X153220000Y-97290000D01*
X185510000Y-115940000D02*
X185470000Y-115940000D01*
X187190000Y-117620000D02*
X185510000Y-115940000D01*
X187190000Y-119930000D02*
X187190000Y-117620000D01*
X152250000Y-95050000D02*
X152250000Y-97050000D01*
X152530000Y-97330000D02*
X152530000Y-99050000D01*
X152250000Y-97050000D02*
X152530000Y-97330000D01*
X137850000Y-113900000D02*
X143750000Y-113900000D01*
X144750000Y-114900000D02*
X143750000Y-113900000D01*
X144750000Y-114900000D02*
X144750000Y-117500000D01*
X143250000Y-110250000D02*
X143250000Y-112600000D01*
X145250000Y-114600000D02*
X145250000Y-117500000D01*
X143250000Y-112600000D02*
X145250000Y-114600000D01*
X145750000Y-117500000D02*
X145750000Y-114300000D01*
X143750000Y-112300000D02*
X143750000Y-110250000D01*
X145750000Y-114300000D02*
X143750000Y-112300000D01*
X143750006Y-110250006D02*
X143750000Y-110250000D01*
X144250000Y-110250000D02*
X144250000Y-112000000D01*
X146250000Y-114000000D02*
X146250000Y-117500000D01*
X144250000Y-112000000D02*
X146250000Y-114000000D01*
X144250004Y-110250004D02*
X144250000Y-110250000D01*
X147750000Y-117500000D02*
X147750000Y-114800000D01*
X144750000Y-111800000D02*
X144750000Y-110250000D01*
X147750000Y-114800000D02*
X144750000Y-111800000D01*
X144750002Y-110250002D02*
X144750000Y-110250000D01*
X145250000Y-110250000D02*
X145250000Y-111600000D01*
X148250000Y-114600000D02*
X148250000Y-117500000D01*
X145250000Y-111600000D02*
X148250000Y-114600000D01*
X148750000Y-117500000D02*
X148750000Y-110250000D01*
X149250000Y-110250000D02*
X149250000Y-117500000D01*
X149250000Y-117500000D02*
X149299998Y-117500000D01*
X149750000Y-117500000D02*
X149750000Y-110250000D01*
X150250000Y-110250000D02*
X150250000Y-117500000D01*
X150750000Y-117500000D02*
X150750000Y-110250000D01*
X151250000Y-110250000D02*
X151250000Y-117500000D01*
X151750000Y-117500000D02*
X151750000Y-110250000D01*
X152250000Y-110250000D02*
X152250000Y-117500000D01*
X137900000Y-111550000D02*
X139600000Y-111550000D01*
X153250000Y-116550000D02*
X153250000Y-117500000D01*
X153250000Y-116550000D02*
X152900000Y-116200000D01*
X152900000Y-116200000D02*
X152900000Y-113250000D01*
X139600000Y-111550000D02*
X139700000Y-111450000D01*
X146250000Y-110250000D02*
X146250000Y-108900000D01*
X139400000Y-108100000D02*
X137950000Y-108100000D01*
X146250000Y-108900000D02*
X145450000Y-108100000D01*
X156850000Y-100650000D02*
X158150000Y-100650000D01*
X160000000Y-96400000D02*
X162200000Y-94200000D01*
X159100000Y-96400000D02*
X160000000Y-96400000D01*
X158150000Y-100650000D02*
X158750000Y-100050000D01*
X161615000Y-93100000D02*
X161615000Y-93615000D01*
X161615000Y-93615000D02*
X162200000Y-94200000D01*
X162200000Y-94200000D02*
X162950000Y-94950000D01*
X173350000Y-91650000D02*
X170050000Y-94950000D01*
X170050000Y-94950000D02*
X162950000Y-94950000D01*
X161750000Y-101650000D02*
X162100000Y-101300000D01*
X156850000Y-101650000D02*
X161750000Y-101650000D01*
X165200000Y-94150000D02*
X165200000Y-94450000D01*
X163350000Y-94450000D02*
X165200000Y-94450000D01*
X165200000Y-94450000D02*
X168350000Y-94450000D01*
X162885000Y-93985000D02*
X163350000Y-94450000D01*
X162885000Y-93100000D02*
X162885000Y-93985000D01*
X168350000Y-94450000D02*
X171150000Y-91650000D01*
X160500000Y-101150000D02*
X161350000Y-100300000D01*
X160500000Y-101150000D02*
X156850000Y-101150000D01*
X167000000Y-92150000D02*
X166700000Y-92450000D01*
X168450000Y-92150000D02*
X167000000Y-92150000D01*
X164805000Y-92450000D02*
X166250000Y-92450000D01*
X164805000Y-92450000D02*
X164155000Y-93100000D01*
X166700000Y-92450000D02*
X166250000Y-92450000D01*
X168950000Y-91650000D02*
X168450000Y-92150000D01*
X120000000Y-104050000D02*
X120000000Y-107200000D01*
X156850000Y-105650000D02*
X149700000Y-105650000D01*
X149700000Y-105650000D02*
X149250000Y-106100000D01*
X129000000Y-99800000D02*
X129000000Y-96750000D01*
X156850000Y-104650000D02*
X150150000Y-104650000D01*
X149600000Y-104100000D02*
X147700000Y-104100000D01*
X150150000Y-104650000D02*
X149600000Y-104100000D01*
X156850000Y-105150000D02*
X148350000Y-105150000D01*
X149250000Y-103100000D02*
X146950000Y-103100000D01*
X150300000Y-104150000D02*
X149250000Y-103100000D01*
X150300000Y-104150000D02*
X156850000Y-104150000D01*
X176000000Y-108150000D02*
X176000000Y-106200000D01*
X156850000Y-107650000D02*
X161400000Y-107650000D01*
X161400000Y-107650000D02*
X162050000Y-108300000D01*
X156850000Y-107150000D02*
X162450000Y-107150000D01*
X167000000Y-95700000D02*
X167000000Y-98200000D01*
X156850000Y-106650000D02*
X161650000Y-106650000D01*
X162900000Y-106100000D02*
X162200000Y-106100000D01*
X162200000Y-106100000D02*
X161650000Y-106650000D01*
X161150000Y-106150000D02*
X161650000Y-105650000D01*
X161150000Y-106150000D02*
X156850000Y-106150000D01*
X156850000Y-100150000D02*
X154400000Y-100150000D01*
X155000000Y-89200000D02*
X160345000Y-89200000D01*
X154400000Y-100150000D02*
X154150000Y-99900000D01*
X156850000Y-99150000D02*
X162950000Y-99150000D01*
X173900000Y-100250000D02*
X173900000Y-112650000D01*
X164900000Y-97200000D02*
X165650000Y-97200000D01*
X162950000Y-99150000D02*
X164900000Y-97200000D01*
D29*
X161200000Y-86700000D02*
X159950000Y-86700000D01*
X159000000Y-86700000D02*
X159200000Y-86700000D01*
X159950000Y-86700000D02*
X159000000Y-86700000D01*
X163300000Y-84750000D02*
X163300000Y-86700000D01*
X163300000Y-74750000D02*
X163250000Y-74700000D01*
X163300000Y-84750000D02*
X163300000Y-74750000D01*
X141250000Y-74700000D02*
X163250000Y-74700000D01*
X144650000Y-81250000D02*
X158200000Y-81250000D01*
X144650000Y-78100000D02*
X144650000Y-81250000D01*
X159900000Y-78100000D02*
X144650000Y-78100000D01*
X159900000Y-83000000D02*
X159900000Y-78100000D01*
X142950000Y-83000000D02*
X159900000Y-83000000D01*
X142950000Y-76400000D02*
X142950000Y-83000000D01*
X161600000Y-76400000D02*
X142950000Y-76400000D01*
X161600000Y-84700000D02*
X161600000Y-76400000D01*
X141250000Y-84700000D02*
X161600000Y-84700000D01*
X141250000Y-74700000D02*
X141250000Y-84700000D01*
X158150000Y-81300000D02*
X158200000Y-81250000D01*
X158200000Y-81250000D02*
X158150000Y-81300000D01*
X163300000Y-86700000D02*
X163250000Y-86650000D01*
D33*
X161615000Y-88750000D02*
X161615000Y-87115000D01*
X161615000Y-87115000D02*
X161200000Y-86700000D01*
X162885000Y-88750000D02*
X162885000Y-87115000D01*
X162885000Y-87115000D02*
X163300000Y-86700000D01*
D30*
X147250000Y-95050000D02*
X147250000Y-96100000D01*
X147650000Y-98500000D02*
X144750000Y-98500000D01*
X147250000Y-96100000D02*
X147650000Y-96500000D01*
X146250000Y-95050000D02*
X146250000Y-96000000D01*
X146250000Y-96000000D02*
X145450000Y-96800000D01*
X143450000Y-98150000D02*
X141650000Y-98150000D01*
X144750000Y-98500000D02*
X143800000Y-98500000D01*
X143800000Y-98500000D02*
X143450000Y-98150000D01*
X141750000Y-117500000D02*
X141750000Y-116650000D01*
X140750000Y-116600000D02*
X140750000Y-117500000D01*
X140850000Y-116500000D02*
X140750000Y-116600000D01*
X141600000Y-116500000D02*
X140850000Y-116500000D01*
X141750000Y-116650000D02*
X141600000Y-116500000D01*
D29*
X164155000Y-89200000D02*
X164900000Y-89200000D01*
X170550000Y-83550000D02*
X172900000Y-81200000D01*
X164900000Y-89200000D02*
X167100000Y-87000000D01*
X172900000Y-81200000D02*
X173100000Y-81200000D01*
X146650000Y-89300000D02*
X145200000Y-89300000D01*
X145200000Y-89300000D02*
X144950000Y-89550000D01*
X148750000Y-89300000D02*
X146650000Y-89300000D01*
X152400000Y-89300000D02*
X148750000Y-89300000D01*
D30*
X144950000Y-89550000D02*
X145200000Y-89300000D01*
X147250000Y-95050000D02*
X147250000Y-93400000D01*
X147250000Y-93400000D02*
X146650000Y-92800000D01*
D34*
X181700000Y-82850000D02*
X182500000Y-82850000D01*
X180500000Y-84050000D02*
X181700000Y-82850000D01*
D29*
X171300000Y-113600000D02*
X170200000Y-113600000D01*
X169050000Y-114750000D02*
X168100000Y-114750000D01*
X170200000Y-113600000D02*
X169050000Y-114750000D01*
D31*
X133745000Y-111550000D02*
X135800000Y-111550000D01*
D33*
X167500000Y-117900000D02*
X170655000Y-117900000D01*
X170655000Y-117900000D02*
X171305000Y-117250000D01*
D31*
X171300000Y-114550000D02*
X171300000Y-117245000D01*
X171300000Y-117245000D02*
X171305000Y-117250000D01*
X130455000Y-111550000D02*
X128695000Y-111550000D01*
D35*
G36*
X192598000Y-122598000D02*
X158200026Y-122598000D01*
X158288327Y-122509699D01*
X158385000Y-122276310D01*
X158385000Y-121895304D01*
X158411673Y-121959698D01*
X158590301Y-122138327D01*
X158823690Y-122235000D01*
X159264250Y-122235000D01*
X159423000Y-122076250D01*
X159423000Y-121127000D01*
X159677000Y-121127000D01*
X159677000Y-122076250D01*
X159835750Y-122235000D01*
X160276310Y-122235000D01*
X160509699Y-122138327D01*
X160688327Y-121959698D01*
X160785000Y-121726309D01*
X160785000Y-121285750D01*
X160626250Y-121127000D01*
X159677000Y-121127000D01*
X159423000Y-121127000D01*
X159403000Y-121127000D01*
X159403000Y-120873000D01*
X159423000Y-120873000D01*
X159423000Y-120853000D01*
X159677000Y-120853000D01*
X159677000Y-120873000D01*
X160626250Y-120873000D01*
X160749250Y-120750000D01*
X163323000Y-120750000D01*
X163374534Y-121009077D01*
X163521289Y-121228711D01*
X163740923Y-121375466D01*
X164000000Y-121427000D01*
X171550000Y-121427000D01*
X171606984Y-121415665D01*
X179810811Y-121415665D01*
X179976252Y-121816063D01*
X180282326Y-122122671D01*
X180682434Y-122288811D01*
X181115665Y-122289189D01*
X181516063Y-122123748D01*
X181822671Y-121817674D01*
X181988811Y-121417566D01*
X181988812Y-121415665D01*
X182310811Y-121415665D01*
X182476252Y-121816063D01*
X182782326Y-122122671D01*
X183182434Y-122288811D01*
X183615665Y-122289189D01*
X184016063Y-122123748D01*
X184322671Y-121817674D01*
X184488811Y-121417566D01*
X184488812Y-121415665D01*
X184810811Y-121415665D01*
X184976252Y-121816063D01*
X185282326Y-122122671D01*
X185682434Y-122288811D01*
X186115665Y-122289189D01*
X186516063Y-122123748D01*
X186822671Y-121817674D01*
X186988811Y-121417566D01*
X186988812Y-121415665D01*
X187310811Y-121415665D01*
X187476252Y-121816063D01*
X187782326Y-122122671D01*
X188182434Y-122288811D01*
X188615665Y-122289189D01*
X189016063Y-122123748D01*
X189322671Y-121817674D01*
X189488811Y-121417566D01*
X189488812Y-121415665D01*
X189810811Y-121415665D01*
X189976252Y-121816063D01*
X190282326Y-122122671D01*
X190682434Y-122288811D01*
X191115665Y-122289189D01*
X191516063Y-122123748D01*
X191822671Y-121817674D01*
X191988811Y-121417566D01*
X191989189Y-120984335D01*
X191823748Y-120583937D01*
X191517674Y-120277329D01*
X191117566Y-120111189D01*
X190684335Y-120110811D01*
X190283937Y-120276252D01*
X189977329Y-120582326D01*
X189811189Y-120982434D01*
X189810811Y-121415665D01*
X189488812Y-121415665D01*
X189489189Y-120984335D01*
X189323748Y-120583937D01*
X189017674Y-120277329D01*
X188617566Y-120111189D01*
X188184335Y-120110811D01*
X187783937Y-120276252D01*
X187477329Y-120582326D01*
X187311189Y-120982434D01*
X187310811Y-121415665D01*
X186988812Y-121415665D01*
X186989189Y-120984335D01*
X186823748Y-120583937D01*
X186517674Y-120277329D01*
X186117566Y-120111189D01*
X185684335Y-120110811D01*
X185283937Y-120276252D01*
X184977329Y-120582326D01*
X184811189Y-120982434D01*
X184810811Y-121415665D01*
X184488812Y-121415665D01*
X184489189Y-120984335D01*
X184323748Y-120583937D01*
X184017674Y-120277329D01*
X183617566Y-120111189D01*
X183184335Y-120110811D01*
X182783937Y-120276252D01*
X182477329Y-120582326D01*
X182311189Y-120982434D01*
X182310811Y-121415665D01*
X181988812Y-121415665D01*
X181989189Y-120984335D01*
X181951696Y-120893594D01*
X182522645Y-120322645D01*
X182636885Y-120151675D01*
X182677000Y-119950000D01*
X182677000Y-119925302D01*
X183192302Y-120109144D01*
X183747368Y-120081362D01*
X184131143Y-119922397D01*
X184200608Y-119680213D01*
X183400000Y-118879605D01*
X183385858Y-118893748D01*
X183206253Y-118714143D01*
X183220395Y-118700000D01*
X183579605Y-118700000D01*
X184380213Y-119500608D01*
X184622397Y-119431143D01*
X184647943Y-119359538D01*
X184677603Y-119431143D01*
X184919787Y-119500608D01*
X185720395Y-118700000D01*
X184919787Y-117899392D01*
X184677603Y-117968857D01*
X184652057Y-118040462D01*
X184622397Y-117968857D01*
X184380213Y-117899392D01*
X183579605Y-118700000D01*
X183220395Y-118700000D01*
X183206253Y-118685858D01*
X183385858Y-118506253D01*
X183400000Y-118520395D01*
X184200608Y-117719787D01*
X184131143Y-117477603D01*
X183607698Y-117290856D01*
X183052632Y-117318638D01*
X182677000Y-117474230D01*
X182677000Y-116064171D01*
X184842891Y-116064171D01*
X184938145Y-116294703D01*
X185114369Y-116471235D01*
X185344735Y-116566891D01*
X185497801Y-116567025D01*
X186284825Y-117354049D01*
X186107698Y-117290856D01*
X185552632Y-117318638D01*
X185168857Y-117477603D01*
X185099392Y-117719787D01*
X185900000Y-118520395D01*
X185914143Y-118506253D01*
X186093748Y-118685858D01*
X186079605Y-118700000D01*
X186093748Y-118714143D01*
X185914143Y-118893748D01*
X185900000Y-118879605D01*
X185099392Y-119680213D01*
X185168857Y-119922397D01*
X185692302Y-120109144D01*
X186247368Y-120081362D01*
X186562981Y-119950630D01*
X186562891Y-120054171D01*
X186658145Y-120284703D01*
X186834369Y-120461235D01*
X187064735Y-120556891D01*
X187314171Y-120557109D01*
X187544703Y-120461855D01*
X187721235Y-120285631D01*
X187816891Y-120055265D01*
X187816961Y-119975235D01*
X188192302Y-120109144D01*
X188747368Y-120081362D01*
X189131143Y-119922397D01*
X189200608Y-119680213D01*
X188400000Y-118879605D01*
X188385858Y-118893748D01*
X188206253Y-118714143D01*
X188220395Y-118700000D01*
X188579605Y-118700000D01*
X189380213Y-119500608D01*
X189622397Y-119431143D01*
X189806301Y-118915665D01*
X189810811Y-118915665D01*
X189976252Y-119316063D01*
X190282326Y-119622671D01*
X190682434Y-119788811D01*
X191115665Y-119789189D01*
X191516063Y-119623748D01*
X191822671Y-119317674D01*
X191988811Y-118917566D01*
X191989189Y-118484335D01*
X191823748Y-118083937D01*
X191517674Y-117777329D01*
X191117566Y-117611189D01*
X190684335Y-117610811D01*
X190283937Y-117776252D01*
X189977329Y-118082326D01*
X189811189Y-118482434D01*
X189810811Y-118915665D01*
X189806301Y-118915665D01*
X189809144Y-118907698D01*
X189781362Y-118352632D01*
X189622397Y-117968857D01*
X189380213Y-117899392D01*
X188579605Y-118700000D01*
X188220395Y-118700000D01*
X188206253Y-118685858D01*
X188385858Y-118506253D01*
X188400000Y-118520395D01*
X189200608Y-117719787D01*
X189131143Y-117477603D01*
X188607698Y-117290856D01*
X188052632Y-117318638D01*
X187668857Y-117477603D01*
X187636273Y-117591206D01*
X187607594Y-117447027D01*
X187509612Y-117300388D01*
X186097046Y-115887822D01*
X186097109Y-115815829D01*
X186001855Y-115585297D01*
X185825631Y-115408765D01*
X185595265Y-115313109D01*
X185345829Y-115312891D01*
X185115297Y-115408145D01*
X184938765Y-115584369D01*
X184843109Y-115814735D01*
X184842891Y-116064171D01*
X182677000Y-116064171D01*
X182677000Y-112518290D01*
X184972645Y-110222645D01*
X185086885Y-110051675D01*
X185093540Y-110018215D01*
X185127000Y-109850000D01*
X185127000Y-83783406D01*
X185200000Y-83783406D01*
X185321179Y-83760605D01*
X185432474Y-83688988D01*
X185507138Y-83579714D01*
X185533406Y-83450000D01*
X185533406Y-82250000D01*
X185510605Y-82128821D01*
X185438988Y-82017526D01*
X185329714Y-81942862D01*
X185200000Y-81916594D01*
X185052000Y-81916594D01*
X185052000Y-81434728D01*
X185131235Y-81355631D01*
X185226891Y-81125265D01*
X185227109Y-80875829D01*
X185131855Y-80645297D01*
X184955631Y-80468765D01*
X184725265Y-80373109D01*
X184475829Y-80372891D01*
X184245297Y-80468145D01*
X184068765Y-80644369D01*
X183973109Y-80874735D01*
X183972891Y-81124171D01*
X184068145Y-81354703D01*
X184148000Y-81434698D01*
X184148000Y-81916594D01*
X184000000Y-81916594D01*
X183878821Y-81939395D01*
X183767526Y-82011012D01*
X183718218Y-82083176D01*
X183638327Y-81890301D01*
X183459698Y-81711673D01*
X183226309Y-81615000D01*
X182785750Y-81615000D01*
X182627000Y-81773750D01*
X182627000Y-82723000D01*
X182647000Y-82723000D01*
X182647000Y-82977000D01*
X182627000Y-82977000D01*
X182627000Y-83926250D01*
X182785750Y-84085000D01*
X183226309Y-84085000D01*
X183459698Y-83988327D01*
X183638327Y-83809699D01*
X183718433Y-83616305D01*
X183761012Y-83682474D01*
X183870286Y-83757138D01*
X184000000Y-83783406D01*
X184073000Y-83783406D01*
X184073000Y-109631710D01*
X181777355Y-111927355D01*
X181663115Y-112098325D01*
X181650002Y-112164250D01*
X181623000Y-112300000D01*
X181623000Y-117474698D01*
X181107698Y-117290856D01*
X180552632Y-117318638D01*
X180168857Y-117477603D01*
X180099392Y-117719787D01*
X180900000Y-118520395D01*
X180914143Y-118506253D01*
X181093748Y-118685858D01*
X181079605Y-118700000D01*
X181093748Y-118714143D01*
X180914143Y-118893748D01*
X180900000Y-118879605D01*
X180099392Y-119680213D01*
X180168857Y-119922397D01*
X180692302Y-120109144D01*
X181247368Y-120081362D01*
X181291719Y-120062991D01*
X181206565Y-120148145D01*
X181117566Y-120111189D01*
X180684335Y-120110811D01*
X180283937Y-120276252D01*
X179977329Y-120582326D01*
X179811189Y-120982434D01*
X179810811Y-121415665D01*
X171606984Y-121415665D01*
X171809077Y-121375466D01*
X172028711Y-121228711D01*
X174073711Y-119183711D01*
X174124028Y-119108406D01*
X174355000Y-119108406D01*
X174476179Y-119085605D01*
X174587474Y-119013988D01*
X174662138Y-118904714D01*
X174688406Y-118775000D01*
X174688406Y-118492302D01*
X179490856Y-118492302D01*
X179518638Y-119047368D01*
X179677603Y-119431143D01*
X179919787Y-119500608D01*
X180720395Y-118700000D01*
X179919787Y-117899392D01*
X179677603Y-117968857D01*
X179490856Y-118492302D01*
X174688406Y-118492302D01*
X174688406Y-115725000D01*
X174665605Y-115603821D01*
X174593988Y-115492526D01*
X174527000Y-115446755D01*
X174527000Y-115227000D01*
X175981082Y-115227000D01*
X175989395Y-115271179D01*
X176061012Y-115382474D01*
X176170286Y-115457138D01*
X176300000Y-115483406D01*
X177500000Y-115483406D01*
X177621179Y-115460605D01*
X177732474Y-115388988D01*
X177807138Y-115279714D01*
X177817813Y-115227000D01*
X180200000Y-115227000D01*
X180459077Y-115175466D01*
X180678711Y-115028711D01*
X180825466Y-114809077D01*
X180877000Y-114550000D01*
X180825466Y-114290923D01*
X180678711Y-114071289D01*
X180459077Y-113924534D01*
X180200000Y-113873000D01*
X177818918Y-113873000D01*
X177810605Y-113828821D01*
X177738988Y-113717526D01*
X177666824Y-113668218D01*
X177859699Y-113588327D01*
X178038327Y-113409698D01*
X178135000Y-113176309D01*
X178135000Y-112735750D01*
X177976250Y-112577000D01*
X177027000Y-112577000D01*
X177027000Y-112597000D01*
X176773000Y-112597000D01*
X176773000Y-112577000D01*
X175823750Y-112577000D01*
X175665000Y-112735750D01*
X175665000Y-113176309D01*
X175761673Y-113409698D01*
X175940301Y-113588327D01*
X176133695Y-113668433D01*
X176067526Y-113711012D01*
X175992862Y-113820286D01*
X175982187Y-113873000D01*
X174431633Y-113873000D01*
X174400000Y-113866594D01*
X173400000Y-113866594D01*
X173278821Y-113889395D01*
X173167526Y-113961012D01*
X173092862Y-114070286D01*
X173066594Y-114200000D01*
X173066594Y-114900000D01*
X173089395Y-115021179D01*
X173161012Y-115132474D01*
X173270286Y-115207138D01*
X173273000Y-115207688D01*
X173273000Y-115391594D01*
X172835000Y-115391594D01*
X172713821Y-115414395D01*
X172602526Y-115486012D01*
X172527862Y-115595286D01*
X172501594Y-115725000D01*
X172501594Y-118775000D01*
X172512043Y-118830535D01*
X171269578Y-120073000D01*
X164000000Y-120073000D01*
X163740923Y-120124534D01*
X163521289Y-120271289D01*
X163374534Y-120490923D01*
X163323000Y-120750000D01*
X160749250Y-120750000D01*
X160785000Y-120714250D01*
X160785000Y-120273691D01*
X160688327Y-120040302D01*
X160509699Y-119861673D01*
X160316305Y-119781567D01*
X160382474Y-119738988D01*
X160457138Y-119629714D01*
X160483406Y-119500000D01*
X160483406Y-118300000D01*
X160460605Y-118178821D01*
X160400232Y-118085000D01*
X160564250Y-118085000D01*
X160723000Y-117926250D01*
X160723000Y-116977000D01*
X159773750Y-116977000D01*
X159750000Y-117000750D01*
X159726250Y-116977000D01*
X158777000Y-116977000D01*
X158777000Y-117926250D01*
X158838352Y-117987602D01*
X158828821Y-117989395D01*
X158717526Y-118061012D01*
X158642862Y-118170286D01*
X158616594Y-118300000D01*
X158616594Y-118448000D01*
X155875026Y-118448000D01*
X155913327Y-118409699D01*
X156010000Y-118176310D01*
X156010000Y-117785750D01*
X155851250Y-117627000D01*
X155312500Y-117627000D01*
X155312500Y-117647000D01*
X155208406Y-117647000D01*
X155208406Y-117593480D01*
X155227000Y-117500000D01*
X155227000Y-117353000D01*
X155312500Y-117353000D01*
X155312500Y-117373000D01*
X155851250Y-117373000D01*
X156010000Y-117214250D01*
X156010000Y-117135750D01*
X157415000Y-117135750D01*
X157415000Y-117576309D01*
X157511673Y-117809698D01*
X157690301Y-117988327D01*
X157923690Y-118085000D01*
X158364250Y-118085000D01*
X158523000Y-117926250D01*
X158523000Y-116977000D01*
X157573750Y-116977000D01*
X157415000Y-117135750D01*
X156010000Y-117135750D01*
X156010000Y-116823690D01*
X155913327Y-116590301D01*
X155734698Y-116411673D01*
X155501309Y-116315000D01*
X155471250Y-116315000D01*
X155377002Y-116409248D01*
X155377002Y-116330420D01*
X156280422Y-115427000D01*
X157731082Y-115427000D01*
X157739395Y-115471179D01*
X157811012Y-115582474D01*
X157883176Y-115631782D01*
X157690301Y-115711673D01*
X157511673Y-115890302D01*
X157415000Y-116123691D01*
X157415000Y-116564250D01*
X157573750Y-116723000D01*
X158523000Y-116723000D01*
X158523000Y-116703000D01*
X158777000Y-116703000D01*
X158777000Y-116723000D01*
X159726250Y-116723000D01*
X159750000Y-116699250D01*
X159773750Y-116723000D01*
X160723000Y-116723000D01*
X160723000Y-116703000D01*
X160977000Y-116703000D01*
X160977000Y-116723000D01*
X160997000Y-116723000D01*
X160997000Y-116977000D01*
X160977000Y-116977000D01*
X160977000Y-117926250D01*
X161135750Y-118085000D01*
X161576310Y-118085000D01*
X161809699Y-117988327D01*
X161916594Y-117881431D01*
X161916594Y-118750000D01*
X161939395Y-118871179D01*
X162011012Y-118982474D01*
X162120286Y-119057138D01*
X162250000Y-119083406D01*
X164750000Y-119083406D01*
X164871179Y-119060605D01*
X164982474Y-118988988D01*
X165057138Y-118879714D01*
X165083406Y-118750000D01*
X165083406Y-117050000D01*
X165916594Y-117050000D01*
X165916594Y-118750000D01*
X165939395Y-118871179D01*
X166011012Y-118982474D01*
X166120286Y-119057138D01*
X166250000Y-119083406D01*
X168750000Y-119083406D01*
X168871179Y-119060605D01*
X168982474Y-118988988D01*
X169057138Y-118879714D01*
X169083406Y-118750000D01*
X169083406Y-118527000D01*
X170211594Y-118527000D01*
X170211594Y-118775000D01*
X170234395Y-118896179D01*
X170306012Y-119007474D01*
X170415286Y-119082138D01*
X170545000Y-119108406D01*
X172065000Y-119108406D01*
X172186179Y-119085605D01*
X172297474Y-119013988D01*
X172372138Y-118904714D01*
X172398406Y-118775000D01*
X172398406Y-115725000D01*
X172375605Y-115603821D01*
X172303988Y-115492526D01*
X172194714Y-115417862D01*
X172065000Y-115391594D01*
X171877000Y-115391594D01*
X171877000Y-115218918D01*
X171921179Y-115210605D01*
X172032474Y-115138988D01*
X172107138Y-115029714D01*
X172133406Y-114900000D01*
X172133406Y-114499218D01*
X172159699Y-114488327D01*
X172338327Y-114309698D01*
X172435000Y-114076309D01*
X172435000Y-113885750D01*
X172276250Y-113727000D01*
X171427000Y-113727000D01*
X171427000Y-113747000D01*
X171173000Y-113747000D01*
X171173000Y-113727000D01*
X170323750Y-113727000D01*
X170165000Y-113885750D01*
X170165000Y-114076309D01*
X170261673Y-114309698D01*
X170440301Y-114488327D01*
X170466594Y-114499218D01*
X170466594Y-114900000D01*
X170489395Y-115021179D01*
X170561012Y-115132474D01*
X170670286Y-115207138D01*
X170723000Y-115217813D01*
X170723000Y-115391594D01*
X170545000Y-115391594D01*
X170423821Y-115414395D01*
X170312526Y-115486012D01*
X170237862Y-115595286D01*
X170211594Y-115725000D01*
X170211594Y-117273000D01*
X169083406Y-117273000D01*
X169083406Y-117050000D01*
X169060605Y-116928821D01*
X168988988Y-116817526D01*
X168879714Y-116742862D01*
X168750000Y-116716594D01*
X166250000Y-116716594D01*
X166128821Y-116739395D01*
X166017526Y-116811012D01*
X165942862Y-116920286D01*
X165916594Y-117050000D01*
X165083406Y-117050000D01*
X165060605Y-116928821D01*
X164988988Y-116817526D01*
X164879714Y-116742862D01*
X164750000Y-116716594D01*
X164177000Y-116716594D01*
X164177000Y-115668918D01*
X164221179Y-115660605D01*
X164332474Y-115588988D01*
X164407138Y-115479714D01*
X164417813Y-115427000D01*
X164881082Y-115427000D01*
X164889395Y-115471179D01*
X164961012Y-115582474D01*
X165070286Y-115657138D01*
X165200000Y-115683406D01*
X166400000Y-115683406D01*
X166521179Y-115660605D01*
X166632474Y-115588988D01*
X166707138Y-115479714D01*
X166733406Y-115350000D01*
X166733406Y-115035750D01*
X166865000Y-115035750D01*
X166865000Y-115476309D01*
X166961673Y-115709698D01*
X167140301Y-115888327D01*
X167373690Y-115985000D01*
X167814250Y-115985000D01*
X167973000Y-115826250D01*
X167973000Y-114877000D01*
X168227000Y-114877000D01*
X168227000Y-115826250D01*
X168385750Y-115985000D01*
X168826310Y-115985000D01*
X169059699Y-115888327D01*
X169238327Y-115709698D01*
X169335000Y-115476309D01*
X169335000Y-115035750D01*
X169176250Y-114877000D01*
X168227000Y-114877000D01*
X167973000Y-114877000D01*
X167023750Y-114877000D01*
X166865000Y-115035750D01*
X166733406Y-115035750D01*
X166733406Y-114150000D01*
X166710605Y-114028821D01*
X166638988Y-113917526D01*
X166529714Y-113842862D01*
X166400000Y-113816594D01*
X165200000Y-113816594D01*
X165078821Y-113839395D01*
X164967526Y-113911012D01*
X164892862Y-114020286D01*
X164882187Y-114073000D01*
X164418918Y-114073000D01*
X164410605Y-114028821D01*
X164338988Y-113917526D01*
X164229714Y-113842862D01*
X164100000Y-113816594D01*
X162900000Y-113816594D01*
X162778821Y-113839395D01*
X162667526Y-113911012D01*
X162592862Y-114020286D01*
X162582187Y-114073000D01*
X161768918Y-114073000D01*
X161760605Y-114028821D01*
X161688988Y-113917526D01*
X161579714Y-113842862D01*
X161450000Y-113816594D01*
X160250000Y-113816594D01*
X160128821Y-113839395D01*
X160017526Y-113911012D01*
X159942862Y-114020286D01*
X159932187Y-114073000D01*
X159568918Y-114073000D01*
X159560605Y-114028821D01*
X159488988Y-113917526D01*
X159379714Y-113842862D01*
X159250000Y-113816594D01*
X158050000Y-113816594D01*
X157928821Y-113839395D01*
X157817526Y-113911012D01*
X157742862Y-114020286D01*
X157732187Y-114073000D01*
X156000000Y-114073000D01*
X155855723Y-114101699D01*
X157907422Y-112050000D01*
X162566594Y-112050000D01*
X162566594Y-113250000D01*
X162589395Y-113371179D01*
X162661012Y-113482474D01*
X162770286Y-113557138D01*
X162900000Y-113583406D01*
X164100000Y-113583406D01*
X164221179Y-113560605D01*
X164332474Y-113488988D01*
X164407138Y-113379714D01*
X164417813Y-113327000D01*
X164881082Y-113327000D01*
X164889395Y-113371179D01*
X164961012Y-113482474D01*
X165070286Y-113557138D01*
X165200000Y-113583406D01*
X166400000Y-113583406D01*
X166521179Y-113560605D01*
X166632474Y-113488988D01*
X166707138Y-113379714D01*
X166717813Y-113327000D01*
X167181082Y-113327000D01*
X167189395Y-113371179D01*
X167261012Y-113482474D01*
X167333176Y-113531782D01*
X167140301Y-113611673D01*
X166961673Y-113790302D01*
X166865000Y-114023691D01*
X166865000Y-114464250D01*
X167023750Y-114623000D01*
X167973000Y-114623000D01*
X167973000Y-114603000D01*
X168227000Y-114603000D01*
X168227000Y-114623000D01*
X169176250Y-114623000D01*
X169335000Y-114464250D01*
X169335000Y-114023691D01*
X169238327Y-113790302D01*
X169059699Y-113611673D01*
X168866305Y-113531567D01*
X168932474Y-113488988D01*
X169007138Y-113379714D01*
X169017813Y-113327000D01*
X170177750Y-113327000D01*
X170323750Y-113473000D01*
X171173000Y-113473000D01*
X171173000Y-113453000D01*
X171427000Y-113453000D01*
X171427000Y-113473000D01*
X172276250Y-113473000D01*
X172435000Y-113314250D01*
X172435000Y-113123691D01*
X172338327Y-112890302D01*
X172159699Y-112711673D01*
X172133406Y-112700782D01*
X172133406Y-112300000D01*
X173066594Y-112300000D01*
X173066594Y-113000000D01*
X173089395Y-113121179D01*
X173161012Y-113232474D01*
X173270286Y-113307138D01*
X173400000Y-113333406D01*
X174400000Y-113333406D01*
X174521179Y-113310605D01*
X174632474Y-113238988D01*
X174707138Y-113129714D01*
X174733406Y-113000000D01*
X174733406Y-112300000D01*
X174710605Y-112178821D01*
X174638988Y-112067526D01*
X174529714Y-111992862D01*
X174400000Y-111966594D01*
X174352000Y-111966594D01*
X174352000Y-111723691D01*
X175665000Y-111723691D01*
X175665000Y-112164250D01*
X175823750Y-112323000D01*
X176773000Y-112323000D01*
X176773000Y-111373750D01*
X177027000Y-111373750D01*
X177027000Y-112323000D01*
X177976250Y-112323000D01*
X178135000Y-112164250D01*
X178135000Y-111723691D01*
X178038327Y-111490302D01*
X177859699Y-111311673D01*
X177626310Y-111215000D01*
X177185750Y-111215000D01*
X177027000Y-111373750D01*
X176773000Y-111373750D01*
X176614250Y-111215000D01*
X176173690Y-111215000D01*
X175940301Y-111311673D01*
X175761673Y-111490302D01*
X175665000Y-111723691D01*
X174352000Y-111723691D01*
X174352000Y-106324171D01*
X175372891Y-106324171D01*
X175468145Y-106554703D01*
X175548000Y-106634698D01*
X175548000Y-107715272D01*
X175468765Y-107794369D01*
X175373109Y-108024735D01*
X175372891Y-108274171D01*
X175468145Y-108504703D01*
X175644369Y-108681235D01*
X175874735Y-108776891D01*
X176124171Y-108777109D01*
X176354703Y-108681855D01*
X176531235Y-108505631D01*
X176626891Y-108275265D01*
X176627109Y-108025829D01*
X176531855Y-107795297D01*
X176452000Y-107715302D01*
X176452000Y-106634728D01*
X176531235Y-106555631D01*
X176626891Y-106325265D01*
X176627109Y-106075829D01*
X176531855Y-105845297D01*
X176355631Y-105668765D01*
X176125265Y-105573109D01*
X175875829Y-105572891D01*
X175645297Y-105668145D01*
X175468765Y-105844369D01*
X175373109Y-106074735D01*
X175372891Y-106324171D01*
X174352000Y-106324171D01*
X174352000Y-100684728D01*
X174431235Y-100605631D01*
X174526891Y-100375265D01*
X174527109Y-100125829D01*
X174431855Y-99895297D01*
X174255631Y-99718765D01*
X174025265Y-99623109D01*
X173775829Y-99622891D01*
X173545297Y-99718145D01*
X173368765Y-99894369D01*
X173273109Y-100124735D01*
X173272891Y-100374171D01*
X173368145Y-100604703D01*
X173448000Y-100684698D01*
X173448000Y-111966594D01*
X173400000Y-111966594D01*
X173278821Y-111989395D01*
X173167526Y-112061012D01*
X173092862Y-112170286D01*
X173066594Y-112300000D01*
X172133406Y-112300000D01*
X172110605Y-112178821D01*
X172038988Y-112067526D01*
X171929714Y-111992862D01*
X171800000Y-111966594D01*
X170800000Y-111966594D01*
X170765954Y-111973000D01*
X169018918Y-111973000D01*
X169010605Y-111928821D01*
X168938988Y-111817526D01*
X168829714Y-111742862D01*
X168700000Y-111716594D01*
X167500000Y-111716594D01*
X167378821Y-111739395D01*
X167267526Y-111811012D01*
X167192862Y-111920286D01*
X167182187Y-111973000D01*
X166718918Y-111973000D01*
X166710605Y-111928821D01*
X166638988Y-111817526D01*
X166529714Y-111742862D01*
X166400000Y-111716594D01*
X165200000Y-111716594D01*
X165078821Y-111739395D01*
X164967526Y-111811012D01*
X164892862Y-111920286D01*
X164882187Y-111973000D01*
X164418918Y-111973000D01*
X164410605Y-111928821D01*
X164338988Y-111817526D01*
X164229714Y-111742862D01*
X164100000Y-111716594D01*
X162900000Y-111716594D01*
X162778821Y-111739395D01*
X162667526Y-111811012D01*
X162592862Y-111920286D01*
X162566594Y-112050000D01*
X157907422Y-112050000D01*
X160828711Y-109128711D01*
X160975466Y-108909076D01*
X161026999Y-108650000D01*
X160975466Y-108390924D01*
X160828711Y-108171289D01*
X160725012Y-108102000D01*
X161212776Y-108102000D01*
X161422989Y-108312213D01*
X161422891Y-108424171D01*
X161518145Y-108654703D01*
X161694369Y-108831235D01*
X161924735Y-108926891D01*
X162174171Y-108927109D01*
X162404703Y-108831855D01*
X162581235Y-108655631D01*
X162676891Y-108425265D01*
X162677109Y-108175829D01*
X162581855Y-107945297D01*
X162413821Y-107776969D01*
X162574171Y-107777109D01*
X162804703Y-107681855D01*
X162981235Y-107505631D01*
X163076891Y-107275265D01*
X163077109Y-107025829D01*
X162981855Y-106795297D01*
X162913690Y-106727012D01*
X163024171Y-106727109D01*
X163254703Y-106631855D01*
X163431235Y-106455631D01*
X163526891Y-106225265D01*
X163527109Y-105975829D01*
X163431855Y-105745297D01*
X163255631Y-105568765D01*
X163025265Y-105473109D01*
X162775829Y-105472891D01*
X162545297Y-105568145D01*
X162465302Y-105648000D01*
X162277002Y-105648000D01*
X162277109Y-105525829D01*
X162181855Y-105295297D01*
X162005631Y-105118765D01*
X161775265Y-105023109D01*
X161525829Y-105022891D01*
X161295297Y-105118145D01*
X161118765Y-105294369D01*
X161023109Y-105524735D01*
X161023010Y-105637766D01*
X160962776Y-105698000D01*
X157983406Y-105698000D01*
X157983406Y-105500000D01*
X157963899Y-105396327D01*
X157983406Y-105300000D01*
X157983406Y-105000000D01*
X157963899Y-104896327D01*
X157983406Y-104800000D01*
X157983406Y-104500000D01*
X157963899Y-104396327D01*
X157972526Y-104353724D01*
X158009699Y-104338327D01*
X158188327Y-104159698D01*
X158285000Y-103926309D01*
X158285000Y-103883750D01*
X158126250Y-103725000D01*
X157826749Y-103725000D01*
X157779714Y-103692862D01*
X157650000Y-103666594D01*
X156050000Y-103666594D01*
X155928821Y-103689395D01*
X155915449Y-103698000D01*
X150487224Y-103698000D01*
X149569612Y-102780388D01*
X149422973Y-102682406D01*
X149250000Y-102648000D01*
X147384728Y-102648000D01*
X147305631Y-102568765D01*
X147075265Y-102473109D01*
X146825829Y-102472891D01*
X146595297Y-102568145D01*
X146418765Y-102744369D01*
X146323109Y-102974735D01*
X146322891Y-103224171D01*
X146418145Y-103454703D01*
X146594369Y-103631235D01*
X146824735Y-103726891D01*
X147074171Y-103727109D01*
X147265072Y-103648230D01*
X147168765Y-103744369D01*
X147073109Y-103974735D01*
X147072891Y-104224171D01*
X147168145Y-104454703D01*
X147344369Y-104631235D01*
X147574735Y-104726891D01*
X147824171Y-104727109D01*
X147929909Y-104683419D01*
X147818765Y-104794369D01*
X147723109Y-105024735D01*
X147722891Y-105274171D01*
X147818145Y-105504703D01*
X147994369Y-105681235D01*
X148224735Y-105776891D01*
X148474171Y-105777109D01*
X148704703Y-105681855D01*
X148784698Y-105602000D01*
X148861383Y-105602000D01*
X148718765Y-105744369D01*
X148623109Y-105974735D01*
X148622891Y-106224171D01*
X148718145Y-106454703D01*
X148894369Y-106631235D01*
X149124735Y-106726891D01*
X149374171Y-106727109D01*
X149604703Y-106631855D01*
X149781235Y-106455631D01*
X149876891Y-106225265D01*
X149876990Y-106112234D01*
X149887224Y-106102000D01*
X155716594Y-106102000D01*
X155716594Y-106300000D01*
X155736101Y-106403673D01*
X155716594Y-106500000D01*
X155716594Y-106800000D01*
X155736101Y-106903673D01*
X155716594Y-107000000D01*
X155716594Y-107300000D01*
X155736101Y-107403673D01*
X155716594Y-107500000D01*
X155716594Y-107800000D01*
X155736101Y-107903673D01*
X155716594Y-108000000D01*
X155716594Y-108300000D01*
X155736101Y-108403673D01*
X155716594Y-108500000D01*
X155716594Y-108800000D01*
X155739395Y-108921179D01*
X155811012Y-109032474D01*
X155920286Y-109107138D01*
X156050000Y-109133406D01*
X157650000Y-109133406D01*
X157771179Y-109110605D01*
X157882474Y-109038988D01*
X157957138Y-108929714D01*
X157983406Y-108800000D01*
X157983406Y-108500000D01*
X157963899Y-108396327D01*
X157983406Y-108300000D01*
X157983406Y-108102000D01*
X159974988Y-108102000D01*
X159871289Y-108171289D01*
X153371291Y-114671287D01*
X153371288Y-114671289D01*
X153352000Y-114690577D01*
X153352000Y-113684728D01*
X153431235Y-113605631D01*
X153526891Y-113375265D01*
X153527109Y-113125829D01*
X153431855Y-112895297D01*
X153255631Y-112718765D01*
X153025265Y-112623109D01*
X152775829Y-112622891D01*
X152702000Y-112653397D01*
X152702000Y-111383406D01*
X152900000Y-111383406D01*
X153003673Y-111363899D01*
X153100000Y-111383406D01*
X153400000Y-111383406D01*
X153503673Y-111363899D01*
X153600000Y-111383406D01*
X153900000Y-111383406D01*
X154003673Y-111363899D01*
X154100000Y-111383406D01*
X154400000Y-111383406D01*
X154503673Y-111363899D01*
X154600000Y-111383406D01*
X154900000Y-111383406D01*
X155003673Y-111363899D01*
X155100000Y-111383406D01*
X155400000Y-111383406D01*
X155521179Y-111360605D01*
X155632474Y-111288988D01*
X155707138Y-111179714D01*
X155733406Y-111050000D01*
X155733406Y-109450000D01*
X155710605Y-109328821D01*
X155638988Y-109217526D01*
X155529714Y-109142862D01*
X155400000Y-109116594D01*
X155100000Y-109116594D01*
X154996327Y-109136101D01*
X154900000Y-109116594D01*
X154600000Y-109116594D01*
X154496327Y-109136101D01*
X154400000Y-109116594D01*
X154100000Y-109116594D01*
X153996327Y-109136101D01*
X153900000Y-109116594D01*
X153600000Y-109116594D01*
X153496327Y-109136101D01*
X153400000Y-109116594D01*
X153100000Y-109116594D01*
X152996327Y-109136101D01*
X152900000Y-109116594D01*
X152600000Y-109116594D01*
X152496327Y-109136101D01*
X152400000Y-109116594D01*
X152100000Y-109116594D01*
X151996327Y-109136101D01*
X151900000Y-109116594D01*
X151600000Y-109116594D01*
X151496327Y-109136101D01*
X151400000Y-109116594D01*
X151100000Y-109116594D01*
X150996327Y-109136101D01*
X150900000Y-109116594D01*
X150600000Y-109116594D01*
X150496327Y-109136101D01*
X150400000Y-109116594D01*
X150100000Y-109116594D01*
X149996327Y-109136101D01*
X149900000Y-109116594D01*
X149600000Y-109116594D01*
X149496327Y-109136101D01*
X149400000Y-109116594D01*
X149100000Y-109116594D01*
X148996327Y-109136101D01*
X148953724Y-109127474D01*
X148938327Y-109090301D01*
X148759698Y-108911673D01*
X148526309Y-108815000D01*
X148483750Y-108815000D01*
X148325000Y-108973750D01*
X148325000Y-109273251D01*
X148292862Y-109320286D01*
X148266594Y-109450000D01*
X148266594Y-111050000D01*
X148289395Y-111171179D01*
X148298000Y-111184551D01*
X148298000Y-114008776D01*
X147116326Y-112827102D01*
X147124171Y-112827109D01*
X147354703Y-112731855D01*
X147531235Y-112555631D01*
X147626891Y-112325265D01*
X147627109Y-112075829D01*
X147531855Y-111845297D01*
X147355631Y-111668765D01*
X147210746Y-111608604D01*
X147259698Y-111588327D01*
X147438327Y-111409699D01*
X147453378Y-111373362D01*
X147503673Y-111363899D01*
X147546276Y-111372526D01*
X147561673Y-111409699D01*
X147740302Y-111588327D01*
X147973691Y-111685000D01*
X148016250Y-111685000D01*
X148175000Y-111526250D01*
X148175000Y-111226749D01*
X148207138Y-111179714D01*
X148233406Y-111050000D01*
X148233406Y-109450000D01*
X148210605Y-109328821D01*
X148175000Y-109273490D01*
X148175000Y-108973750D01*
X148016250Y-108815000D01*
X147973691Y-108815000D01*
X147740302Y-108911673D01*
X147561673Y-109090301D01*
X147546622Y-109126638D01*
X147496327Y-109136101D01*
X147453724Y-109127474D01*
X147438327Y-109090301D01*
X147259698Y-108911673D01*
X147026309Y-108815000D01*
X146983750Y-108815000D01*
X146825000Y-108973750D01*
X146825000Y-109273251D01*
X146792862Y-109320286D01*
X146766594Y-109450000D01*
X146766594Y-110397000D01*
X146733406Y-110397000D01*
X146733406Y-109450000D01*
X146710605Y-109328821D01*
X146702000Y-109315449D01*
X146702000Y-108900000D01*
X146667594Y-108727027D01*
X146569612Y-108580388D01*
X146077011Y-108087787D01*
X146077109Y-107975829D01*
X145981855Y-107745297D01*
X145805631Y-107568765D01*
X145575265Y-107473109D01*
X145325829Y-107472891D01*
X145095297Y-107568145D01*
X144918765Y-107744369D01*
X144823109Y-107974735D01*
X144822891Y-108224171D01*
X144918145Y-108454703D01*
X145094369Y-108631235D01*
X145324735Y-108726891D01*
X145437766Y-108726990D01*
X145798000Y-109087224D01*
X145798000Y-109116594D01*
X145600000Y-109116594D01*
X145496327Y-109136101D01*
X145400000Y-109116594D01*
X145100000Y-109116594D01*
X144996327Y-109136101D01*
X144900000Y-109116594D01*
X144600000Y-109116594D01*
X144496327Y-109136101D01*
X144400000Y-109116594D01*
X144100000Y-109116594D01*
X143996327Y-109136101D01*
X143900000Y-109116594D01*
X143600000Y-109116594D01*
X143496327Y-109136101D01*
X143400000Y-109116594D01*
X143100000Y-109116594D01*
X142978821Y-109139395D01*
X142867526Y-109211012D01*
X142792862Y-109320286D01*
X142766594Y-109450000D01*
X142766594Y-111050000D01*
X142789395Y-111171179D01*
X142798000Y-111184551D01*
X142798000Y-112600000D01*
X142832406Y-112772973D01*
X142930388Y-112919612D01*
X143458776Y-113448000D01*
X138783406Y-113448000D01*
X138783406Y-113300000D01*
X138760605Y-113178821D01*
X138688988Y-113067526D01*
X138579714Y-112992862D01*
X138450000Y-112966594D01*
X137250000Y-112966594D01*
X137128821Y-112989395D01*
X137017526Y-113061012D01*
X136968218Y-113133176D01*
X136888327Y-112940301D01*
X136709698Y-112761673D01*
X136476309Y-112665000D01*
X136035750Y-112665000D01*
X135877000Y-112823750D01*
X135877000Y-113773000D01*
X135897000Y-113773000D01*
X135897000Y-114027000D01*
X135877000Y-114027000D01*
X135877000Y-115773000D01*
X135897000Y-115773000D01*
X135897000Y-116027000D01*
X135877000Y-116027000D01*
X135877000Y-116976250D01*
X136035750Y-117135000D01*
X136476309Y-117135000D01*
X136709698Y-117038327D01*
X136888327Y-116859699D01*
X136968433Y-116666305D01*
X137011012Y-116732474D01*
X137120286Y-116807138D01*
X137250000Y-116833406D01*
X138450000Y-116833406D01*
X138571179Y-116810605D01*
X138682474Y-116738988D01*
X138757138Y-116629714D01*
X138783406Y-116500000D01*
X138783406Y-116352000D01*
X140409365Y-116352000D01*
X140265302Y-116411673D01*
X140086673Y-116590301D01*
X139990000Y-116823690D01*
X139990000Y-117214250D01*
X140148750Y-117373000D01*
X140687500Y-117373000D01*
X140687500Y-117353000D01*
X140791594Y-117353000D01*
X140791594Y-117647000D01*
X140687500Y-117647000D01*
X140687500Y-117627000D01*
X140148750Y-117627000D01*
X139990000Y-117785750D01*
X139990000Y-118023000D01*
X134983406Y-118023000D01*
X134983406Y-118000000D01*
X134960605Y-117878821D01*
X134888988Y-117767526D01*
X134779714Y-117692862D01*
X134650000Y-117666594D01*
X133450000Y-117666594D01*
X133328821Y-117689395D01*
X133217526Y-117761012D01*
X133142862Y-117870286D01*
X133132187Y-117923000D01*
X132368918Y-117923000D01*
X132360605Y-117878821D01*
X132288988Y-117767526D01*
X132179714Y-117692862D01*
X132050000Y-117666594D01*
X130850000Y-117666594D01*
X130728821Y-117689395D01*
X130617526Y-117761012D01*
X130542862Y-117870286D01*
X130532187Y-117923000D01*
X130030422Y-117923000D01*
X128293172Y-116185750D01*
X134515000Y-116185750D01*
X134515000Y-116626310D01*
X134611673Y-116859699D01*
X134790302Y-117038327D01*
X135023691Y-117135000D01*
X135464250Y-117135000D01*
X135623000Y-116976250D01*
X135623000Y-116027000D01*
X134673750Y-116027000D01*
X134515000Y-116185750D01*
X128293172Y-116185750D01*
X126293172Y-114185750D01*
X134515000Y-114185750D01*
X134515000Y-114626310D01*
X134611673Y-114859699D01*
X134651974Y-114900000D01*
X134611673Y-114940301D01*
X134515000Y-115173690D01*
X134515000Y-115614250D01*
X134673750Y-115773000D01*
X135623000Y-115773000D01*
X135623000Y-114027000D01*
X134673750Y-114027000D01*
X134515000Y-114185750D01*
X126293172Y-114185750D01*
X125281112Y-113173690D01*
X134515000Y-113173690D01*
X134515000Y-113614250D01*
X134673750Y-113773000D01*
X135623000Y-113773000D01*
X135623000Y-112823750D01*
X135464250Y-112665000D01*
X135023691Y-112665000D01*
X134790302Y-112761673D01*
X134611673Y-112940301D01*
X134515000Y-113173690D01*
X125281112Y-113173690D01*
X123928672Y-111821250D01*
X124475000Y-111821250D01*
X124475000Y-111901310D01*
X124571673Y-112134699D01*
X124750302Y-112313327D01*
X124983691Y-112410000D01*
X125119250Y-112410000D01*
X125278000Y-112251250D01*
X125278000Y-111662500D01*
X125532000Y-111662500D01*
X125532000Y-112251250D01*
X125690750Y-112410000D01*
X125826309Y-112410000D01*
X126059698Y-112313327D01*
X126238327Y-112134699D01*
X126335000Y-111901310D01*
X126335000Y-111821250D01*
X126176250Y-111662500D01*
X125532000Y-111662500D01*
X125278000Y-111662500D01*
X124633750Y-111662500D01*
X124475000Y-111821250D01*
X123928672Y-111821250D01*
X123627000Y-111519578D01*
X123627000Y-111198690D01*
X124475000Y-111198690D01*
X124475000Y-111278750D01*
X124633750Y-111437500D01*
X125278000Y-111437500D01*
X125278000Y-110848750D01*
X125532000Y-110848750D01*
X125532000Y-111437500D01*
X126176250Y-111437500D01*
X126288750Y-111325000D01*
X128066594Y-111325000D01*
X128066594Y-111775000D01*
X128089395Y-111896179D01*
X128161012Y-112007474D01*
X128270286Y-112082138D01*
X128400000Y-112108406D01*
X128601523Y-112108406D01*
X128695000Y-112127000D01*
X130455000Y-112127000D01*
X130548477Y-112108406D01*
X130750000Y-112108406D01*
X130871179Y-112085605D01*
X130982474Y-112013988D01*
X131057138Y-111904714D01*
X131083406Y-111775000D01*
X131083406Y-111325000D01*
X133116594Y-111325000D01*
X133116594Y-111775000D01*
X133139395Y-111896179D01*
X133211012Y-112007474D01*
X133320286Y-112082138D01*
X133450000Y-112108406D01*
X133651523Y-112108406D01*
X133745000Y-112127000D01*
X134866594Y-112127000D01*
X134866594Y-112150000D01*
X134889395Y-112271179D01*
X134961012Y-112382474D01*
X135070286Y-112457138D01*
X135200000Y-112483406D01*
X136400000Y-112483406D01*
X136521179Y-112460605D01*
X136632474Y-112388988D01*
X136707138Y-112279714D01*
X136733406Y-112150000D01*
X136733406Y-110950000D01*
X136966594Y-110950000D01*
X136966594Y-112150000D01*
X136989395Y-112271179D01*
X137061012Y-112382474D01*
X137170286Y-112457138D01*
X137300000Y-112483406D01*
X138500000Y-112483406D01*
X138621179Y-112460605D01*
X138732474Y-112388988D01*
X138807138Y-112279714D01*
X138833406Y-112150000D01*
X138833406Y-112002000D01*
X139394377Y-112002000D01*
X139574735Y-112076891D01*
X139824171Y-112077109D01*
X140054703Y-111981855D01*
X140231235Y-111805631D01*
X140326891Y-111575265D01*
X140327109Y-111325829D01*
X140231855Y-111095297D01*
X140055631Y-110918765D01*
X139825265Y-110823109D01*
X139575829Y-110822891D01*
X139345297Y-110918145D01*
X139168765Y-111094369D01*
X139167257Y-111098000D01*
X138833406Y-111098000D01*
X138833406Y-110950000D01*
X138810605Y-110828821D01*
X138738988Y-110717526D01*
X138629714Y-110642862D01*
X138500000Y-110616594D01*
X137300000Y-110616594D01*
X137178821Y-110639395D01*
X137067526Y-110711012D01*
X136992862Y-110820286D01*
X136966594Y-110950000D01*
X136733406Y-110950000D01*
X136710605Y-110828821D01*
X136638988Y-110717526D01*
X136529714Y-110642862D01*
X136400000Y-110616594D01*
X135200000Y-110616594D01*
X135078821Y-110639395D01*
X134967526Y-110711012D01*
X134892862Y-110820286D01*
X134866594Y-110950000D01*
X134866594Y-110973000D01*
X133745000Y-110973000D01*
X133651523Y-110991594D01*
X133450000Y-110991594D01*
X133328821Y-111014395D01*
X133217526Y-111086012D01*
X133142862Y-111195286D01*
X133116594Y-111325000D01*
X131083406Y-111325000D01*
X131060605Y-111203821D01*
X130988988Y-111092526D01*
X130879714Y-111017862D01*
X130750000Y-110991594D01*
X130548477Y-110991594D01*
X130455000Y-110973000D01*
X128695000Y-110973000D01*
X128601523Y-110991594D01*
X128400000Y-110991594D01*
X128278821Y-111014395D01*
X128167526Y-111086012D01*
X128092862Y-111195286D01*
X128066594Y-111325000D01*
X126288750Y-111325000D01*
X126335000Y-111278750D01*
X126335000Y-111198690D01*
X126238327Y-110965301D01*
X126059698Y-110786673D01*
X125826309Y-110690000D01*
X125690750Y-110690000D01*
X125532000Y-110848750D01*
X125278000Y-110848750D01*
X125119250Y-110690000D01*
X124983691Y-110690000D01*
X124750302Y-110786673D01*
X124571673Y-110965301D01*
X124475000Y-111198690D01*
X123627000Y-111198690D01*
X123627000Y-109080422D01*
X124321672Y-108385750D01*
X134615000Y-108385750D01*
X134615000Y-108826310D01*
X134711673Y-109059699D01*
X134890302Y-109238327D01*
X135123691Y-109335000D01*
X135564250Y-109335000D01*
X135723000Y-109176250D01*
X135723000Y-108227000D01*
X134773750Y-108227000D01*
X134615000Y-108385750D01*
X124321672Y-108385750D01*
X125333732Y-107373690D01*
X134615000Y-107373690D01*
X134615000Y-107814250D01*
X134773750Y-107973000D01*
X135723000Y-107973000D01*
X135723000Y-107023750D01*
X135977000Y-107023750D01*
X135977000Y-107973000D01*
X135997000Y-107973000D01*
X135997000Y-108227000D01*
X135977000Y-108227000D01*
X135977000Y-109176250D01*
X136135750Y-109335000D01*
X136576309Y-109335000D01*
X136809698Y-109238327D01*
X136988327Y-109059699D01*
X137068433Y-108866305D01*
X137111012Y-108932474D01*
X137220286Y-109007138D01*
X137350000Y-109033406D01*
X138550000Y-109033406D01*
X138671179Y-109010605D01*
X138782474Y-108938988D01*
X138857138Y-108829714D01*
X138883406Y-108700000D01*
X138883406Y-108552000D01*
X138965272Y-108552000D01*
X139044369Y-108631235D01*
X139274735Y-108726891D01*
X139524171Y-108727109D01*
X139754703Y-108631855D01*
X139931235Y-108455631D01*
X140026891Y-108225265D01*
X140027109Y-107975829D01*
X139931855Y-107745297D01*
X139755631Y-107568765D01*
X139525265Y-107473109D01*
X139275829Y-107472891D01*
X139045297Y-107568145D01*
X138965302Y-107648000D01*
X138883406Y-107648000D01*
X138883406Y-107500000D01*
X138860605Y-107378821D01*
X138788988Y-107267526D01*
X138679714Y-107192862D01*
X138550000Y-107166594D01*
X137350000Y-107166594D01*
X137228821Y-107189395D01*
X137117526Y-107261012D01*
X137068218Y-107333176D01*
X136988327Y-107140301D01*
X136809698Y-106961673D01*
X136576309Y-106865000D01*
X136135750Y-106865000D01*
X135977000Y-107023750D01*
X135723000Y-107023750D01*
X135564250Y-106865000D01*
X135123691Y-106865000D01*
X134890302Y-106961673D01*
X134711673Y-107140301D01*
X134615000Y-107373690D01*
X125333732Y-107373690D01*
X125380423Y-107327000D01*
X130650000Y-107327000D01*
X130909077Y-107275466D01*
X131128711Y-107128711D01*
X136228711Y-102028711D01*
X136268200Y-101969612D01*
X136375466Y-101809077D01*
X136427000Y-101550000D01*
X136427000Y-101018918D01*
X136471179Y-101010605D01*
X136582474Y-100938988D01*
X136657138Y-100829714D01*
X136683406Y-100700000D01*
X136683406Y-99500000D01*
X136660605Y-99378821D01*
X136588988Y-99267526D01*
X136479714Y-99192862D01*
X136377000Y-99172062D01*
X136377000Y-98933406D01*
X136450000Y-98933406D01*
X136571179Y-98910605D01*
X136682474Y-98838988D01*
X136757138Y-98729714D01*
X136783406Y-98600000D01*
X136783406Y-98383750D01*
X140215000Y-98383750D01*
X140215000Y-98426309D01*
X140311673Y-98659698D01*
X140490301Y-98838327D01*
X140526638Y-98853378D01*
X140536101Y-98903673D01*
X140516594Y-99000000D01*
X140516594Y-99300000D01*
X140536101Y-99403673D01*
X140516594Y-99500000D01*
X140516594Y-99800000D01*
X140536101Y-99903673D01*
X140516594Y-100000000D01*
X140516594Y-100300000D01*
X140536101Y-100403673D01*
X140516594Y-100500000D01*
X140516594Y-100800000D01*
X140536101Y-100903673D01*
X140516594Y-101000000D01*
X140516594Y-101300000D01*
X140536101Y-101403673D01*
X140516594Y-101500000D01*
X140516594Y-101800000D01*
X140536101Y-101903673D01*
X140516594Y-102000000D01*
X140516594Y-102300000D01*
X140536101Y-102403673D01*
X140516594Y-102500000D01*
X140516594Y-102800000D01*
X140536101Y-102903673D01*
X140516594Y-103000000D01*
X140516594Y-103300000D01*
X140536101Y-103403673D01*
X140516594Y-103500000D01*
X140516594Y-103800000D01*
X140536101Y-103903673D01*
X140516594Y-104000000D01*
X140516594Y-104300000D01*
X140536101Y-104403673D01*
X140516594Y-104500000D01*
X140516594Y-104800000D01*
X140536101Y-104903673D01*
X140516594Y-105000000D01*
X140516594Y-105300000D01*
X140536101Y-105403673D01*
X140516594Y-105500000D01*
X140516594Y-105800000D01*
X140536101Y-105903673D01*
X140516594Y-106000000D01*
X140516594Y-106300000D01*
X140536101Y-106403673D01*
X140516594Y-106500000D01*
X140516594Y-106800000D01*
X140536101Y-106903673D01*
X140516594Y-107000000D01*
X140516594Y-107300000D01*
X140536101Y-107403673D01*
X140516594Y-107500000D01*
X140516594Y-107800000D01*
X140536101Y-107903673D01*
X140516594Y-108000000D01*
X140516594Y-108300000D01*
X140536101Y-108403673D01*
X140516594Y-108500000D01*
X140516594Y-108800000D01*
X140539395Y-108921179D01*
X140611012Y-109032474D01*
X140720286Y-109107138D01*
X140850000Y-109133406D01*
X142450000Y-109133406D01*
X142571179Y-109110605D01*
X142682474Y-109038988D01*
X142757138Y-108929714D01*
X142783406Y-108800000D01*
X142783406Y-108500000D01*
X142763899Y-108396327D01*
X142783406Y-108300000D01*
X142783406Y-108000000D01*
X142763899Y-107896327D01*
X142783406Y-107800000D01*
X142783406Y-107500000D01*
X142763899Y-107396327D01*
X142783406Y-107300000D01*
X142783406Y-107000000D01*
X142763899Y-106896327D01*
X142783406Y-106800000D01*
X142783406Y-106500000D01*
X142763899Y-106396327D01*
X142783406Y-106300000D01*
X142783406Y-106000000D01*
X142763899Y-105896327D01*
X142783406Y-105800000D01*
X142783406Y-105500000D01*
X142763899Y-105396327D01*
X142783406Y-105300000D01*
X142783406Y-105000000D01*
X142763899Y-104896327D01*
X142783406Y-104800000D01*
X142783406Y-104500000D01*
X142763899Y-104396327D01*
X142783406Y-104300000D01*
X142783406Y-104000000D01*
X142763899Y-103896327D01*
X142783406Y-103800000D01*
X142783406Y-103500000D01*
X142763899Y-103396327D01*
X142783406Y-103300000D01*
X142783406Y-103000000D01*
X142763899Y-102896327D01*
X142783406Y-102800000D01*
X142783406Y-102500000D01*
X142763899Y-102396327D01*
X142783406Y-102300000D01*
X142783406Y-102000000D01*
X142763899Y-101896327D01*
X142783406Y-101800000D01*
X142783406Y-101500000D01*
X142763899Y-101396327D01*
X142783406Y-101300000D01*
X142783406Y-101000000D01*
X142763899Y-100896327D01*
X142783406Y-100800000D01*
X142783406Y-100500000D01*
X142763899Y-100396327D01*
X142783406Y-100300000D01*
X142783406Y-100000000D01*
X142763899Y-99896327D01*
X142783406Y-99800000D01*
X142783406Y-99500000D01*
X142763899Y-99396327D01*
X142783406Y-99300000D01*
X142783406Y-99000000D01*
X142763899Y-98896327D01*
X142772526Y-98853724D01*
X142809699Y-98838327D01*
X142988327Y-98659698D01*
X143085000Y-98426309D01*
X143085000Y-98383750D01*
X142926250Y-98225000D01*
X142626749Y-98225000D01*
X142579714Y-98192862D01*
X142450000Y-98166594D01*
X140850000Y-98166594D01*
X140728821Y-98189395D01*
X140673490Y-98225000D01*
X140373750Y-98225000D01*
X140215000Y-98383750D01*
X136783406Y-98383750D01*
X136783406Y-98102000D01*
X140712766Y-98102000D01*
X140720286Y-98107138D01*
X140850000Y-98133406D01*
X142450000Y-98133406D01*
X142571179Y-98110605D01*
X142584551Y-98102000D01*
X147500000Y-98102000D01*
X147672973Y-98067594D01*
X147819612Y-97969612D01*
X149069612Y-96719612D01*
X149167594Y-96572973D01*
X149202000Y-96400000D01*
X149202000Y-96183406D01*
X149400000Y-96183406D01*
X149503673Y-96163899D01*
X149600000Y-96183406D01*
X149900000Y-96183406D01*
X150003673Y-96163899D01*
X150100000Y-96183406D01*
X150400000Y-96183406D01*
X150503673Y-96163899D01*
X150600000Y-96183406D01*
X150798000Y-96183406D01*
X150798000Y-97355272D01*
X150718765Y-97434369D01*
X150623109Y-97664735D01*
X150622891Y-97914171D01*
X150718145Y-98144703D01*
X150894369Y-98321235D01*
X151124735Y-98416891D01*
X151262941Y-98417012D01*
X151262891Y-98474171D01*
X151358145Y-98704703D01*
X151534369Y-98881235D01*
X151764735Y-98976891D01*
X151903063Y-98977012D01*
X151902891Y-99174171D01*
X151998145Y-99404703D01*
X152174369Y-99581235D01*
X152404735Y-99676891D01*
X152625352Y-99677084D01*
X152593109Y-99754735D01*
X152592891Y-100004171D01*
X152688145Y-100234703D01*
X152864369Y-100411235D01*
X153094735Y-100506891D01*
X153344171Y-100507109D01*
X153574703Y-100411855D01*
X153675038Y-100311695D01*
X153794369Y-100431235D01*
X154024735Y-100526891D01*
X154166296Y-100527015D01*
X154200696Y-100550000D01*
X154227027Y-100567594D01*
X154400000Y-100602000D01*
X155716594Y-100602000D01*
X155716594Y-100800000D01*
X155736101Y-100903673D01*
X155716594Y-101000000D01*
X155716594Y-101300000D01*
X155736101Y-101403673D01*
X155716594Y-101500000D01*
X155716594Y-101800000D01*
X155736101Y-101903673D01*
X155716594Y-102000000D01*
X155716594Y-102300000D01*
X155736101Y-102403673D01*
X155716594Y-102500000D01*
X155716594Y-102800000D01*
X155736101Y-102903673D01*
X155727474Y-102946276D01*
X155690301Y-102961673D01*
X155511673Y-103140302D01*
X155415000Y-103373691D01*
X155415000Y-103416250D01*
X155573750Y-103575000D01*
X155873251Y-103575000D01*
X155920286Y-103607138D01*
X156050000Y-103633406D01*
X157650000Y-103633406D01*
X157771179Y-103610605D01*
X157784551Y-103602000D01*
X158312776Y-103602000D01*
X159475388Y-104764613D01*
X159475391Y-104764615D01*
X159480388Y-104769612D01*
X159627027Y-104867594D01*
X159800000Y-104902000D01*
X159825137Y-104897000D01*
X163441594Y-104897000D01*
X163441594Y-105205000D01*
X163464395Y-105326179D01*
X163536012Y-105437474D01*
X163645286Y-105512138D01*
X163775000Y-105538406D01*
X166825000Y-105538406D01*
X166946179Y-105515605D01*
X167057474Y-105443988D01*
X167132138Y-105334714D01*
X167158406Y-105205000D01*
X167158406Y-104535750D01*
X167415000Y-104535750D01*
X167415000Y-104976309D01*
X167511673Y-105209698D01*
X167690301Y-105388327D01*
X167923690Y-105485000D01*
X168364250Y-105485000D01*
X168523000Y-105326250D01*
X168523000Y-104377000D01*
X168777000Y-104377000D01*
X168777000Y-105326250D01*
X168935750Y-105485000D01*
X169376310Y-105485000D01*
X169609699Y-105388327D01*
X169788327Y-105209698D01*
X169885000Y-104976309D01*
X169885000Y-104535750D01*
X169726250Y-104377000D01*
X168777000Y-104377000D01*
X168523000Y-104377000D01*
X167573750Y-104377000D01*
X167415000Y-104535750D01*
X167158406Y-104535750D01*
X167158406Y-103685000D01*
X167135605Y-103563821D01*
X167063988Y-103452526D01*
X166954714Y-103377862D01*
X166825000Y-103351594D01*
X163775000Y-103351594D01*
X163653821Y-103374395D01*
X163542526Y-103446012D01*
X163467862Y-103555286D01*
X163441594Y-103685000D01*
X163441594Y-103993000D01*
X159982225Y-103993000D01*
X159091224Y-103102000D01*
X159712776Y-103102000D01*
X159722989Y-103112213D01*
X159722891Y-103224171D01*
X159818145Y-103454703D01*
X159994369Y-103631235D01*
X160224735Y-103726891D01*
X160474171Y-103727109D01*
X160704703Y-103631855D01*
X160881235Y-103455631D01*
X160976891Y-103225265D01*
X160977109Y-102975829D01*
X160881855Y-102745297D01*
X160738808Y-102602000D01*
X163441594Y-102602000D01*
X163441594Y-102915000D01*
X163464395Y-103036179D01*
X163536012Y-103147474D01*
X163645286Y-103222138D01*
X163775000Y-103248406D01*
X166825000Y-103248406D01*
X166946179Y-103225605D01*
X167057474Y-103153988D01*
X167132138Y-103044714D01*
X167158406Y-102915000D01*
X167158406Y-102827000D01*
X167731082Y-102827000D01*
X167739395Y-102871179D01*
X167811012Y-102982474D01*
X167883176Y-103031782D01*
X167690301Y-103111673D01*
X167511673Y-103290302D01*
X167415000Y-103523691D01*
X167415000Y-103964250D01*
X167573750Y-104123000D01*
X168523000Y-104123000D01*
X168523000Y-104103000D01*
X168777000Y-104103000D01*
X168777000Y-104123000D01*
X169726250Y-104123000D01*
X169885000Y-103964250D01*
X169885000Y-103523691D01*
X169788327Y-103290302D01*
X169609699Y-103111673D01*
X169416305Y-103031567D01*
X169482474Y-102988988D01*
X169557138Y-102879714D01*
X169583406Y-102750000D01*
X169583406Y-101550000D01*
X169560605Y-101428821D01*
X169488988Y-101317526D01*
X169379714Y-101242862D01*
X169250000Y-101216594D01*
X168050000Y-101216594D01*
X167928821Y-101239395D01*
X167817526Y-101311012D01*
X167742862Y-101420286D01*
X167732187Y-101473000D01*
X167158406Y-101473000D01*
X167158406Y-101395000D01*
X167135605Y-101273821D01*
X167078450Y-101185000D01*
X167114250Y-101185000D01*
X167273000Y-101026250D01*
X167273000Y-100077000D01*
X167527000Y-100077000D01*
X167527000Y-101026250D01*
X167685750Y-101185000D01*
X168126309Y-101185000D01*
X168359698Y-101088327D01*
X168538327Y-100909699D01*
X168635000Y-100676310D01*
X168635000Y-100235750D01*
X168476250Y-100077000D01*
X167527000Y-100077000D01*
X167273000Y-100077000D01*
X167253000Y-100077000D01*
X167253000Y-99823000D01*
X167273000Y-99823000D01*
X167273000Y-98873750D01*
X167527000Y-98873750D01*
X167527000Y-99823000D01*
X168476250Y-99823000D01*
X168635000Y-99664250D01*
X168635000Y-99223690D01*
X168538327Y-98990301D01*
X168359698Y-98811673D01*
X168126309Y-98715000D01*
X167685750Y-98715000D01*
X167527000Y-98873750D01*
X167273000Y-98873750D01*
X167196481Y-98797231D01*
X167354703Y-98731855D01*
X167531235Y-98555631D01*
X167626891Y-98325265D01*
X167627109Y-98075829D01*
X167531855Y-97845297D01*
X167452000Y-97765302D01*
X167452000Y-96134728D01*
X167531235Y-96055631D01*
X167626891Y-95825265D01*
X167627109Y-95575829D01*
X167555284Y-95402000D01*
X170050000Y-95402000D01*
X170222973Y-95367594D01*
X170369612Y-95269612D01*
X173055818Y-92583406D01*
X173950000Y-92583406D01*
X174071179Y-92560605D01*
X174182474Y-92488988D01*
X174257138Y-92379714D01*
X174283406Y-92250000D01*
X174283406Y-91050000D01*
X174260605Y-90928821D01*
X174188988Y-90817526D01*
X174079714Y-90742862D01*
X173950000Y-90716594D01*
X172750000Y-90716594D01*
X172628821Y-90739395D01*
X172517526Y-90811012D01*
X172442862Y-90920286D01*
X172416594Y-91050000D01*
X172416594Y-91944182D01*
X172076456Y-92284320D01*
X172083406Y-92250000D01*
X172083406Y-91050000D01*
X172060605Y-90928821D01*
X171988988Y-90817526D01*
X171879714Y-90742862D01*
X171750000Y-90716594D01*
X170550000Y-90716594D01*
X170428821Y-90739395D01*
X170317526Y-90811012D01*
X170242862Y-90920286D01*
X170216594Y-91050000D01*
X170216594Y-91944182D01*
X169876456Y-92284320D01*
X169883406Y-92250000D01*
X169883406Y-91050000D01*
X169860605Y-90928821D01*
X169788988Y-90817526D01*
X169679714Y-90742862D01*
X169550000Y-90716594D01*
X168350000Y-90716594D01*
X168228821Y-90739395D01*
X168117526Y-90811012D01*
X168042862Y-90920286D01*
X168016594Y-91050000D01*
X168016594Y-91698000D01*
X167434728Y-91698000D01*
X167355631Y-91618765D01*
X167125265Y-91523109D01*
X166875829Y-91522891D01*
X166645297Y-91618145D01*
X166468765Y-91794369D01*
X166384210Y-91998000D01*
X166150183Y-91998000D01*
X166328711Y-91878711D01*
X167980422Y-90227000D01*
X168031082Y-90227000D01*
X168039395Y-90271179D01*
X168111012Y-90382474D01*
X168220286Y-90457138D01*
X168350000Y-90483406D01*
X169550000Y-90483406D01*
X169671179Y-90460605D01*
X169782474Y-90388988D01*
X169857138Y-90279714D01*
X169867813Y-90227000D01*
X170231082Y-90227000D01*
X170239395Y-90271179D01*
X170311012Y-90382474D01*
X170420286Y-90457138D01*
X170550000Y-90483406D01*
X171750000Y-90483406D01*
X171871179Y-90460605D01*
X171982474Y-90388988D01*
X172057138Y-90279714D01*
X172067813Y-90227000D01*
X172431082Y-90227000D01*
X172439395Y-90271179D01*
X172511012Y-90382474D01*
X172620286Y-90457138D01*
X172750000Y-90483406D01*
X173950000Y-90483406D01*
X174071179Y-90460605D01*
X174182474Y-90388988D01*
X174257138Y-90279714D01*
X174283406Y-90150000D01*
X174283406Y-88950000D01*
X174260605Y-88828821D01*
X174188988Y-88717526D01*
X174079714Y-88642862D01*
X173950000Y-88616594D01*
X172750000Y-88616594D01*
X172628821Y-88639395D01*
X172517526Y-88711012D01*
X172442862Y-88820286D01*
X172432187Y-88873000D01*
X172068918Y-88873000D01*
X172060605Y-88828821D01*
X171988988Y-88717526D01*
X171879714Y-88642862D01*
X171750000Y-88616594D01*
X170550000Y-88616594D01*
X170428821Y-88639395D01*
X170317526Y-88711012D01*
X170242862Y-88820286D01*
X170232187Y-88873000D01*
X169868918Y-88873000D01*
X169860605Y-88828821D01*
X169788988Y-88717526D01*
X169679714Y-88642862D01*
X169677000Y-88642312D01*
X169677000Y-83135750D01*
X181265000Y-83135750D01*
X181265000Y-83576310D01*
X181361673Y-83809699D01*
X181540302Y-83988327D01*
X181773691Y-84085000D01*
X182214250Y-84085000D01*
X182373000Y-83926250D01*
X182373000Y-82977000D01*
X181423750Y-82977000D01*
X181265000Y-83135750D01*
X169677000Y-83135750D01*
X169677000Y-81485750D01*
X171865000Y-81485750D01*
X171865000Y-81926309D01*
X171961673Y-82159698D01*
X172140301Y-82338327D01*
X172373690Y-82435000D01*
X172814250Y-82435000D01*
X172973000Y-82276250D01*
X172973000Y-81327000D01*
X173227000Y-81327000D01*
X173227000Y-82276250D01*
X173385750Y-82435000D01*
X173826310Y-82435000D01*
X174059699Y-82338327D01*
X174238327Y-82159698D01*
X174325000Y-81950451D01*
X174411673Y-82159698D01*
X174590301Y-82338327D01*
X174823690Y-82435000D01*
X175264250Y-82435000D01*
X175423000Y-82276250D01*
X175423000Y-81327000D01*
X175677000Y-81327000D01*
X175677000Y-82276250D01*
X175835750Y-82435000D01*
X176276310Y-82435000D01*
X176509699Y-82338327D01*
X176688327Y-82159698D01*
X176775000Y-81950451D01*
X176861673Y-82159698D01*
X177040301Y-82338327D01*
X177273690Y-82435000D01*
X177714250Y-82435000D01*
X177873000Y-82276250D01*
X177873000Y-81327000D01*
X178127000Y-81327000D01*
X178127000Y-82276250D01*
X178285750Y-82435000D01*
X178726310Y-82435000D01*
X178959699Y-82338327D01*
X179138327Y-82159698D01*
X179153242Y-82123690D01*
X181265000Y-82123690D01*
X181265000Y-82564250D01*
X181423750Y-82723000D01*
X182373000Y-82723000D01*
X182373000Y-81773750D01*
X182214250Y-81615000D01*
X181773691Y-81615000D01*
X181540302Y-81711673D01*
X181361673Y-81890301D01*
X181265000Y-82123690D01*
X179153242Y-82123690D01*
X179235000Y-81926309D01*
X179235000Y-81485750D01*
X179076250Y-81327000D01*
X178127000Y-81327000D01*
X177873000Y-81327000D01*
X176923750Y-81327000D01*
X176775000Y-81475750D01*
X176626250Y-81327000D01*
X175677000Y-81327000D01*
X175423000Y-81327000D01*
X174473750Y-81327000D01*
X174325000Y-81475750D01*
X174176250Y-81327000D01*
X173227000Y-81327000D01*
X172973000Y-81327000D01*
X172023750Y-81327000D01*
X171865000Y-81485750D01*
X169677000Y-81485750D01*
X169677000Y-80473691D01*
X171865000Y-80473691D01*
X171865000Y-80914250D01*
X172023750Y-81073000D01*
X172973000Y-81073000D01*
X172973000Y-81053000D01*
X173227000Y-81053000D01*
X173227000Y-81073000D01*
X174176250Y-81073000D01*
X174325000Y-80924250D01*
X174473750Y-81073000D01*
X175423000Y-81073000D01*
X175423000Y-81053000D01*
X175677000Y-81053000D01*
X175677000Y-81073000D01*
X176626250Y-81073000D01*
X176775000Y-80924250D01*
X176923750Y-81073000D01*
X177873000Y-81073000D01*
X177873000Y-81053000D01*
X178127000Y-81053000D01*
X178127000Y-81073000D01*
X179076250Y-81073000D01*
X179235000Y-80914250D01*
X179235000Y-80473691D01*
X179138327Y-80240302D01*
X178959699Y-80061673D01*
X178766305Y-79981567D01*
X178832474Y-79938988D01*
X178907138Y-79829714D01*
X178933406Y-79700000D01*
X178933406Y-78500000D01*
X178910605Y-78378821D01*
X178838988Y-78267526D01*
X178729714Y-78192862D01*
X178600000Y-78166594D01*
X178452000Y-78166594D01*
X178452000Y-77734728D01*
X178531235Y-77655631D01*
X178626891Y-77425265D01*
X178627109Y-77175829D01*
X178531855Y-76945297D01*
X178355631Y-76768765D01*
X178125265Y-76673109D01*
X177875829Y-76672891D01*
X177645297Y-76768145D01*
X177468765Y-76944369D01*
X177373109Y-77174735D01*
X177372891Y-77424171D01*
X177468145Y-77654703D01*
X177548000Y-77734698D01*
X177548000Y-78166594D01*
X177400000Y-78166594D01*
X177278821Y-78189395D01*
X177167526Y-78261012D01*
X177092862Y-78370286D01*
X177066594Y-78500000D01*
X177066594Y-79700000D01*
X177089395Y-79821179D01*
X177161012Y-79932474D01*
X177233176Y-79981782D01*
X177040301Y-80061673D01*
X176861673Y-80240302D01*
X176775000Y-80449549D01*
X176688327Y-80240302D01*
X176509699Y-80061673D01*
X176316305Y-79981567D01*
X176382474Y-79938988D01*
X176457138Y-79829714D01*
X176483406Y-79700000D01*
X176483406Y-78500000D01*
X176460605Y-78378821D01*
X176388988Y-78267526D01*
X176279714Y-78192862D01*
X176150000Y-78166594D01*
X176002000Y-78166594D01*
X176002000Y-77784728D01*
X176081235Y-77705631D01*
X176176891Y-77475265D01*
X176177109Y-77225829D01*
X176081855Y-76995297D01*
X175905631Y-76818765D01*
X175675265Y-76723109D01*
X175425829Y-76722891D01*
X175195297Y-76818145D01*
X175018765Y-76994369D01*
X174923109Y-77224735D01*
X174922891Y-77474171D01*
X175018145Y-77704703D01*
X175098000Y-77784698D01*
X175098000Y-78166594D01*
X174950000Y-78166594D01*
X174828821Y-78189395D01*
X174717526Y-78261012D01*
X174642862Y-78370286D01*
X174616594Y-78500000D01*
X174616594Y-79700000D01*
X174639395Y-79821179D01*
X174711012Y-79932474D01*
X174783176Y-79981782D01*
X174590301Y-80061673D01*
X174411673Y-80240302D01*
X174325000Y-80449549D01*
X174238327Y-80240302D01*
X174059699Y-80061673D01*
X173866305Y-79981567D01*
X173932474Y-79938988D01*
X174007138Y-79829714D01*
X174033406Y-79700000D01*
X174033406Y-78500000D01*
X174010605Y-78378821D01*
X173938988Y-78267526D01*
X173829714Y-78192862D01*
X173700000Y-78166594D01*
X173552000Y-78166594D01*
X173552000Y-77784728D01*
X173631235Y-77705631D01*
X173726891Y-77475265D01*
X173727109Y-77225829D01*
X173631855Y-76995297D01*
X173455631Y-76818765D01*
X173225265Y-76723109D01*
X172975829Y-76722891D01*
X172745297Y-76818145D01*
X172568765Y-76994369D01*
X172473109Y-77224735D01*
X172472891Y-77474171D01*
X172568145Y-77704703D01*
X172648000Y-77784698D01*
X172648000Y-78166594D01*
X172500000Y-78166594D01*
X172378821Y-78189395D01*
X172267526Y-78261012D01*
X172192862Y-78370286D01*
X172166594Y-78500000D01*
X172166594Y-79700000D01*
X172189395Y-79821179D01*
X172261012Y-79932474D01*
X172333176Y-79981782D01*
X172140301Y-80061673D01*
X171961673Y-80240302D01*
X171865000Y-80473691D01*
X169677000Y-80473691D01*
X169677000Y-80380422D01*
X170278711Y-79778711D01*
X170425466Y-79559076D01*
X170477000Y-79300000D01*
X170425466Y-79040924D01*
X170278711Y-78821289D01*
X170059076Y-78674534D01*
X169800000Y-78623000D01*
X169540924Y-78674534D01*
X169321289Y-78821289D01*
X168521289Y-79621289D01*
X168374534Y-79840923D01*
X168323000Y-80100000D01*
X168323000Y-88621674D01*
X168228821Y-88639395D01*
X168117526Y-88711012D01*
X168042862Y-88820286D01*
X168032187Y-88873000D01*
X167700000Y-88873000D01*
X167440923Y-88924534D01*
X167402811Y-88950000D01*
X167221289Y-89071289D01*
X166427000Y-89865578D01*
X166427000Y-73402000D01*
X192598000Y-73402000D01*
X192598000Y-122598000D01*
X192598000Y-122598000D01*
G37*
X192598000Y-122598000D02*
X158200026Y-122598000D01*
X158288327Y-122509699D01*
X158385000Y-122276310D01*
X158385000Y-121895304D01*
X158411673Y-121959698D01*
X158590301Y-122138327D01*
X158823690Y-122235000D01*
X159264250Y-122235000D01*
X159423000Y-122076250D01*
X159423000Y-121127000D01*
X159677000Y-121127000D01*
X159677000Y-122076250D01*
X159835750Y-122235000D01*
X160276310Y-122235000D01*
X160509699Y-122138327D01*
X160688327Y-121959698D01*
X160785000Y-121726309D01*
X160785000Y-121285750D01*
X160626250Y-121127000D01*
X159677000Y-121127000D01*
X159423000Y-121127000D01*
X159403000Y-121127000D01*
X159403000Y-120873000D01*
X159423000Y-120873000D01*
X159423000Y-120853000D01*
X159677000Y-120853000D01*
X159677000Y-120873000D01*
X160626250Y-120873000D01*
X160749250Y-120750000D01*
X163323000Y-120750000D01*
X163374534Y-121009077D01*
X163521289Y-121228711D01*
X163740923Y-121375466D01*
X164000000Y-121427000D01*
X171550000Y-121427000D01*
X171606984Y-121415665D01*
X179810811Y-121415665D01*
X179976252Y-121816063D01*
X180282326Y-122122671D01*
X180682434Y-122288811D01*
X181115665Y-122289189D01*
X181516063Y-122123748D01*
X181822671Y-121817674D01*
X181988811Y-121417566D01*
X181988812Y-121415665D01*
X182310811Y-121415665D01*
X182476252Y-121816063D01*
X182782326Y-122122671D01*
X183182434Y-122288811D01*
X183615665Y-122289189D01*
X184016063Y-122123748D01*
X184322671Y-121817674D01*
X184488811Y-121417566D01*
X184488812Y-121415665D01*
X184810811Y-121415665D01*
X184976252Y-121816063D01*
X185282326Y-122122671D01*
X185682434Y-122288811D01*
X186115665Y-122289189D01*
X186516063Y-122123748D01*
X186822671Y-121817674D01*
X186988811Y-121417566D01*
X186988812Y-121415665D01*
X187310811Y-121415665D01*
X187476252Y-121816063D01*
X187782326Y-122122671D01*
X188182434Y-122288811D01*
X188615665Y-122289189D01*
X189016063Y-122123748D01*
X189322671Y-121817674D01*
X189488811Y-121417566D01*
X189488812Y-121415665D01*
X189810811Y-121415665D01*
X189976252Y-121816063D01*
X190282326Y-122122671D01*
X190682434Y-122288811D01*
X191115665Y-122289189D01*
X191516063Y-122123748D01*
X191822671Y-121817674D01*
X191988811Y-121417566D01*
X191989189Y-120984335D01*
X191823748Y-120583937D01*
X191517674Y-120277329D01*
X191117566Y-120111189D01*
X190684335Y-120110811D01*
X190283937Y-120276252D01*
X189977329Y-120582326D01*
X189811189Y-120982434D01*
X189810811Y-121415665D01*
X189488812Y-121415665D01*
X189489189Y-120984335D01*
X189323748Y-120583937D01*
X189017674Y-120277329D01*
X188617566Y-120111189D01*
X188184335Y-120110811D01*
X187783937Y-120276252D01*
X187477329Y-120582326D01*
X187311189Y-120982434D01*
X187310811Y-121415665D01*
X186988812Y-121415665D01*
X186989189Y-120984335D01*
X186823748Y-120583937D01*
X186517674Y-120277329D01*
X186117566Y-120111189D01*
X185684335Y-120110811D01*
X185283937Y-120276252D01*
X184977329Y-120582326D01*
X184811189Y-120982434D01*
X184810811Y-121415665D01*
X184488812Y-121415665D01*
X184489189Y-120984335D01*
X184323748Y-120583937D01*
X184017674Y-120277329D01*
X183617566Y-120111189D01*
X183184335Y-120110811D01*
X182783937Y-120276252D01*
X182477329Y-120582326D01*
X182311189Y-120982434D01*
X182310811Y-121415665D01*
X181988812Y-121415665D01*
X181989189Y-120984335D01*
X181951696Y-120893594D01*
X182522645Y-120322645D01*
X182636885Y-120151675D01*
X182677000Y-119950000D01*
X182677000Y-119925302D01*
X183192302Y-120109144D01*
X183747368Y-120081362D01*
X184131143Y-119922397D01*
X184200608Y-119680213D01*
X183400000Y-118879605D01*
X183385858Y-118893748D01*
X183206253Y-118714143D01*
X183220395Y-118700000D01*
X183579605Y-118700000D01*
X184380213Y-119500608D01*
X184622397Y-119431143D01*
X184647943Y-119359538D01*
X184677603Y-119431143D01*
X184919787Y-119500608D01*
X185720395Y-118700000D01*
X184919787Y-117899392D01*
X184677603Y-117968857D01*
X184652057Y-118040462D01*
X184622397Y-117968857D01*
X184380213Y-117899392D01*
X183579605Y-118700000D01*
X183220395Y-118700000D01*
X183206253Y-118685858D01*
X183385858Y-118506253D01*
X183400000Y-118520395D01*
X184200608Y-117719787D01*
X184131143Y-117477603D01*
X183607698Y-117290856D01*
X183052632Y-117318638D01*
X182677000Y-117474230D01*
X182677000Y-116064171D01*
X184842891Y-116064171D01*
X184938145Y-116294703D01*
X185114369Y-116471235D01*
X185344735Y-116566891D01*
X185497801Y-116567025D01*
X186284825Y-117354049D01*
X186107698Y-117290856D01*
X185552632Y-117318638D01*
X185168857Y-117477603D01*
X185099392Y-117719787D01*
X185900000Y-118520395D01*
X185914143Y-118506253D01*
X186093748Y-118685858D01*
X186079605Y-118700000D01*
X186093748Y-118714143D01*
X185914143Y-118893748D01*
X185900000Y-118879605D01*
X185099392Y-119680213D01*
X185168857Y-119922397D01*
X185692302Y-120109144D01*
X186247368Y-120081362D01*
X186562981Y-119950630D01*
X186562891Y-120054171D01*
X186658145Y-120284703D01*
X186834369Y-120461235D01*
X187064735Y-120556891D01*
X187314171Y-120557109D01*
X187544703Y-120461855D01*
X187721235Y-120285631D01*
X187816891Y-120055265D01*
X187816961Y-119975235D01*
X188192302Y-120109144D01*
X188747368Y-120081362D01*
X189131143Y-119922397D01*
X189200608Y-119680213D01*
X188400000Y-118879605D01*
X188385858Y-118893748D01*
X188206253Y-118714143D01*
X188220395Y-118700000D01*
X188579605Y-118700000D01*
X189380213Y-119500608D01*
X189622397Y-119431143D01*
X189806301Y-118915665D01*
X189810811Y-118915665D01*
X189976252Y-119316063D01*
X190282326Y-119622671D01*
X190682434Y-119788811D01*
X191115665Y-119789189D01*
X191516063Y-119623748D01*
X191822671Y-119317674D01*
X191988811Y-118917566D01*
X191989189Y-118484335D01*
X191823748Y-118083937D01*
X191517674Y-117777329D01*
X191117566Y-117611189D01*
X190684335Y-117610811D01*
X190283937Y-117776252D01*
X189977329Y-118082326D01*
X189811189Y-118482434D01*
X189810811Y-118915665D01*
X189806301Y-118915665D01*
X189809144Y-118907698D01*
X189781362Y-118352632D01*
X189622397Y-117968857D01*
X189380213Y-117899392D01*
X188579605Y-118700000D01*
X188220395Y-118700000D01*
X188206253Y-118685858D01*
X188385858Y-118506253D01*
X188400000Y-118520395D01*
X189200608Y-117719787D01*
X189131143Y-117477603D01*
X188607698Y-117290856D01*
X188052632Y-117318638D01*
X187668857Y-117477603D01*
X187636273Y-117591206D01*
X187607594Y-117447027D01*
X187509612Y-117300388D01*
X186097046Y-115887822D01*
X186097109Y-115815829D01*
X186001855Y-115585297D01*
X185825631Y-115408765D01*
X185595265Y-115313109D01*
X185345829Y-115312891D01*
X185115297Y-115408145D01*
X184938765Y-115584369D01*
X184843109Y-115814735D01*
X184842891Y-116064171D01*
X182677000Y-116064171D01*
X182677000Y-112518290D01*
X184972645Y-110222645D01*
X185086885Y-110051675D01*
X185093540Y-110018215D01*
X185127000Y-109850000D01*
X185127000Y-83783406D01*
X185200000Y-83783406D01*
X185321179Y-83760605D01*
X185432474Y-83688988D01*
X185507138Y-83579714D01*
X185533406Y-83450000D01*
X185533406Y-82250000D01*
X185510605Y-82128821D01*
X185438988Y-82017526D01*
X185329714Y-81942862D01*
X185200000Y-81916594D01*
X185052000Y-81916594D01*
X185052000Y-81434728D01*
X185131235Y-81355631D01*
X185226891Y-81125265D01*
X185227109Y-80875829D01*
X185131855Y-80645297D01*
X184955631Y-80468765D01*
X184725265Y-80373109D01*
X184475829Y-80372891D01*
X184245297Y-80468145D01*
X184068765Y-80644369D01*
X183973109Y-80874735D01*
X183972891Y-81124171D01*
X184068145Y-81354703D01*
X184148000Y-81434698D01*
X184148000Y-81916594D01*
X184000000Y-81916594D01*
X183878821Y-81939395D01*
X183767526Y-82011012D01*
X183718218Y-82083176D01*
X183638327Y-81890301D01*
X183459698Y-81711673D01*
X183226309Y-81615000D01*
X182785750Y-81615000D01*
X182627000Y-81773750D01*
X182627000Y-82723000D01*
X182647000Y-82723000D01*
X182647000Y-82977000D01*
X182627000Y-82977000D01*
X182627000Y-83926250D01*
X182785750Y-84085000D01*
X183226309Y-84085000D01*
X183459698Y-83988327D01*
X183638327Y-83809699D01*
X183718433Y-83616305D01*
X183761012Y-83682474D01*
X183870286Y-83757138D01*
X184000000Y-83783406D01*
X184073000Y-83783406D01*
X184073000Y-109631710D01*
X181777355Y-111927355D01*
X181663115Y-112098325D01*
X181650002Y-112164250D01*
X181623000Y-112300000D01*
X181623000Y-117474698D01*
X181107698Y-117290856D01*
X180552632Y-117318638D01*
X180168857Y-117477603D01*
X180099392Y-117719787D01*
X180900000Y-118520395D01*
X180914143Y-118506253D01*
X181093748Y-118685858D01*
X181079605Y-118700000D01*
X181093748Y-118714143D01*
X180914143Y-118893748D01*
X180900000Y-118879605D01*
X180099392Y-119680213D01*
X180168857Y-119922397D01*
X180692302Y-120109144D01*
X181247368Y-120081362D01*
X181291719Y-120062991D01*
X181206565Y-120148145D01*
X181117566Y-120111189D01*
X180684335Y-120110811D01*
X180283937Y-120276252D01*
X179977329Y-120582326D01*
X179811189Y-120982434D01*
X179810811Y-121415665D01*
X171606984Y-121415665D01*
X171809077Y-121375466D01*
X172028711Y-121228711D01*
X174073711Y-119183711D01*
X174124028Y-119108406D01*
X174355000Y-119108406D01*
X174476179Y-119085605D01*
X174587474Y-119013988D01*
X174662138Y-118904714D01*
X174688406Y-118775000D01*
X174688406Y-118492302D01*
X179490856Y-118492302D01*
X179518638Y-119047368D01*
X179677603Y-119431143D01*
X179919787Y-119500608D01*
X180720395Y-118700000D01*
X179919787Y-117899392D01*
X179677603Y-117968857D01*
X179490856Y-118492302D01*
X174688406Y-118492302D01*
X174688406Y-115725000D01*
X174665605Y-115603821D01*
X174593988Y-115492526D01*
X174527000Y-115446755D01*
X174527000Y-115227000D01*
X175981082Y-115227000D01*
X175989395Y-115271179D01*
X176061012Y-115382474D01*
X176170286Y-115457138D01*
X176300000Y-115483406D01*
X177500000Y-115483406D01*
X177621179Y-115460605D01*
X177732474Y-115388988D01*
X177807138Y-115279714D01*
X177817813Y-115227000D01*
X180200000Y-115227000D01*
X180459077Y-115175466D01*
X180678711Y-115028711D01*
X180825466Y-114809077D01*
X180877000Y-114550000D01*
X180825466Y-114290923D01*
X180678711Y-114071289D01*
X180459077Y-113924534D01*
X180200000Y-113873000D01*
X177818918Y-113873000D01*
X177810605Y-113828821D01*
X177738988Y-113717526D01*
X177666824Y-113668218D01*
X177859699Y-113588327D01*
X178038327Y-113409698D01*
X178135000Y-113176309D01*
X178135000Y-112735750D01*
X177976250Y-112577000D01*
X177027000Y-112577000D01*
X177027000Y-112597000D01*
X176773000Y-112597000D01*
X176773000Y-112577000D01*
X175823750Y-112577000D01*
X175665000Y-112735750D01*
X175665000Y-113176309D01*
X175761673Y-113409698D01*
X175940301Y-113588327D01*
X176133695Y-113668433D01*
X176067526Y-113711012D01*
X175992862Y-113820286D01*
X175982187Y-113873000D01*
X174431633Y-113873000D01*
X174400000Y-113866594D01*
X173400000Y-113866594D01*
X173278821Y-113889395D01*
X173167526Y-113961012D01*
X173092862Y-114070286D01*
X173066594Y-114200000D01*
X173066594Y-114900000D01*
X173089395Y-115021179D01*
X173161012Y-115132474D01*
X173270286Y-115207138D01*
X173273000Y-115207688D01*
X173273000Y-115391594D01*
X172835000Y-115391594D01*
X172713821Y-115414395D01*
X172602526Y-115486012D01*
X172527862Y-115595286D01*
X172501594Y-115725000D01*
X172501594Y-118775000D01*
X172512043Y-118830535D01*
X171269578Y-120073000D01*
X164000000Y-120073000D01*
X163740923Y-120124534D01*
X163521289Y-120271289D01*
X163374534Y-120490923D01*
X163323000Y-120750000D01*
X160749250Y-120750000D01*
X160785000Y-120714250D01*
X160785000Y-120273691D01*
X160688327Y-120040302D01*
X160509699Y-119861673D01*
X160316305Y-119781567D01*
X160382474Y-119738988D01*
X160457138Y-119629714D01*
X160483406Y-119500000D01*
X160483406Y-118300000D01*
X160460605Y-118178821D01*
X160400232Y-118085000D01*
X160564250Y-118085000D01*
X160723000Y-117926250D01*
X160723000Y-116977000D01*
X159773750Y-116977000D01*
X159750000Y-117000750D01*
X159726250Y-116977000D01*
X158777000Y-116977000D01*
X158777000Y-117926250D01*
X158838352Y-117987602D01*
X158828821Y-117989395D01*
X158717526Y-118061012D01*
X158642862Y-118170286D01*
X158616594Y-118300000D01*
X158616594Y-118448000D01*
X155875026Y-118448000D01*
X155913327Y-118409699D01*
X156010000Y-118176310D01*
X156010000Y-117785750D01*
X155851250Y-117627000D01*
X155312500Y-117627000D01*
X155312500Y-117647000D01*
X155208406Y-117647000D01*
X155208406Y-117593480D01*
X155227000Y-117500000D01*
X155227000Y-117353000D01*
X155312500Y-117353000D01*
X155312500Y-117373000D01*
X155851250Y-117373000D01*
X156010000Y-117214250D01*
X156010000Y-117135750D01*
X157415000Y-117135750D01*
X157415000Y-117576309D01*
X157511673Y-117809698D01*
X157690301Y-117988327D01*
X157923690Y-118085000D01*
X158364250Y-118085000D01*
X158523000Y-117926250D01*
X158523000Y-116977000D01*
X157573750Y-116977000D01*
X157415000Y-117135750D01*
X156010000Y-117135750D01*
X156010000Y-116823690D01*
X155913327Y-116590301D01*
X155734698Y-116411673D01*
X155501309Y-116315000D01*
X155471250Y-116315000D01*
X155377002Y-116409248D01*
X155377002Y-116330420D01*
X156280422Y-115427000D01*
X157731082Y-115427000D01*
X157739395Y-115471179D01*
X157811012Y-115582474D01*
X157883176Y-115631782D01*
X157690301Y-115711673D01*
X157511673Y-115890302D01*
X157415000Y-116123691D01*
X157415000Y-116564250D01*
X157573750Y-116723000D01*
X158523000Y-116723000D01*
X158523000Y-116703000D01*
X158777000Y-116703000D01*
X158777000Y-116723000D01*
X159726250Y-116723000D01*
X159750000Y-116699250D01*
X159773750Y-116723000D01*
X160723000Y-116723000D01*
X160723000Y-116703000D01*
X160977000Y-116703000D01*
X160977000Y-116723000D01*
X160997000Y-116723000D01*
X160997000Y-116977000D01*
X160977000Y-116977000D01*
X160977000Y-117926250D01*
X161135750Y-118085000D01*
X161576310Y-118085000D01*
X161809699Y-117988327D01*
X161916594Y-117881431D01*
X161916594Y-118750000D01*
X161939395Y-118871179D01*
X162011012Y-118982474D01*
X162120286Y-119057138D01*
X162250000Y-119083406D01*
X164750000Y-119083406D01*
X164871179Y-119060605D01*
X164982474Y-118988988D01*
X165057138Y-118879714D01*
X165083406Y-118750000D01*
X165083406Y-117050000D01*
X165916594Y-117050000D01*
X165916594Y-118750000D01*
X165939395Y-118871179D01*
X166011012Y-118982474D01*
X166120286Y-119057138D01*
X166250000Y-119083406D01*
X168750000Y-119083406D01*
X168871179Y-119060605D01*
X168982474Y-118988988D01*
X169057138Y-118879714D01*
X169083406Y-118750000D01*
X169083406Y-118527000D01*
X170211594Y-118527000D01*
X170211594Y-118775000D01*
X170234395Y-118896179D01*
X170306012Y-119007474D01*
X170415286Y-119082138D01*
X170545000Y-119108406D01*
X172065000Y-119108406D01*
X172186179Y-119085605D01*
X172297474Y-119013988D01*
X172372138Y-118904714D01*
X172398406Y-118775000D01*
X172398406Y-115725000D01*
X172375605Y-115603821D01*
X172303988Y-115492526D01*
X172194714Y-115417862D01*
X172065000Y-115391594D01*
X171877000Y-115391594D01*
X171877000Y-115218918D01*
X171921179Y-115210605D01*
X172032474Y-115138988D01*
X172107138Y-115029714D01*
X172133406Y-114900000D01*
X172133406Y-114499218D01*
X172159699Y-114488327D01*
X172338327Y-114309698D01*
X172435000Y-114076309D01*
X172435000Y-113885750D01*
X172276250Y-113727000D01*
X171427000Y-113727000D01*
X171427000Y-113747000D01*
X171173000Y-113747000D01*
X171173000Y-113727000D01*
X170323750Y-113727000D01*
X170165000Y-113885750D01*
X170165000Y-114076309D01*
X170261673Y-114309698D01*
X170440301Y-114488327D01*
X170466594Y-114499218D01*
X170466594Y-114900000D01*
X170489395Y-115021179D01*
X170561012Y-115132474D01*
X170670286Y-115207138D01*
X170723000Y-115217813D01*
X170723000Y-115391594D01*
X170545000Y-115391594D01*
X170423821Y-115414395D01*
X170312526Y-115486012D01*
X170237862Y-115595286D01*
X170211594Y-115725000D01*
X170211594Y-117273000D01*
X169083406Y-117273000D01*
X169083406Y-117050000D01*
X169060605Y-116928821D01*
X168988988Y-116817526D01*
X168879714Y-116742862D01*
X168750000Y-116716594D01*
X166250000Y-116716594D01*
X166128821Y-116739395D01*
X166017526Y-116811012D01*
X165942862Y-116920286D01*
X165916594Y-117050000D01*
X165083406Y-117050000D01*
X165060605Y-116928821D01*
X164988988Y-116817526D01*
X164879714Y-116742862D01*
X164750000Y-116716594D01*
X164177000Y-116716594D01*
X164177000Y-115668918D01*
X164221179Y-115660605D01*
X164332474Y-115588988D01*
X164407138Y-115479714D01*
X164417813Y-115427000D01*
X164881082Y-115427000D01*
X164889395Y-115471179D01*
X164961012Y-115582474D01*
X165070286Y-115657138D01*
X165200000Y-115683406D01*
X166400000Y-115683406D01*
X166521179Y-115660605D01*
X166632474Y-115588988D01*
X166707138Y-115479714D01*
X166733406Y-115350000D01*
X166733406Y-115035750D01*
X166865000Y-115035750D01*
X166865000Y-115476309D01*
X166961673Y-115709698D01*
X167140301Y-115888327D01*
X167373690Y-115985000D01*
X167814250Y-115985000D01*
X167973000Y-115826250D01*
X167973000Y-114877000D01*
X168227000Y-114877000D01*
X168227000Y-115826250D01*
X168385750Y-115985000D01*
X168826310Y-115985000D01*
X169059699Y-115888327D01*
X169238327Y-115709698D01*
X169335000Y-115476309D01*
X169335000Y-115035750D01*
X169176250Y-114877000D01*
X168227000Y-114877000D01*
X167973000Y-114877000D01*
X167023750Y-114877000D01*
X166865000Y-115035750D01*
X166733406Y-115035750D01*
X166733406Y-114150000D01*
X166710605Y-114028821D01*
X166638988Y-113917526D01*
X166529714Y-113842862D01*
X166400000Y-113816594D01*
X165200000Y-113816594D01*
X165078821Y-113839395D01*
X164967526Y-113911012D01*
X164892862Y-114020286D01*
X164882187Y-114073000D01*
X164418918Y-114073000D01*
X164410605Y-114028821D01*
X164338988Y-113917526D01*
X164229714Y-113842862D01*
X164100000Y-113816594D01*
X162900000Y-113816594D01*
X162778821Y-113839395D01*
X162667526Y-113911012D01*
X162592862Y-114020286D01*
X162582187Y-114073000D01*
X161768918Y-114073000D01*
X161760605Y-114028821D01*
X161688988Y-113917526D01*
X161579714Y-113842862D01*
X161450000Y-113816594D01*
X160250000Y-113816594D01*
X160128821Y-113839395D01*
X160017526Y-113911012D01*
X159942862Y-114020286D01*
X159932187Y-114073000D01*
X159568918Y-114073000D01*
X159560605Y-114028821D01*
X159488988Y-113917526D01*
X159379714Y-113842862D01*
X159250000Y-113816594D01*
X158050000Y-113816594D01*
X157928821Y-113839395D01*
X157817526Y-113911012D01*
X157742862Y-114020286D01*
X157732187Y-114073000D01*
X156000000Y-114073000D01*
X155855723Y-114101699D01*
X157907422Y-112050000D01*
X162566594Y-112050000D01*
X162566594Y-113250000D01*
X162589395Y-113371179D01*
X162661012Y-113482474D01*
X162770286Y-113557138D01*
X162900000Y-113583406D01*
X164100000Y-113583406D01*
X164221179Y-113560605D01*
X164332474Y-113488988D01*
X164407138Y-113379714D01*
X164417813Y-113327000D01*
X164881082Y-113327000D01*
X164889395Y-113371179D01*
X164961012Y-113482474D01*
X165070286Y-113557138D01*
X165200000Y-113583406D01*
X166400000Y-113583406D01*
X166521179Y-113560605D01*
X166632474Y-113488988D01*
X166707138Y-113379714D01*
X166717813Y-113327000D01*
X167181082Y-113327000D01*
X167189395Y-113371179D01*
X167261012Y-113482474D01*
X167333176Y-113531782D01*
X167140301Y-113611673D01*
X166961673Y-113790302D01*
X166865000Y-114023691D01*
X166865000Y-114464250D01*
X167023750Y-114623000D01*
X167973000Y-114623000D01*
X167973000Y-114603000D01*
X168227000Y-114603000D01*
X168227000Y-114623000D01*
X169176250Y-114623000D01*
X169335000Y-114464250D01*
X169335000Y-114023691D01*
X169238327Y-113790302D01*
X169059699Y-113611673D01*
X168866305Y-113531567D01*
X168932474Y-113488988D01*
X169007138Y-113379714D01*
X169017813Y-113327000D01*
X170177750Y-113327000D01*
X170323750Y-113473000D01*
X171173000Y-113473000D01*
X171173000Y-113453000D01*
X171427000Y-113453000D01*
X171427000Y-113473000D01*
X172276250Y-113473000D01*
X172435000Y-113314250D01*
X172435000Y-113123691D01*
X172338327Y-112890302D01*
X172159699Y-112711673D01*
X172133406Y-112700782D01*
X172133406Y-112300000D01*
X173066594Y-112300000D01*
X173066594Y-113000000D01*
X173089395Y-113121179D01*
X173161012Y-113232474D01*
X173270286Y-113307138D01*
X173400000Y-113333406D01*
X174400000Y-113333406D01*
X174521179Y-113310605D01*
X174632474Y-113238988D01*
X174707138Y-113129714D01*
X174733406Y-113000000D01*
X174733406Y-112300000D01*
X174710605Y-112178821D01*
X174638988Y-112067526D01*
X174529714Y-111992862D01*
X174400000Y-111966594D01*
X174352000Y-111966594D01*
X174352000Y-111723691D01*
X175665000Y-111723691D01*
X175665000Y-112164250D01*
X175823750Y-112323000D01*
X176773000Y-112323000D01*
X176773000Y-111373750D01*
X177027000Y-111373750D01*
X177027000Y-112323000D01*
X177976250Y-112323000D01*
X178135000Y-112164250D01*
X178135000Y-111723691D01*
X178038327Y-111490302D01*
X177859699Y-111311673D01*
X177626310Y-111215000D01*
X177185750Y-111215000D01*
X177027000Y-111373750D01*
X176773000Y-111373750D01*
X176614250Y-111215000D01*
X176173690Y-111215000D01*
X175940301Y-111311673D01*
X175761673Y-111490302D01*
X175665000Y-111723691D01*
X174352000Y-111723691D01*
X174352000Y-106324171D01*
X175372891Y-106324171D01*
X175468145Y-106554703D01*
X175548000Y-106634698D01*
X175548000Y-107715272D01*
X175468765Y-107794369D01*
X175373109Y-108024735D01*
X175372891Y-108274171D01*
X175468145Y-108504703D01*
X175644369Y-108681235D01*
X175874735Y-108776891D01*
X176124171Y-108777109D01*
X176354703Y-108681855D01*
X176531235Y-108505631D01*
X176626891Y-108275265D01*
X176627109Y-108025829D01*
X176531855Y-107795297D01*
X176452000Y-107715302D01*
X176452000Y-106634728D01*
X176531235Y-106555631D01*
X176626891Y-106325265D01*
X176627109Y-106075829D01*
X176531855Y-105845297D01*
X176355631Y-105668765D01*
X176125265Y-105573109D01*
X175875829Y-105572891D01*
X175645297Y-105668145D01*
X175468765Y-105844369D01*
X175373109Y-106074735D01*
X175372891Y-106324171D01*
X174352000Y-106324171D01*
X174352000Y-100684728D01*
X174431235Y-100605631D01*
X174526891Y-100375265D01*
X174527109Y-100125829D01*
X174431855Y-99895297D01*
X174255631Y-99718765D01*
X174025265Y-99623109D01*
X173775829Y-99622891D01*
X173545297Y-99718145D01*
X173368765Y-99894369D01*
X173273109Y-100124735D01*
X173272891Y-100374171D01*
X173368145Y-100604703D01*
X173448000Y-100684698D01*
X173448000Y-111966594D01*
X173400000Y-111966594D01*
X173278821Y-111989395D01*
X173167526Y-112061012D01*
X173092862Y-112170286D01*
X173066594Y-112300000D01*
X172133406Y-112300000D01*
X172110605Y-112178821D01*
X172038988Y-112067526D01*
X171929714Y-111992862D01*
X171800000Y-111966594D01*
X170800000Y-111966594D01*
X170765954Y-111973000D01*
X169018918Y-111973000D01*
X169010605Y-111928821D01*
X168938988Y-111817526D01*
X168829714Y-111742862D01*
X168700000Y-111716594D01*
X167500000Y-111716594D01*
X167378821Y-111739395D01*
X167267526Y-111811012D01*
X167192862Y-111920286D01*
X167182187Y-111973000D01*
X166718918Y-111973000D01*
X166710605Y-111928821D01*
X166638988Y-111817526D01*
X166529714Y-111742862D01*
X166400000Y-111716594D01*
X165200000Y-111716594D01*
X165078821Y-111739395D01*
X164967526Y-111811012D01*
X164892862Y-111920286D01*
X164882187Y-111973000D01*
X164418918Y-111973000D01*
X164410605Y-111928821D01*
X164338988Y-111817526D01*
X164229714Y-111742862D01*
X164100000Y-111716594D01*
X162900000Y-111716594D01*
X162778821Y-111739395D01*
X162667526Y-111811012D01*
X162592862Y-111920286D01*
X162566594Y-112050000D01*
X157907422Y-112050000D01*
X160828711Y-109128711D01*
X160975466Y-108909076D01*
X161026999Y-108650000D01*
X160975466Y-108390924D01*
X160828711Y-108171289D01*
X160725012Y-108102000D01*
X161212776Y-108102000D01*
X161422989Y-108312213D01*
X161422891Y-108424171D01*
X161518145Y-108654703D01*
X161694369Y-108831235D01*
X161924735Y-108926891D01*
X162174171Y-108927109D01*
X162404703Y-108831855D01*
X162581235Y-108655631D01*
X162676891Y-108425265D01*
X162677109Y-108175829D01*
X162581855Y-107945297D01*
X162413821Y-107776969D01*
X162574171Y-107777109D01*
X162804703Y-107681855D01*
X162981235Y-107505631D01*
X163076891Y-107275265D01*
X163077109Y-107025829D01*
X162981855Y-106795297D01*
X162913690Y-106727012D01*
X163024171Y-106727109D01*
X163254703Y-106631855D01*
X163431235Y-106455631D01*
X163526891Y-106225265D01*
X163527109Y-105975829D01*
X163431855Y-105745297D01*
X163255631Y-105568765D01*
X163025265Y-105473109D01*
X162775829Y-105472891D01*
X162545297Y-105568145D01*
X162465302Y-105648000D01*
X162277002Y-105648000D01*
X162277109Y-105525829D01*
X162181855Y-105295297D01*
X162005631Y-105118765D01*
X161775265Y-105023109D01*
X161525829Y-105022891D01*
X161295297Y-105118145D01*
X161118765Y-105294369D01*
X161023109Y-105524735D01*
X161023010Y-105637766D01*
X160962776Y-105698000D01*
X157983406Y-105698000D01*
X157983406Y-105500000D01*
X157963899Y-105396327D01*
X157983406Y-105300000D01*
X157983406Y-105000000D01*
X157963899Y-104896327D01*
X157983406Y-104800000D01*
X157983406Y-104500000D01*
X157963899Y-104396327D01*
X157972526Y-104353724D01*
X158009699Y-104338327D01*
X158188327Y-104159698D01*
X158285000Y-103926309D01*
X158285000Y-103883750D01*
X158126250Y-103725000D01*
X157826749Y-103725000D01*
X157779714Y-103692862D01*
X157650000Y-103666594D01*
X156050000Y-103666594D01*
X155928821Y-103689395D01*
X155915449Y-103698000D01*
X150487224Y-103698000D01*
X149569612Y-102780388D01*
X149422973Y-102682406D01*
X149250000Y-102648000D01*
X147384728Y-102648000D01*
X147305631Y-102568765D01*
X147075265Y-102473109D01*
X146825829Y-102472891D01*
X146595297Y-102568145D01*
X146418765Y-102744369D01*
X146323109Y-102974735D01*
X146322891Y-103224171D01*
X146418145Y-103454703D01*
X146594369Y-103631235D01*
X146824735Y-103726891D01*
X147074171Y-103727109D01*
X147265072Y-103648230D01*
X147168765Y-103744369D01*
X147073109Y-103974735D01*
X147072891Y-104224171D01*
X147168145Y-104454703D01*
X147344369Y-104631235D01*
X147574735Y-104726891D01*
X147824171Y-104727109D01*
X147929909Y-104683419D01*
X147818765Y-104794369D01*
X147723109Y-105024735D01*
X147722891Y-105274171D01*
X147818145Y-105504703D01*
X147994369Y-105681235D01*
X148224735Y-105776891D01*
X148474171Y-105777109D01*
X148704703Y-105681855D01*
X148784698Y-105602000D01*
X148861383Y-105602000D01*
X148718765Y-105744369D01*
X148623109Y-105974735D01*
X148622891Y-106224171D01*
X148718145Y-106454703D01*
X148894369Y-106631235D01*
X149124735Y-106726891D01*
X149374171Y-106727109D01*
X149604703Y-106631855D01*
X149781235Y-106455631D01*
X149876891Y-106225265D01*
X149876990Y-106112234D01*
X149887224Y-106102000D01*
X155716594Y-106102000D01*
X155716594Y-106300000D01*
X155736101Y-106403673D01*
X155716594Y-106500000D01*
X155716594Y-106800000D01*
X155736101Y-106903673D01*
X155716594Y-107000000D01*
X155716594Y-107300000D01*
X155736101Y-107403673D01*
X155716594Y-107500000D01*
X155716594Y-107800000D01*
X155736101Y-107903673D01*
X155716594Y-108000000D01*
X155716594Y-108300000D01*
X155736101Y-108403673D01*
X155716594Y-108500000D01*
X155716594Y-108800000D01*
X155739395Y-108921179D01*
X155811012Y-109032474D01*
X155920286Y-109107138D01*
X156050000Y-109133406D01*
X157650000Y-109133406D01*
X157771179Y-109110605D01*
X157882474Y-109038988D01*
X157957138Y-108929714D01*
X157983406Y-108800000D01*
X157983406Y-108500000D01*
X157963899Y-108396327D01*
X157983406Y-108300000D01*
X157983406Y-108102000D01*
X159974988Y-108102000D01*
X159871289Y-108171289D01*
X153371291Y-114671287D01*
X153371288Y-114671289D01*
X153352000Y-114690577D01*
X153352000Y-113684728D01*
X153431235Y-113605631D01*
X153526891Y-113375265D01*
X153527109Y-113125829D01*
X153431855Y-112895297D01*
X153255631Y-112718765D01*
X153025265Y-112623109D01*
X152775829Y-112622891D01*
X152702000Y-112653397D01*
X152702000Y-111383406D01*
X152900000Y-111383406D01*
X153003673Y-111363899D01*
X153100000Y-111383406D01*
X153400000Y-111383406D01*
X153503673Y-111363899D01*
X153600000Y-111383406D01*
X153900000Y-111383406D01*
X154003673Y-111363899D01*
X154100000Y-111383406D01*
X154400000Y-111383406D01*
X154503673Y-111363899D01*
X154600000Y-111383406D01*
X154900000Y-111383406D01*
X155003673Y-111363899D01*
X155100000Y-111383406D01*
X155400000Y-111383406D01*
X155521179Y-111360605D01*
X155632474Y-111288988D01*
X155707138Y-111179714D01*
X155733406Y-111050000D01*
X155733406Y-109450000D01*
X155710605Y-109328821D01*
X155638988Y-109217526D01*
X155529714Y-109142862D01*
X155400000Y-109116594D01*
X155100000Y-109116594D01*
X154996327Y-109136101D01*
X154900000Y-109116594D01*
X154600000Y-109116594D01*
X154496327Y-109136101D01*
X154400000Y-109116594D01*
X154100000Y-109116594D01*
X153996327Y-109136101D01*
X153900000Y-109116594D01*
X153600000Y-109116594D01*
X153496327Y-109136101D01*
X153400000Y-109116594D01*
X153100000Y-109116594D01*
X152996327Y-109136101D01*
X152900000Y-109116594D01*
X152600000Y-109116594D01*
X152496327Y-109136101D01*
X152400000Y-109116594D01*
X152100000Y-109116594D01*
X151996327Y-109136101D01*
X151900000Y-109116594D01*
X151600000Y-109116594D01*
X151496327Y-109136101D01*
X151400000Y-109116594D01*
X151100000Y-109116594D01*
X150996327Y-109136101D01*
X150900000Y-109116594D01*
X150600000Y-109116594D01*
X150496327Y-109136101D01*
X150400000Y-109116594D01*
X150100000Y-109116594D01*
X149996327Y-109136101D01*
X149900000Y-109116594D01*
X149600000Y-109116594D01*
X149496327Y-109136101D01*
X149400000Y-109116594D01*
X149100000Y-109116594D01*
X148996327Y-109136101D01*
X148953724Y-109127474D01*
X148938327Y-109090301D01*
X148759698Y-108911673D01*
X148526309Y-108815000D01*
X148483750Y-108815000D01*
X148325000Y-108973750D01*
X148325000Y-109273251D01*
X148292862Y-109320286D01*
X148266594Y-109450000D01*
X148266594Y-111050000D01*
X148289395Y-111171179D01*
X148298000Y-111184551D01*
X148298000Y-114008776D01*
X147116326Y-112827102D01*
X147124171Y-112827109D01*
X147354703Y-112731855D01*
X147531235Y-112555631D01*
X147626891Y-112325265D01*
X147627109Y-112075829D01*
X147531855Y-111845297D01*
X147355631Y-111668765D01*
X147210746Y-111608604D01*
X147259698Y-111588327D01*
X147438327Y-111409699D01*
X147453378Y-111373362D01*
X147503673Y-111363899D01*
X147546276Y-111372526D01*
X147561673Y-111409699D01*
X147740302Y-111588327D01*
X147973691Y-111685000D01*
X148016250Y-111685000D01*
X148175000Y-111526250D01*
X148175000Y-111226749D01*
X148207138Y-111179714D01*
X148233406Y-111050000D01*
X148233406Y-109450000D01*
X148210605Y-109328821D01*
X148175000Y-109273490D01*
X148175000Y-108973750D01*
X148016250Y-108815000D01*
X147973691Y-108815000D01*
X147740302Y-108911673D01*
X147561673Y-109090301D01*
X147546622Y-109126638D01*
X147496327Y-109136101D01*
X147453724Y-109127474D01*
X147438327Y-109090301D01*
X147259698Y-108911673D01*
X147026309Y-108815000D01*
X146983750Y-108815000D01*
X146825000Y-108973750D01*
X146825000Y-109273251D01*
X146792862Y-109320286D01*
X146766594Y-109450000D01*
X146766594Y-110397000D01*
X146733406Y-110397000D01*
X146733406Y-109450000D01*
X146710605Y-109328821D01*
X146702000Y-109315449D01*
X146702000Y-108900000D01*
X146667594Y-108727027D01*
X146569612Y-108580388D01*
X146077011Y-108087787D01*
X146077109Y-107975829D01*
X145981855Y-107745297D01*
X145805631Y-107568765D01*
X145575265Y-107473109D01*
X145325829Y-107472891D01*
X145095297Y-107568145D01*
X144918765Y-107744369D01*
X144823109Y-107974735D01*
X144822891Y-108224171D01*
X144918145Y-108454703D01*
X145094369Y-108631235D01*
X145324735Y-108726891D01*
X145437766Y-108726990D01*
X145798000Y-109087224D01*
X145798000Y-109116594D01*
X145600000Y-109116594D01*
X145496327Y-109136101D01*
X145400000Y-109116594D01*
X145100000Y-109116594D01*
X144996327Y-109136101D01*
X144900000Y-109116594D01*
X144600000Y-109116594D01*
X144496327Y-109136101D01*
X144400000Y-109116594D01*
X144100000Y-109116594D01*
X143996327Y-109136101D01*
X143900000Y-109116594D01*
X143600000Y-109116594D01*
X143496327Y-109136101D01*
X143400000Y-109116594D01*
X143100000Y-109116594D01*
X142978821Y-109139395D01*
X142867526Y-109211012D01*
X142792862Y-109320286D01*
X142766594Y-109450000D01*
X142766594Y-111050000D01*
X142789395Y-111171179D01*
X142798000Y-111184551D01*
X142798000Y-112600000D01*
X142832406Y-112772973D01*
X142930388Y-112919612D01*
X143458776Y-113448000D01*
X138783406Y-113448000D01*
X138783406Y-113300000D01*
X138760605Y-113178821D01*
X138688988Y-113067526D01*
X138579714Y-112992862D01*
X138450000Y-112966594D01*
X137250000Y-112966594D01*
X137128821Y-112989395D01*
X137017526Y-113061012D01*
X136968218Y-113133176D01*
X136888327Y-112940301D01*
X136709698Y-112761673D01*
X136476309Y-112665000D01*
X136035750Y-112665000D01*
X135877000Y-112823750D01*
X135877000Y-113773000D01*
X135897000Y-113773000D01*
X135897000Y-114027000D01*
X135877000Y-114027000D01*
X135877000Y-115773000D01*
X135897000Y-115773000D01*
X135897000Y-116027000D01*
X135877000Y-116027000D01*
X135877000Y-116976250D01*
X136035750Y-117135000D01*
X136476309Y-117135000D01*
X136709698Y-117038327D01*
X136888327Y-116859699D01*
X136968433Y-116666305D01*
X137011012Y-116732474D01*
X137120286Y-116807138D01*
X137250000Y-116833406D01*
X138450000Y-116833406D01*
X138571179Y-116810605D01*
X138682474Y-116738988D01*
X138757138Y-116629714D01*
X138783406Y-116500000D01*
X138783406Y-116352000D01*
X140409365Y-116352000D01*
X140265302Y-116411673D01*
X140086673Y-116590301D01*
X139990000Y-116823690D01*
X139990000Y-117214250D01*
X140148750Y-117373000D01*
X140687500Y-117373000D01*
X140687500Y-117353000D01*
X140791594Y-117353000D01*
X140791594Y-117647000D01*
X140687500Y-117647000D01*
X140687500Y-117627000D01*
X140148750Y-117627000D01*
X139990000Y-117785750D01*
X139990000Y-118023000D01*
X134983406Y-118023000D01*
X134983406Y-118000000D01*
X134960605Y-117878821D01*
X134888988Y-117767526D01*
X134779714Y-117692862D01*
X134650000Y-117666594D01*
X133450000Y-117666594D01*
X133328821Y-117689395D01*
X133217526Y-117761012D01*
X133142862Y-117870286D01*
X133132187Y-117923000D01*
X132368918Y-117923000D01*
X132360605Y-117878821D01*
X132288988Y-117767526D01*
X132179714Y-117692862D01*
X132050000Y-117666594D01*
X130850000Y-117666594D01*
X130728821Y-117689395D01*
X130617526Y-117761012D01*
X130542862Y-117870286D01*
X130532187Y-117923000D01*
X130030422Y-117923000D01*
X128293172Y-116185750D01*
X134515000Y-116185750D01*
X134515000Y-116626310D01*
X134611673Y-116859699D01*
X134790302Y-117038327D01*
X135023691Y-117135000D01*
X135464250Y-117135000D01*
X135623000Y-116976250D01*
X135623000Y-116027000D01*
X134673750Y-116027000D01*
X134515000Y-116185750D01*
X128293172Y-116185750D01*
X126293172Y-114185750D01*
X134515000Y-114185750D01*
X134515000Y-114626310D01*
X134611673Y-114859699D01*
X134651974Y-114900000D01*
X134611673Y-114940301D01*
X134515000Y-115173690D01*
X134515000Y-115614250D01*
X134673750Y-115773000D01*
X135623000Y-115773000D01*
X135623000Y-114027000D01*
X134673750Y-114027000D01*
X134515000Y-114185750D01*
X126293172Y-114185750D01*
X125281112Y-113173690D01*
X134515000Y-113173690D01*
X134515000Y-113614250D01*
X134673750Y-113773000D01*
X135623000Y-113773000D01*
X135623000Y-112823750D01*
X135464250Y-112665000D01*
X135023691Y-112665000D01*
X134790302Y-112761673D01*
X134611673Y-112940301D01*
X134515000Y-113173690D01*
X125281112Y-113173690D01*
X123928672Y-111821250D01*
X124475000Y-111821250D01*
X124475000Y-111901310D01*
X124571673Y-112134699D01*
X124750302Y-112313327D01*
X124983691Y-112410000D01*
X125119250Y-112410000D01*
X125278000Y-112251250D01*
X125278000Y-111662500D01*
X125532000Y-111662500D01*
X125532000Y-112251250D01*
X125690750Y-112410000D01*
X125826309Y-112410000D01*
X126059698Y-112313327D01*
X126238327Y-112134699D01*
X126335000Y-111901310D01*
X126335000Y-111821250D01*
X126176250Y-111662500D01*
X125532000Y-111662500D01*
X125278000Y-111662500D01*
X124633750Y-111662500D01*
X124475000Y-111821250D01*
X123928672Y-111821250D01*
X123627000Y-111519578D01*
X123627000Y-111198690D01*
X124475000Y-111198690D01*
X124475000Y-111278750D01*
X124633750Y-111437500D01*
X125278000Y-111437500D01*
X125278000Y-110848750D01*
X125532000Y-110848750D01*
X125532000Y-111437500D01*
X126176250Y-111437500D01*
X126288750Y-111325000D01*
X128066594Y-111325000D01*
X128066594Y-111775000D01*
X128089395Y-111896179D01*
X128161012Y-112007474D01*
X128270286Y-112082138D01*
X128400000Y-112108406D01*
X128601523Y-112108406D01*
X128695000Y-112127000D01*
X130455000Y-112127000D01*
X130548477Y-112108406D01*
X130750000Y-112108406D01*
X130871179Y-112085605D01*
X130982474Y-112013988D01*
X131057138Y-111904714D01*
X131083406Y-111775000D01*
X131083406Y-111325000D01*
X133116594Y-111325000D01*
X133116594Y-111775000D01*
X133139395Y-111896179D01*
X133211012Y-112007474D01*
X133320286Y-112082138D01*
X133450000Y-112108406D01*
X133651523Y-112108406D01*
X133745000Y-112127000D01*
X134866594Y-112127000D01*
X134866594Y-112150000D01*
X134889395Y-112271179D01*
X134961012Y-112382474D01*
X135070286Y-112457138D01*
X135200000Y-112483406D01*
X136400000Y-112483406D01*
X136521179Y-112460605D01*
X136632474Y-112388988D01*
X136707138Y-112279714D01*
X136733406Y-112150000D01*
X136733406Y-110950000D01*
X136966594Y-110950000D01*
X136966594Y-112150000D01*
X136989395Y-112271179D01*
X137061012Y-112382474D01*
X137170286Y-112457138D01*
X137300000Y-112483406D01*
X138500000Y-112483406D01*
X138621179Y-112460605D01*
X138732474Y-112388988D01*
X138807138Y-112279714D01*
X138833406Y-112150000D01*
X138833406Y-112002000D01*
X139394377Y-112002000D01*
X139574735Y-112076891D01*
X139824171Y-112077109D01*
X140054703Y-111981855D01*
X140231235Y-111805631D01*
X140326891Y-111575265D01*
X140327109Y-111325829D01*
X140231855Y-111095297D01*
X140055631Y-110918765D01*
X139825265Y-110823109D01*
X139575829Y-110822891D01*
X139345297Y-110918145D01*
X139168765Y-111094369D01*
X139167257Y-111098000D01*
X138833406Y-111098000D01*
X138833406Y-110950000D01*
X138810605Y-110828821D01*
X138738988Y-110717526D01*
X138629714Y-110642862D01*
X138500000Y-110616594D01*
X137300000Y-110616594D01*
X137178821Y-110639395D01*
X137067526Y-110711012D01*
X136992862Y-110820286D01*
X136966594Y-110950000D01*
X136733406Y-110950000D01*
X136710605Y-110828821D01*
X136638988Y-110717526D01*
X136529714Y-110642862D01*
X136400000Y-110616594D01*
X135200000Y-110616594D01*
X135078821Y-110639395D01*
X134967526Y-110711012D01*
X134892862Y-110820286D01*
X134866594Y-110950000D01*
X134866594Y-110973000D01*
X133745000Y-110973000D01*
X133651523Y-110991594D01*
X133450000Y-110991594D01*
X133328821Y-111014395D01*
X133217526Y-111086012D01*
X133142862Y-111195286D01*
X133116594Y-111325000D01*
X131083406Y-111325000D01*
X131060605Y-111203821D01*
X130988988Y-111092526D01*
X130879714Y-111017862D01*
X130750000Y-110991594D01*
X130548477Y-110991594D01*
X130455000Y-110973000D01*
X128695000Y-110973000D01*
X128601523Y-110991594D01*
X128400000Y-110991594D01*
X128278821Y-111014395D01*
X128167526Y-111086012D01*
X128092862Y-111195286D01*
X128066594Y-111325000D01*
X126288750Y-111325000D01*
X126335000Y-111278750D01*
X126335000Y-111198690D01*
X126238327Y-110965301D01*
X126059698Y-110786673D01*
X125826309Y-110690000D01*
X125690750Y-110690000D01*
X125532000Y-110848750D01*
X125278000Y-110848750D01*
X125119250Y-110690000D01*
X124983691Y-110690000D01*
X124750302Y-110786673D01*
X124571673Y-110965301D01*
X124475000Y-111198690D01*
X123627000Y-111198690D01*
X123627000Y-109080422D01*
X124321672Y-108385750D01*
X134615000Y-108385750D01*
X134615000Y-108826310D01*
X134711673Y-109059699D01*
X134890302Y-109238327D01*
X135123691Y-109335000D01*
X135564250Y-109335000D01*
X135723000Y-109176250D01*
X135723000Y-108227000D01*
X134773750Y-108227000D01*
X134615000Y-108385750D01*
X124321672Y-108385750D01*
X125333732Y-107373690D01*
X134615000Y-107373690D01*
X134615000Y-107814250D01*
X134773750Y-107973000D01*
X135723000Y-107973000D01*
X135723000Y-107023750D01*
X135977000Y-107023750D01*
X135977000Y-107973000D01*
X135997000Y-107973000D01*
X135997000Y-108227000D01*
X135977000Y-108227000D01*
X135977000Y-109176250D01*
X136135750Y-109335000D01*
X136576309Y-109335000D01*
X136809698Y-109238327D01*
X136988327Y-109059699D01*
X137068433Y-108866305D01*
X137111012Y-108932474D01*
X137220286Y-109007138D01*
X137350000Y-109033406D01*
X138550000Y-109033406D01*
X138671179Y-109010605D01*
X138782474Y-108938988D01*
X138857138Y-108829714D01*
X138883406Y-108700000D01*
X138883406Y-108552000D01*
X138965272Y-108552000D01*
X139044369Y-108631235D01*
X139274735Y-108726891D01*
X139524171Y-108727109D01*
X139754703Y-108631855D01*
X139931235Y-108455631D01*
X140026891Y-108225265D01*
X140027109Y-107975829D01*
X139931855Y-107745297D01*
X139755631Y-107568765D01*
X139525265Y-107473109D01*
X139275829Y-107472891D01*
X139045297Y-107568145D01*
X138965302Y-107648000D01*
X138883406Y-107648000D01*
X138883406Y-107500000D01*
X138860605Y-107378821D01*
X138788988Y-107267526D01*
X138679714Y-107192862D01*
X138550000Y-107166594D01*
X137350000Y-107166594D01*
X137228821Y-107189395D01*
X137117526Y-107261012D01*
X137068218Y-107333176D01*
X136988327Y-107140301D01*
X136809698Y-106961673D01*
X136576309Y-106865000D01*
X136135750Y-106865000D01*
X135977000Y-107023750D01*
X135723000Y-107023750D01*
X135564250Y-106865000D01*
X135123691Y-106865000D01*
X134890302Y-106961673D01*
X134711673Y-107140301D01*
X134615000Y-107373690D01*
X125333732Y-107373690D01*
X125380423Y-107327000D01*
X130650000Y-107327000D01*
X130909077Y-107275466D01*
X131128711Y-107128711D01*
X136228711Y-102028711D01*
X136268200Y-101969612D01*
X136375466Y-101809077D01*
X136427000Y-101550000D01*
X136427000Y-101018918D01*
X136471179Y-101010605D01*
X136582474Y-100938988D01*
X136657138Y-100829714D01*
X136683406Y-100700000D01*
X136683406Y-99500000D01*
X136660605Y-99378821D01*
X136588988Y-99267526D01*
X136479714Y-99192862D01*
X136377000Y-99172062D01*
X136377000Y-98933406D01*
X136450000Y-98933406D01*
X136571179Y-98910605D01*
X136682474Y-98838988D01*
X136757138Y-98729714D01*
X136783406Y-98600000D01*
X136783406Y-98383750D01*
X140215000Y-98383750D01*
X140215000Y-98426309D01*
X140311673Y-98659698D01*
X140490301Y-98838327D01*
X140526638Y-98853378D01*
X140536101Y-98903673D01*
X140516594Y-99000000D01*
X140516594Y-99300000D01*
X140536101Y-99403673D01*
X140516594Y-99500000D01*
X140516594Y-99800000D01*
X140536101Y-99903673D01*
X140516594Y-100000000D01*
X140516594Y-100300000D01*
X140536101Y-100403673D01*
X140516594Y-100500000D01*
X140516594Y-100800000D01*
X140536101Y-100903673D01*
X140516594Y-101000000D01*
X140516594Y-101300000D01*
X140536101Y-101403673D01*
X140516594Y-101500000D01*
X140516594Y-101800000D01*
X140536101Y-101903673D01*
X140516594Y-102000000D01*
X140516594Y-102300000D01*
X140536101Y-102403673D01*
X140516594Y-102500000D01*
X140516594Y-102800000D01*
X140536101Y-102903673D01*
X140516594Y-103000000D01*
X140516594Y-103300000D01*
X140536101Y-103403673D01*
X140516594Y-103500000D01*
X140516594Y-103800000D01*
X140536101Y-103903673D01*
X140516594Y-104000000D01*
X140516594Y-104300000D01*
X140536101Y-104403673D01*
X140516594Y-104500000D01*
X140516594Y-104800000D01*
X140536101Y-104903673D01*
X140516594Y-105000000D01*
X140516594Y-105300000D01*
X140536101Y-105403673D01*
X140516594Y-105500000D01*
X140516594Y-105800000D01*
X140536101Y-105903673D01*
X140516594Y-106000000D01*
X140516594Y-106300000D01*
X140536101Y-106403673D01*
X140516594Y-106500000D01*
X140516594Y-106800000D01*
X140536101Y-106903673D01*
X140516594Y-107000000D01*
X140516594Y-107300000D01*
X140536101Y-107403673D01*
X140516594Y-107500000D01*
X140516594Y-107800000D01*
X140536101Y-107903673D01*
X140516594Y-108000000D01*
X140516594Y-108300000D01*
X140536101Y-108403673D01*
X140516594Y-108500000D01*
X140516594Y-108800000D01*
X140539395Y-108921179D01*
X140611012Y-109032474D01*
X140720286Y-109107138D01*
X140850000Y-109133406D01*
X142450000Y-109133406D01*
X142571179Y-109110605D01*
X142682474Y-109038988D01*
X142757138Y-108929714D01*
X142783406Y-108800000D01*
X142783406Y-108500000D01*
X142763899Y-108396327D01*
X142783406Y-108300000D01*
X142783406Y-108000000D01*
X142763899Y-107896327D01*
X142783406Y-107800000D01*
X142783406Y-107500000D01*
X142763899Y-107396327D01*
X142783406Y-107300000D01*
X142783406Y-107000000D01*
X142763899Y-106896327D01*
X142783406Y-106800000D01*
X142783406Y-106500000D01*
X142763899Y-106396327D01*
X142783406Y-106300000D01*
X142783406Y-106000000D01*
X142763899Y-105896327D01*
X142783406Y-105800000D01*
X142783406Y-105500000D01*
X142763899Y-105396327D01*
X142783406Y-105300000D01*
X142783406Y-105000000D01*
X142763899Y-104896327D01*
X142783406Y-104800000D01*
X142783406Y-104500000D01*
X142763899Y-104396327D01*
X142783406Y-104300000D01*
X142783406Y-104000000D01*
X142763899Y-103896327D01*
X142783406Y-103800000D01*
X142783406Y-103500000D01*
X142763899Y-103396327D01*
X142783406Y-103300000D01*
X142783406Y-103000000D01*
X142763899Y-102896327D01*
X142783406Y-102800000D01*
X142783406Y-102500000D01*
X142763899Y-102396327D01*
X142783406Y-102300000D01*
X142783406Y-102000000D01*
X142763899Y-101896327D01*
X142783406Y-101800000D01*
X142783406Y-101500000D01*
X142763899Y-101396327D01*
X142783406Y-101300000D01*
X142783406Y-101000000D01*
X142763899Y-100896327D01*
X142783406Y-100800000D01*
X142783406Y-100500000D01*
X142763899Y-100396327D01*
X142783406Y-100300000D01*
X142783406Y-100000000D01*
X142763899Y-99896327D01*
X142783406Y-99800000D01*
X142783406Y-99500000D01*
X142763899Y-99396327D01*
X142783406Y-99300000D01*
X142783406Y-99000000D01*
X142763899Y-98896327D01*
X142772526Y-98853724D01*
X142809699Y-98838327D01*
X142988327Y-98659698D01*
X143085000Y-98426309D01*
X143085000Y-98383750D01*
X142926250Y-98225000D01*
X142626749Y-98225000D01*
X142579714Y-98192862D01*
X142450000Y-98166594D01*
X140850000Y-98166594D01*
X140728821Y-98189395D01*
X140673490Y-98225000D01*
X140373750Y-98225000D01*
X140215000Y-98383750D01*
X136783406Y-98383750D01*
X136783406Y-98102000D01*
X140712766Y-98102000D01*
X140720286Y-98107138D01*
X140850000Y-98133406D01*
X142450000Y-98133406D01*
X142571179Y-98110605D01*
X142584551Y-98102000D01*
X147500000Y-98102000D01*
X147672973Y-98067594D01*
X147819612Y-97969612D01*
X149069612Y-96719612D01*
X149167594Y-96572973D01*
X149202000Y-96400000D01*
X149202000Y-96183406D01*
X149400000Y-96183406D01*
X149503673Y-96163899D01*
X149600000Y-96183406D01*
X149900000Y-96183406D01*
X150003673Y-96163899D01*
X150100000Y-96183406D01*
X150400000Y-96183406D01*
X150503673Y-96163899D01*
X150600000Y-96183406D01*
X150798000Y-96183406D01*
X150798000Y-97355272D01*
X150718765Y-97434369D01*
X150623109Y-97664735D01*
X150622891Y-97914171D01*
X150718145Y-98144703D01*
X150894369Y-98321235D01*
X151124735Y-98416891D01*
X151262941Y-98417012D01*
X151262891Y-98474171D01*
X151358145Y-98704703D01*
X151534369Y-98881235D01*
X151764735Y-98976891D01*
X151903063Y-98977012D01*
X151902891Y-99174171D01*
X151998145Y-99404703D01*
X152174369Y-99581235D01*
X152404735Y-99676891D01*
X152625352Y-99677084D01*
X152593109Y-99754735D01*
X152592891Y-100004171D01*
X152688145Y-100234703D01*
X152864369Y-100411235D01*
X153094735Y-100506891D01*
X153344171Y-100507109D01*
X153574703Y-100411855D01*
X153675038Y-100311695D01*
X153794369Y-100431235D01*
X154024735Y-100526891D01*
X154166296Y-100527015D01*
X154200696Y-100550000D01*
X154227027Y-100567594D01*
X154400000Y-100602000D01*
X155716594Y-100602000D01*
X155716594Y-100800000D01*
X155736101Y-100903673D01*
X155716594Y-101000000D01*
X155716594Y-101300000D01*
X155736101Y-101403673D01*
X155716594Y-101500000D01*
X155716594Y-101800000D01*
X155736101Y-101903673D01*
X155716594Y-102000000D01*
X155716594Y-102300000D01*
X155736101Y-102403673D01*
X155716594Y-102500000D01*
X155716594Y-102800000D01*
X155736101Y-102903673D01*
X155727474Y-102946276D01*
X155690301Y-102961673D01*
X155511673Y-103140302D01*
X155415000Y-103373691D01*
X155415000Y-103416250D01*
X155573750Y-103575000D01*
X155873251Y-103575000D01*
X155920286Y-103607138D01*
X156050000Y-103633406D01*
X157650000Y-103633406D01*
X157771179Y-103610605D01*
X157784551Y-103602000D01*
X158312776Y-103602000D01*
X159475388Y-104764613D01*
X159475391Y-104764615D01*
X159480388Y-104769612D01*
X159627027Y-104867594D01*
X159800000Y-104902000D01*
X159825137Y-104897000D01*
X163441594Y-104897000D01*
X163441594Y-105205000D01*
X163464395Y-105326179D01*
X163536012Y-105437474D01*
X163645286Y-105512138D01*
X163775000Y-105538406D01*
X166825000Y-105538406D01*
X166946179Y-105515605D01*
X167057474Y-105443988D01*
X167132138Y-105334714D01*
X167158406Y-105205000D01*
X167158406Y-104535750D01*
X167415000Y-104535750D01*
X167415000Y-104976309D01*
X167511673Y-105209698D01*
X167690301Y-105388327D01*
X167923690Y-105485000D01*
X168364250Y-105485000D01*
X168523000Y-105326250D01*
X168523000Y-104377000D01*
X168777000Y-104377000D01*
X168777000Y-105326250D01*
X168935750Y-105485000D01*
X169376310Y-105485000D01*
X169609699Y-105388327D01*
X169788327Y-105209698D01*
X169885000Y-104976309D01*
X169885000Y-104535750D01*
X169726250Y-104377000D01*
X168777000Y-104377000D01*
X168523000Y-104377000D01*
X167573750Y-104377000D01*
X167415000Y-104535750D01*
X167158406Y-104535750D01*
X167158406Y-103685000D01*
X167135605Y-103563821D01*
X167063988Y-103452526D01*
X166954714Y-103377862D01*
X166825000Y-103351594D01*
X163775000Y-103351594D01*
X163653821Y-103374395D01*
X163542526Y-103446012D01*
X163467862Y-103555286D01*
X163441594Y-103685000D01*
X163441594Y-103993000D01*
X159982225Y-103993000D01*
X159091224Y-103102000D01*
X159712776Y-103102000D01*
X159722989Y-103112213D01*
X159722891Y-103224171D01*
X159818145Y-103454703D01*
X159994369Y-103631235D01*
X160224735Y-103726891D01*
X160474171Y-103727109D01*
X160704703Y-103631855D01*
X160881235Y-103455631D01*
X160976891Y-103225265D01*
X160977109Y-102975829D01*
X160881855Y-102745297D01*
X160738808Y-102602000D01*
X163441594Y-102602000D01*
X163441594Y-102915000D01*
X163464395Y-103036179D01*
X163536012Y-103147474D01*
X163645286Y-103222138D01*
X163775000Y-103248406D01*
X166825000Y-103248406D01*
X166946179Y-103225605D01*
X167057474Y-103153988D01*
X167132138Y-103044714D01*
X167158406Y-102915000D01*
X167158406Y-102827000D01*
X167731082Y-102827000D01*
X167739395Y-102871179D01*
X167811012Y-102982474D01*
X167883176Y-103031782D01*
X167690301Y-103111673D01*
X167511673Y-103290302D01*
X167415000Y-103523691D01*
X167415000Y-103964250D01*
X167573750Y-104123000D01*
X168523000Y-104123000D01*
X168523000Y-104103000D01*
X168777000Y-104103000D01*
X168777000Y-104123000D01*
X169726250Y-104123000D01*
X169885000Y-103964250D01*
X169885000Y-103523691D01*
X169788327Y-103290302D01*
X169609699Y-103111673D01*
X169416305Y-103031567D01*
X169482474Y-102988988D01*
X169557138Y-102879714D01*
X169583406Y-102750000D01*
X169583406Y-101550000D01*
X169560605Y-101428821D01*
X169488988Y-101317526D01*
X169379714Y-101242862D01*
X169250000Y-101216594D01*
X168050000Y-101216594D01*
X167928821Y-101239395D01*
X167817526Y-101311012D01*
X167742862Y-101420286D01*
X167732187Y-101473000D01*
X167158406Y-101473000D01*
X167158406Y-101395000D01*
X167135605Y-101273821D01*
X167078450Y-101185000D01*
X167114250Y-101185000D01*
X167273000Y-101026250D01*
X167273000Y-100077000D01*
X167527000Y-100077000D01*
X167527000Y-101026250D01*
X167685750Y-101185000D01*
X168126309Y-101185000D01*
X168359698Y-101088327D01*
X168538327Y-100909699D01*
X168635000Y-100676310D01*
X168635000Y-100235750D01*
X168476250Y-100077000D01*
X167527000Y-100077000D01*
X167273000Y-100077000D01*
X167253000Y-100077000D01*
X167253000Y-99823000D01*
X167273000Y-99823000D01*
X167273000Y-98873750D01*
X167527000Y-98873750D01*
X167527000Y-99823000D01*
X168476250Y-99823000D01*
X168635000Y-99664250D01*
X168635000Y-99223690D01*
X168538327Y-98990301D01*
X168359698Y-98811673D01*
X168126309Y-98715000D01*
X167685750Y-98715000D01*
X167527000Y-98873750D01*
X167273000Y-98873750D01*
X167196481Y-98797231D01*
X167354703Y-98731855D01*
X167531235Y-98555631D01*
X167626891Y-98325265D01*
X167627109Y-98075829D01*
X167531855Y-97845297D01*
X167452000Y-97765302D01*
X167452000Y-96134728D01*
X167531235Y-96055631D01*
X167626891Y-95825265D01*
X167627109Y-95575829D01*
X167555284Y-95402000D01*
X170050000Y-95402000D01*
X170222973Y-95367594D01*
X170369612Y-95269612D01*
X173055818Y-92583406D01*
X173950000Y-92583406D01*
X174071179Y-92560605D01*
X174182474Y-92488988D01*
X174257138Y-92379714D01*
X174283406Y-92250000D01*
X174283406Y-91050000D01*
X174260605Y-90928821D01*
X174188988Y-90817526D01*
X174079714Y-90742862D01*
X173950000Y-90716594D01*
X172750000Y-90716594D01*
X172628821Y-90739395D01*
X172517526Y-90811012D01*
X172442862Y-90920286D01*
X172416594Y-91050000D01*
X172416594Y-91944182D01*
X172076456Y-92284320D01*
X172083406Y-92250000D01*
X172083406Y-91050000D01*
X172060605Y-90928821D01*
X171988988Y-90817526D01*
X171879714Y-90742862D01*
X171750000Y-90716594D01*
X170550000Y-90716594D01*
X170428821Y-90739395D01*
X170317526Y-90811012D01*
X170242862Y-90920286D01*
X170216594Y-91050000D01*
X170216594Y-91944182D01*
X169876456Y-92284320D01*
X169883406Y-92250000D01*
X169883406Y-91050000D01*
X169860605Y-90928821D01*
X169788988Y-90817526D01*
X169679714Y-90742862D01*
X169550000Y-90716594D01*
X168350000Y-90716594D01*
X168228821Y-90739395D01*
X168117526Y-90811012D01*
X168042862Y-90920286D01*
X168016594Y-91050000D01*
X168016594Y-91698000D01*
X167434728Y-91698000D01*
X167355631Y-91618765D01*
X167125265Y-91523109D01*
X166875829Y-91522891D01*
X166645297Y-91618145D01*
X166468765Y-91794369D01*
X166384210Y-91998000D01*
X166150183Y-91998000D01*
X166328711Y-91878711D01*
X167980422Y-90227000D01*
X168031082Y-90227000D01*
X168039395Y-90271179D01*
X168111012Y-90382474D01*
X168220286Y-90457138D01*
X168350000Y-90483406D01*
X169550000Y-90483406D01*
X169671179Y-90460605D01*
X169782474Y-90388988D01*
X169857138Y-90279714D01*
X169867813Y-90227000D01*
X170231082Y-90227000D01*
X170239395Y-90271179D01*
X170311012Y-90382474D01*
X170420286Y-90457138D01*
X170550000Y-90483406D01*
X171750000Y-90483406D01*
X171871179Y-90460605D01*
X171982474Y-90388988D01*
X172057138Y-90279714D01*
X172067813Y-90227000D01*
X172431082Y-90227000D01*
X172439395Y-90271179D01*
X172511012Y-90382474D01*
X172620286Y-90457138D01*
X172750000Y-90483406D01*
X173950000Y-90483406D01*
X174071179Y-90460605D01*
X174182474Y-90388988D01*
X174257138Y-90279714D01*
X174283406Y-90150000D01*
X174283406Y-88950000D01*
X174260605Y-88828821D01*
X174188988Y-88717526D01*
X174079714Y-88642862D01*
X173950000Y-88616594D01*
X172750000Y-88616594D01*
X172628821Y-88639395D01*
X172517526Y-88711012D01*
X172442862Y-88820286D01*
X172432187Y-88873000D01*
X172068918Y-88873000D01*
X172060605Y-88828821D01*
X171988988Y-88717526D01*
X171879714Y-88642862D01*
X171750000Y-88616594D01*
X170550000Y-88616594D01*
X170428821Y-88639395D01*
X170317526Y-88711012D01*
X170242862Y-88820286D01*
X170232187Y-88873000D01*
X169868918Y-88873000D01*
X169860605Y-88828821D01*
X169788988Y-88717526D01*
X169679714Y-88642862D01*
X169677000Y-88642312D01*
X169677000Y-83135750D01*
X181265000Y-83135750D01*
X181265000Y-83576310D01*
X181361673Y-83809699D01*
X181540302Y-83988327D01*
X181773691Y-84085000D01*
X182214250Y-84085000D01*
X182373000Y-83926250D01*
X182373000Y-82977000D01*
X181423750Y-82977000D01*
X181265000Y-83135750D01*
X169677000Y-83135750D01*
X169677000Y-81485750D01*
X171865000Y-81485750D01*
X171865000Y-81926309D01*
X171961673Y-82159698D01*
X172140301Y-82338327D01*
X172373690Y-82435000D01*
X172814250Y-82435000D01*
X172973000Y-82276250D01*
X172973000Y-81327000D01*
X173227000Y-81327000D01*
X173227000Y-82276250D01*
X173385750Y-82435000D01*
X173826310Y-82435000D01*
X174059699Y-82338327D01*
X174238327Y-82159698D01*
X174325000Y-81950451D01*
X174411673Y-82159698D01*
X174590301Y-82338327D01*
X174823690Y-82435000D01*
X175264250Y-82435000D01*
X175423000Y-82276250D01*
X175423000Y-81327000D01*
X175677000Y-81327000D01*
X175677000Y-82276250D01*
X175835750Y-82435000D01*
X176276310Y-82435000D01*
X176509699Y-82338327D01*
X176688327Y-82159698D01*
X176775000Y-81950451D01*
X176861673Y-82159698D01*
X177040301Y-82338327D01*
X177273690Y-82435000D01*
X177714250Y-82435000D01*
X177873000Y-82276250D01*
X177873000Y-81327000D01*
X178127000Y-81327000D01*
X178127000Y-82276250D01*
X178285750Y-82435000D01*
X178726310Y-82435000D01*
X178959699Y-82338327D01*
X179138327Y-82159698D01*
X179153242Y-82123690D01*
X181265000Y-82123690D01*
X181265000Y-82564250D01*
X181423750Y-82723000D01*
X182373000Y-82723000D01*
X182373000Y-81773750D01*
X182214250Y-81615000D01*
X181773691Y-81615000D01*
X181540302Y-81711673D01*
X181361673Y-81890301D01*
X181265000Y-82123690D01*
X179153242Y-82123690D01*
X179235000Y-81926309D01*
X179235000Y-81485750D01*
X179076250Y-81327000D01*
X178127000Y-81327000D01*
X177873000Y-81327000D01*
X176923750Y-81327000D01*
X176775000Y-81475750D01*
X176626250Y-81327000D01*
X175677000Y-81327000D01*
X175423000Y-81327000D01*
X174473750Y-81327000D01*
X174325000Y-81475750D01*
X174176250Y-81327000D01*
X173227000Y-81327000D01*
X172973000Y-81327000D01*
X172023750Y-81327000D01*
X171865000Y-81485750D01*
X169677000Y-81485750D01*
X169677000Y-80473691D01*
X171865000Y-80473691D01*
X171865000Y-80914250D01*
X172023750Y-81073000D01*
X172973000Y-81073000D01*
X172973000Y-81053000D01*
X173227000Y-81053000D01*
X173227000Y-81073000D01*
X174176250Y-81073000D01*
X174325000Y-80924250D01*
X174473750Y-81073000D01*
X175423000Y-81073000D01*
X175423000Y-81053000D01*
X175677000Y-81053000D01*
X175677000Y-81073000D01*
X176626250Y-81073000D01*
X176775000Y-80924250D01*
X176923750Y-81073000D01*
X177873000Y-81073000D01*
X177873000Y-81053000D01*
X178127000Y-81053000D01*
X178127000Y-81073000D01*
X179076250Y-81073000D01*
X179235000Y-80914250D01*
X179235000Y-80473691D01*
X179138327Y-80240302D01*
X178959699Y-80061673D01*
X178766305Y-79981567D01*
X178832474Y-79938988D01*
X178907138Y-79829714D01*
X178933406Y-79700000D01*
X178933406Y-78500000D01*
X178910605Y-78378821D01*
X178838988Y-78267526D01*
X178729714Y-78192862D01*
X178600000Y-78166594D01*
X178452000Y-78166594D01*
X178452000Y-77734728D01*
X178531235Y-77655631D01*
X178626891Y-77425265D01*
X178627109Y-77175829D01*
X178531855Y-76945297D01*
X178355631Y-76768765D01*
X178125265Y-76673109D01*
X177875829Y-76672891D01*
X177645297Y-76768145D01*
X177468765Y-76944369D01*
X177373109Y-77174735D01*
X177372891Y-77424171D01*
X177468145Y-77654703D01*
X177548000Y-77734698D01*
X177548000Y-78166594D01*
X177400000Y-78166594D01*
X177278821Y-78189395D01*
X177167526Y-78261012D01*
X177092862Y-78370286D01*
X177066594Y-78500000D01*
X177066594Y-79700000D01*
X177089395Y-79821179D01*
X177161012Y-79932474D01*
X177233176Y-79981782D01*
X177040301Y-80061673D01*
X176861673Y-80240302D01*
X176775000Y-80449549D01*
X176688327Y-80240302D01*
X176509699Y-80061673D01*
X176316305Y-79981567D01*
X176382474Y-79938988D01*
X176457138Y-79829714D01*
X176483406Y-79700000D01*
X176483406Y-78500000D01*
X176460605Y-78378821D01*
X176388988Y-78267526D01*
X176279714Y-78192862D01*
X176150000Y-78166594D01*
X176002000Y-78166594D01*
X176002000Y-77784728D01*
X176081235Y-77705631D01*
X176176891Y-77475265D01*
X176177109Y-77225829D01*
X176081855Y-76995297D01*
X175905631Y-76818765D01*
X175675265Y-76723109D01*
X175425829Y-76722891D01*
X175195297Y-76818145D01*
X175018765Y-76994369D01*
X174923109Y-77224735D01*
X174922891Y-77474171D01*
X175018145Y-77704703D01*
X175098000Y-77784698D01*
X175098000Y-78166594D01*
X174950000Y-78166594D01*
X174828821Y-78189395D01*
X174717526Y-78261012D01*
X174642862Y-78370286D01*
X174616594Y-78500000D01*
X174616594Y-79700000D01*
X174639395Y-79821179D01*
X174711012Y-79932474D01*
X174783176Y-79981782D01*
X174590301Y-80061673D01*
X174411673Y-80240302D01*
X174325000Y-80449549D01*
X174238327Y-80240302D01*
X174059699Y-80061673D01*
X173866305Y-79981567D01*
X173932474Y-79938988D01*
X174007138Y-79829714D01*
X174033406Y-79700000D01*
X174033406Y-78500000D01*
X174010605Y-78378821D01*
X173938988Y-78267526D01*
X173829714Y-78192862D01*
X173700000Y-78166594D01*
X173552000Y-78166594D01*
X173552000Y-77784728D01*
X173631235Y-77705631D01*
X173726891Y-77475265D01*
X173727109Y-77225829D01*
X173631855Y-76995297D01*
X173455631Y-76818765D01*
X173225265Y-76723109D01*
X172975829Y-76722891D01*
X172745297Y-76818145D01*
X172568765Y-76994369D01*
X172473109Y-77224735D01*
X172472891Y-77474171D01*
X172568145Y-77704703D01*
X172648000Y-77784698D01*
X172648000Y-78166594D01*
X172500000Y-78166594D01*
X172378821Y-78189395D01*
X172267526Y-78261012D01*
X172192862Y-78370286D01*
X172166594Y-78500000D01*
X172166594Y-79700000D01*
X172189395Y-79821179D01*
X172261012Y-79932474D01*
X172333176Y-79981782D01*
X172140301Y-80061673D01*
X171961673Y-80240302D01*
X171865000Y-80473691D01*
X169677000Y-80473691D01*
X169677000Y-80380422D01*
X170278711Y-79778711D01*
X170425466Y-79559076D01*
X170477000Y-79300000D01*
X170425466Y-79040924D01*
X170278711Y-78821289D01*
X170059076Y-78674534D01*
X169800000Y-78623000D01*
X169540924Y-78674534D01*
X169321289Y-78821289D01*
X168521289Y-79621289D01*
X168374534Y-79840923D01*
X168323000Y-80100000D01*
X168323000Y-88621674D01*
X168228821Y-88639395D01*
X168117526Y-88711012D01*
X168042862Y-88820286D01*
X168032187Y-88873000D01*
X167700000Y-88873000D01*
X167440923Y-88924534D01*
X167402811Y-88950000D01*
X167221289Y-89071289D01*
X166427000Y-89865578D01*
X166427000Y-73402000D01*
X192598000Y-73402000D01*
X192598000Y-122598000D01*
G36*
X138573000Y-87250000D02*
X138583006Y-87299410D01*
X138611447Y-87341035D01*
X138653841Y-87368315D01*
X138700000Y-87377000D01*
X156573000Y-87377000D01*
X156573000Y-88748000D01*
X155434728Y-88748000D01*
X155355631Y-88668765D01*
X155125265Y-88573109D01*
X154875829Y-88572891D01*
X154645297Y-88668145D01*
X154468765Y-88844369D01*
X154373109Y-89074735D01*
X154372891Y-89324171D01*
X154468145Y-89554703D01*
X154644369Y-89731235D01*
X154874735Y-89826891D01*
X155124171Y-89827109D01*
X155354703Y-89731855D01*
X155434698Y-89652000D01*
X156573000Y-89652000D01*
X156573000Y-90700000D01*
X156577658Y-90723000D01*
X153318918Y-90723000D01*
X153310605Y-90678821D01*
X153238988Y-90567526D01*
X153166824Y-90518218D01*
X153359699Y-90438327D01*
X153538327Y-90259698D01*
X153635000Y-90026309D01*
X153635000Y-89585750D01*
X153476250Y-89427000D01*
X152527000Y-89427000D01*
X152527000Y-89447000D01*
X152273000Y-89447000D01*
X152273000Y-89427000D01*
X151323750Y-89427000D01*
X151165000Y-89585750D01*
X151165000Y-90026309D01*
X151261673Y-90259698D01*
X151440301Y-90438327D01*
X151633695Y-90518433D01*
X151567526Y-90561012D01*
X151492862Y-90670286D01*
X151482187Y-90723000D01*
X149668918Y-90723000D01*
X149660605Y-90678821D01*
X149588988Y-90567526D01*
X149516824Y-90518218D01*
X149709699Y-90438327D01*
X149888327Y-90259698D01*
X149985000Y-90026309D01*
X149985000Y-89585750D01*
X149826250Y-89427000D01*
X148877000Y-89427000D01*
X148877000Y-89447000D01*
X148623000Y-89447000D01*
X148623000Y-89427000D01*
X146777000Y-89427000D01*
X146777000Y-89447000D01*
X146523000Y-89447000D01*
X146523000Y-89427000D01*
X145573750Y-89427000D01*
X145415000Y-89585750D01*
X145415000Y-90026309D01*
X145511673Y-90259698D01*
X145690301Y-90438327D01*
X145883695Y-90518433D01*
X145817526Y-90561012D01*
X145742862Y-90670286D01*
X145732187Y-90723000D01*
X139818918Y-90723000D01*
X139810605Y-90678821D01*
X139738988Y-90567526D01*
X139629714Y-90492862D01*
X139500000Y-90466594D01*
X138300000Y-90466594D01*
X138178821Y-90489395D01*
X138067526Y-90561012D01*
X137992862Y-90670286D01*
X137982187Y-90723000D01*
X134680422Y-90723000D01*
X134277000Y-90319578D01*
X134277000Y-89118918D01*
X134321179Y-89110605D01*
X134432474Y-89038988D01*
X134481782Y-88966824D01*
X134561673Y-89159699D01*
X134740302Y-89338327D01*
X134973691Y-89435000D01*
X135414250Y-89435000D01*
X135573000Y-89276250D01*
X135573000Y-88327000D01*
X135827000Y-88327000D01*
X135827000Y-89276250D01*
X135985750Y-89435000D01*
X136426309Y-89435000D01*
X136659698Y-89338327D01*
X136838327Y-89159699D01*
X136935000Y-88926310D01*
X136935000Y-88573691D01*
X145415000Y-88573691D01*
X145415000Y-89014250D01*
X145573750Y-89173000D01*
X146523000Y-89173000D01*
X146523000Y-88223750D01*
X146777000Y-88223750D01*
X146777000Y-89173000D01*
X148623000Y-89173000D01*
X148623000Y-88223750D01*
X148877000Y-88223750D01*
X148877000Y-89173000D01*
X149826250Y-89173000D01*
X149985000Y-89014250D01*
X149985000Y-88573691D01*
X151165000Y-88573691D01*
X151165000Y-89014250D01*
X151323750Y-89173000D01*
X152273000Y-89173000D01*
X152273000Y-88223750D01*
X152527000Y-88223750D01*
X152527000Y-89173000D01*
X153476250Y-89173000D01*
X153635000Y-89014250D01*
X153635000Y-88573691D01*
X153538327Y-88340302D01*
X153359699Y-88161673D01*
X153126310Y-88065000D01*
X152685750Y-88065000D01*
X152527000Y-88223750D01*
X152273000Y-88223750D01*
X152114250Y-88065000D01*
X151673690Y-88065000D01*
X151440301Y-88161673D01*
X151261673Y-88340302D01*
X151165000Y-88573691D01*
X149985000Y-88573691D01*
X149888327Y-88340302D01*
X149709699Y-88161673D01*
X149476310Y-88065000D01*
X149035750Y-88065000D01*
X148877000Y-88223750D01*
X148623000Y-88223750D01*
X148464250Y-88065000D01*
X148023690Y-88065000D01*
X147790301Y-88161673D01*
X147700000Y-88251975D01*
X147609699Y-88161673D01*
X147376310Y-88065000D01*
X146935750Y-88065000D01*
X146777000Y-88223750D01*
X146523000Y-88223750D01*
X146364250Y-88065000D01*
X145923690Y-88065000D01*
X145690301Y-88161673D01*
X145511673Y-88340302D01*
X145415000Y-88573691D01*
X136935000Y-88573691D01*
X136935000Y-88485750D01*
X136776250Y-88327000D01*
X135827000Y-88327000D01*
X135573000Y-88327000D01*
X135553000Y-88327000D01*
X135553000Y-88073000D01*
X135573000Y-88073000D01*
X135573000Y-88053000D01*
X135827000Y-88053000D01*
X135827000Y-88073000D01*
X136776250Y-88073000D01*
X136935000Y-87914250D01*
X136935000Y-87473690D01*
X136838327Y-87240301D01*
X136659698Y-87061673D01*
X136426309Y-86965000D01*
X136249571Y-86965000D01*
X136378711Y-86878711D01*
X136525466Y-86659077D01*
X136577000Y-86400000D01*
X136530715Y-86167311D01*
X136688327Y-86009698D01*
X136785000Y-85776309D01*
X136785000Y-85708750D01*
X136626250Y-85550000D01*
X136025000Y-85550000D01*
X136025000Y-85597000D01*
X135775000Y-85597000D01*
X135775000Y-85550000D01*
X135753000Y-85550000D01*
X135753000Y-85350000D01*
X135775000Y-85350000D01*
X135775000Y-85303000D01*
X136025000Y-85303000D01*
X136025000Y-85350000D01*
X136626250Y-85350000D01*
X136785000Y-85191250D01*
X136785000Y-85123691D01*
X136688327Y-84890302D01*
X136530715Y-84732689D01*
X136577000Y-84500000D01*
X136577000Y-83658406D01*
X136655000Y-83658406D01*
X136776179Y-83635605D01*
X136887474Y-83563988D01*
X136962138Y-83454714D01*
X136988406Y-83325000D01*
X136988406Y-80275000D01*
X136965605Y-80153821D01*
X136893988Y-80042526D01*
X136784714Y-79967862D01*
X136655000Y-79941594D01*
X136577000Y-79941594D01*
X136577000Y-77968918D01*
X136621179Y-77960605D01*
X136732474Y-77888988D01*
X136807138Y-77779714D01*
X136833406Y-77650000D01*
X136833406Y-76450000D01*
X136810605Y-76328821D01*
X136738988Y-76217526D01*
X136629714Y-76142862D01*
X136500000Y-76116594D01*
X135300000Y-76116594D01*
X135178821Y-76139395D01*
X135067526Y-76211012D01*
X135018218Y-76283176D01*
X134938327Y-76090301D01*
X134759698Y-75911673D01*
X134526309Y-75815000D01*
X134085750Y-75815000D01*
X133927000Y-75973750D01*
X133927000Y-76923000D01*
X133947000Y-76923000D01*
X133947000Y-77177000D01*
X133927000Y-77177000D01*
X133927000Y-78126250D01*
X134085750Y-78285000D01*
X134526309Y-78285000D01*
X134759698Y-78188327D01*
X134938327Y-78009699D01*
X135018433Y-77816305D01*
X135061012Y-77882474D01*
X135170286Y-77957138D01*
X135223000Y-77967813D01*
X135223000Y-79941594D01*
X135135000Y-79941594D01*
X135013821Y-79964395D01*
X134902526Y-80036012D01*
X134827862Y-80145286D01*
X134801594Y-80275000D01*
X134801594Y-83325000D01*
X134824395Y-83446179D01*
X134896012Y-83557474D01*
X135005286Y-83632138D01*
X135051151Y-83641426D01*
X134277000Y-84415578D01*
X134277000Y-83658406D01*
X134365000Y-83658406D01*
X134486179Y-83635605D01*
X134597474Y-83563988D01*
X134672138Y-83454714D01*
X134698406Y-83325000D01*
X134698406Y-80275000D01*
X134675605Y-80153821D01*
X134603988Y-80042526D01*
X134494714Y-79967862D01*
X134365000Y-79941594D01*
X132845000Y-79941594D01*
X132723821Y-79964395D01*
X132612526Y-80036012D01*
X132537862Y-80145286D01*
X132511594Y-80275000D01*
X132511594Y-83325000D01*
X132534395Y-83446179D01*
X132606012Y-83557474D01*
X132715286Y-83632138D01*
X132845000Y-83658406D01*
X132923000Y-83658406D01*
X132923000Y-84500000D01*
X132974534Y-84759077D01*
X132983837Y-84773000D01*
X130600423Y-84773000D01*
X130098406Y-84270983D01*
X130098406Y-80960000D01*
X130075605Y-80838821D01*
X130003988Y-80727526D01*
X129894714Y-80652862D01*
X129765000Y-80626594D01*
X129008529Y-80626594D01*
X128995467Y-80560924D01*
X128848712Y-80341289D01*
X127778711Y-79271289D01*
X127559076Y-79124534D01*
X127300000Y-79073000D01*
X127040924Y-79124534D01*
X126821289Y-79271289D01*
X126674534Y-79490924D01*
X126623000Y-79750000D01*
X126674534Y-80009076D01*
X126821289Y-80228711D01*
X127219172Y-80626594D01*
X126975000Y-80626594D01*
X126853821Y-80649395D01*
X126742526Y-80721012D01*
X126667862Y-80830286D01*
X126641594Y-80960000D01*
X126641594Y-86040000D01*
X126664395Y-86161179D01*
X126736012Y-86272474D01*
X126845286Y-86347138D01*
X126975000Y-86373406D01*
X129765000Y-86373406D01*
X129886179Y-86350605D01*
X129997474Y-86278988D01*
X130072138Y-86169714D01*
X130090051Y-86081260D01*
X130320000Y-86127000D01*
X132983837Y-86127000D01*
X132974534Y-86140923D01*
X132923000Y-86400000D01*
X132923000Y-87281082D01*
X132878821Y-87289395D01*
X132767526Y-87361012D01*
X132692862Y-87470286D01*
X132666594Y-87600000D01*
X132666594Y-88800000D01*
X132689395Y-88921179D01*
X132761012Y-89032474D01*
X132870286Y-89107138D01*
X132923000Y-89117813D01*
X132923000Y-90600000D01*
X132974534Y-90859077D01*
X133015433Y-90920286D01*
X133121289Y-91078711D01*
X134973000Y-92930422D01*
X134973000Y-94381082D01*
X134928821Y-94389395D01*
X134817526Y-94461012D01*
X134768218Y-94533176D01*
X134688327Y-94340301D01*
X134509698Y-94161673D01*
X134276309Y-94065000D01*
X133835750Y-94065000D01*
X133677000Y-94223750D01*
X133677000Y-95173000D01*
X133697000Y-95173000D01*
X133697000Y-95427000D01*
X133677000Y-95427000D01*
X133677000Y-96376250D01*
X133835750Y-96535000D01*
X134276309Y-96535000D01*
X134509698Y-96438327D01*
X134688327Y-96259699D01*
X134768433Y-96066305D01*
X134811012Y-96132474D01*
X134920286Y-96207138D01*
X134973000Y-96217813D01*
X134973000Y-96466594D01*
X134950000Y-96466594D01*
X134828821Y-96489395D01*
X134717526Y-96561012D01*
X134642862Y-96670286D01*
X134616594Y-96800000D01*
X134616594Y-98600000D01*
X134639395Y-98721179D01*
X134711012Y-98832474D01*
X134820286Y-98907138D01*
X134950000Y-98933406D01*
X135023000Y-98933406D01*
X135023000Y-99193141D01*
X134917526Y-99261012D01*
X134868218Y-99333176D01*
X134788327Y-99140301D01*
X134609698Y-98961673D01*
X134376309Y-98865000D01*
X133935750Y-98865000D01*
X133777000Y-99023750D01*
X133777000Y-99973000D01*
X133797000Y-99973000D01*
X133797000Y-100227000D01*
X133777000Y-100227000D01*
X133777000Y-101176250D01*
X133935750Y-101335000D01*
X134376309Y-101335000D01*
X134609698Y-101238327D01*
X134788327Y-101059699D01*
X134868433Y-100866305D01*
X134911012Y-100932474D01*
X135020286Y-101007138D01*
X135073000Y-101017813D01*
X135073000Y-101269578D01*
X130369578Y-105973000D01*
X125100000Y-105973000D01*
X124840923Y-106024534D01*
X124765792Y-106074735D01*
X124621288Y-106171289D01*
X122521292Y-108271286D01*
X122521289Y-108271288D01*
X122471289Y-108321289D01*
X122324534Y-108540923D01*
X122273000Y-108800000D01*
X122273000Y-111800000D01*
X122324534Y-112059077D01*
X122398842Y-112170286D01*
X122471289Y-112278711D01*
X129271289Y-119078711D01*
X129490923Y-119225466D01*
X129750000Y-119277000D01*
X130531082Y-119277000D01*
X130539395Y-119321179D01*
X130611012Y-119432474D01*
X130683176Y-119481782D01*
X130490301Y-119561673D01*
X130311673Y-119740302D01*
X130215000Y-119973691D01*
X130215000Y-120414250D01*
X130373750Y-120573000D01*
X131323000Y-120573000D01*
X131323000Y-120553000D01*
X131577000Y-120553000D01*
X131577000Y-120573000D01*
X132526250Y-120573000D01*
X132685000Y-120414250D01*
X132685000Y-119973691D01*
X132588327Y-119740302D01*
X132409699Y-119561673D01*
X132216305Y-119481567D01*
X132282474Y-119438988D01*
X132357138Y-119329714D01*
X132367813Y-119277000D01*
X133131082Y-119277000D01*
X133139395Y-119321179D01*
X133211012Y-119432474D01*
X133283176Y-119481782D01*
X133090301Y-119561673D01*
X132911673Y-119740302D01*
X132815000Y-119973691D01*
X132815000Y-120414250D01*
X132973750Y-120573000D01*
X133923000Y-120573000D01*
X133923000Y-120553000D01*
X134177000Y-120553000D01*
X134177000Y-120573000D01*
X135126250Y-120573000D01*
X135175560Y-120523690D01*
X137615000Y-120523690D01*
X137615000Y-121114250D01*
X137773750Y-121273000D01*
X138973000Y-121273000D01*
X138973000Y-120173750D01*
X139227000Y-120173750D01*
X139227000Y-121273000D01*
X140426250Y-121273000D01*
X140585000Y-121114250D01*
X140585000Y-120523690D01*
X140488327Y-120290301D01*
X140309698Y-120111673D01*
X140076309Y-120015000D01*
X139385750Y-120015000D01*
X139227000Y-120173750D01*
X138973000Y-120173750D01*
X138814250Y-120015000D01*
X138123691Y-120015000D01*
X137890302Y-120111673D01*
X137711673Y-120290301D01*
X137615000Y-120523690D01*
X135175560Y-120523690D01*
X135285000Y-120414250D01*
X135285000Y-119973691D01*
X135188327Y-119740302D01*
X135009699Y-119561673D01*
X134816305Y-119481567D01*
X134882474Y-119438988D01*
X134957138Y-119329714D01*
X134983406Y-119200000D01*
X134983406Y-119177000D01*
X152973000Y-119177000D01*
X152973000Y-120000000D01*
X153024534Y-120259077D01*
X153171289Y-120478711D01*
X153390923Y-120625466D01*
X153650000Y-120677000D01*
X153909077Y-120625466D01*
X154061395Y-120523690D01*
X155415000Y-120523690D01*
X155415000Y-121114250D01*
X155573750Y-121273000D01*
X156773000Y-121273000D01*
X156773000Y-120173750D01*
X156614250Y-120015000D01*
X155923691Y-120015000D01*
X155690302Y-120111673D01*
X155511673Y-120290301D01*
X155415000Y-120523690D01*
X154061395Y-120523690D01*
X154128711Y-120478711D01*
X154275466Y-120259077D01*
X154327000Y-120000000D01*
X154327000Y-118866224D01*
X154680388Y-119219612D01*
X154827027Y-119317594D01*
X155000000Y-119352000D01*
X158616594Y-119352000D01*
X158616594Y-119500000D01*
X158639395Y-119621179D01*
X158711012Y-119732474D01*
X158783176Y-119781782D01*
X158590301Y-119861673D01*
X158411673Y-120040302D01*
X158315000Y-120273691D01*
X158315000Y-120354695D01*
X158288327Y-120290301D01*
X158109698Y-120111673D01*
X157876309Y-120015000D01*
X157185750Y-120015000D01*
X157027000Y-120173750D01*
X157027000Y-121273000D01*
X157047000Y-121273000D01*
X157047000Y-121527000D01*
X157027000Y-121527000D01*
X157027000Y-121547000D01*
X156773000Y-121547000D01*
X156773000Y-121527000D01*
X155573750Y-121527000D01*
X155415000Y-121685750D01*
X155415000Y-122276310D01*
X155511673Y-122509699D01*
X155599974Y-122598000D01*
X140400026Y-122598000D01*
X140488327Y-122509699D01*
X140585000Y-122276310D01*
X140585000Y-121685750D01*
X140426250Y-121527000D01*
X139227000Y-121527000D01*
X139227000Y-121547000D01*
X138973000Y-121547000D01*
X138973000Y-121527000D01*
X137773750Y-121527000D01*
X137615000Y-121685750D01*
X137615000Y-122276310D01*
X137711673Y-122509699D01*
X137799974Y-122598000D01*
X103402000Y-122598000D01*
X103402000Y-120985750D01*
X130215000Y-120985750D01*
X130215000Y-121426309D01*
X130311673Y-121659698D01*
X130490301Y-121838327D01*
X130723690Y-121935000D01*
X131164250Y-121935000D01*
X131323000Y-121776250D01*
X131323000Y-120827000D01*
X131577000Y-120827000D01*
X131577000Y-121776250D01*
X131735750Y-121935000D01*
X132176310Y-121935000D01*
X132409699Y-121838327D01*
X132588327Y-121659698D01*
X132685000Y-121426309D01*
X132685000Y-120985750D01*
X132815000Y-120985750D01*
X132815000Y-121426309D01*
X132911673Y-121659698D01*
X133090301Y-121838327D01*
X133323690Y-121935000D01*
X133764250Y-121935000D01*
X133923000Y-121776250D01*
X133923000Y-120827000D01*
X134177000Y-120827000D01*
X134177000Y-121776250D01*
X134335750Y-121935000D01*
X134776310Y-121935000D01*
X135009699Y-121838327D01*
X135188327Y-121659698D01*
X135285000Y-121426309D01*
X135285000Y-120985750D01*
X135126250Y-120827000D01*
X134177000Y-120827000D01*
X133923000Y-120827000D01*
X132973750Y-120827000D01*
X132815000Y-120985750D01*
X132685000Y-120985750D01*
X132526250Y-120827000D01*
X131577000Y-120827000D01*
X131323000Y-120827000D01*
X130373750Y-120827000D01*
X130215000Y-120985750D01*
X103402000Y-120985750D01*
X103402000Y-104174171D01*
X119372891Y-104174171D01*
X119468145Y-104404703D01*
X119548000Y-104484698D01*
X119548000Y-106765272D01*
X119468765Y-106844369D01*
X119373109Y-107074735D01*
X119372891Y-107324171D01*
X119468145Y-107554703D01*
X119644369Y-107731235D01*
X119874735Y-107826891D01*
X120124171Y-107827109D01*
X120354703Y-107731855D01*
X120531235Y-107555631D01*
X120626891Y-107325265D01*
X120627109Y-107075829D01*
X120531855Y-106845297D01*
X120452000Y-106765302D01*
X120452000Y-104484728D01*
X120531235Y-104405631D01*
X120626891Y-104175265D01*
X120627109Y-103925829D01*
X120531855Y-103695297D01*
X120355631Y-103518765D01*
X120125265Y-103423109D01*
X119875829Y-103422891D01*
X119645297Y-103518145D01*
X119468765Y-103694369D01*
X119373109Y-103924735D01*
X119372891Y-104174171D01*
X103402000Y-104174171D01*
X103402000Y-96874171D01*
X128372891Y-96874171D01*
X128468145Y-97104703D01*
X128548000Y-97184698D01*
X128548000Y-99365272D01*
X128468765Y-99444369D01*
X128373109Y-99674735D01*
X128372891Y-99924171D01*
X128468145Y-100154703D01*
X128644369Y-100331235D01*
X128874735Y-100426891D01*
X129124171Y-100427109D01*
X129224267Y-100385750D01*
X132415000Y-100385750D01*
X132415000Y-100826310D01*
X132511673Y-101059699D01*
X132690302Y-101238327D01*
X132923691Y-101335000D01*
X133364250Y-101335000D01*
X133523000Y-101176250D01*
X133523000Y-100227000D01*
X132573750Y-100227000D01*
X132415000Y-100385750D01*
X129224267Y-100385750D01*
X129354703Y-100331855D01*
X129531235Y-100155631D01*
X129626891Y-99925265D01*
X129627109Y-99675829D01*
X129531855Y-99445297D01*
X129452000Y-99365302D01*
X129452000Y-97985750D01*
X130715000Y-97985750D01*
X130715000Y-98726310D01*
X130811673Y-98959699D01*
X130990302Y-99138327D01*
X131223691Y-99235000D01*
X131814250Y-99235000D01*
X131973000Y-99076250D01*
X131973000Y-97827000D01*
X132227000Y-97827000D01*
X132227000Y-99076250D01*
X132385750Y-99235000D01*
X132472447Y-99235000D01*
X132415000Y-99373690D01*
X132415000Y-99814250D01*
X132573750Y-99973000D01*
X133523000Y-99973000D01*
X133523000Y-99023750D01*
X133409012Y-98909762D01*
X133485000Y-98726310D01*
X133485000Y-97985750D01*
X133326250Y-97827000D01*
X132227000Y-97827000D01*
X131973000Y-97827000D01*
X130873750Y-97827000D01*
X130715000Y-97985750D01*
X129452000Y-97985750D01*
X129452000Y-97184728D01*
X129531235Y-97105631D01*
X129626891Y-96875265D01*
X129627067Y-96673690D01*
X130715000Y-96673690D01*
X130715000Y-97414250D01*
X130873750Y-97573000D01*
X131973000Y-97573000D01*
X131973000Y-96323750D01*
X132227000Y-96323750D01*
X132227000Y-97573000D01*
X133326250Y-97573000D01*
X133485000Y-97414250D01*
X133485000Y-96673690D01*
X133388327Y-96440301D01*
X133373638Y-96425612D01*
X133423000Y-96376250D01*
X133423000Y-95427000D01*
X132473750Y-95427000D01*
X132315000Y-95585750D01*
X132315000Y-96026310D01*
X132376344Y-96174406D01*
X132227000Y-96323750D01*
X131973000Y-96323750D01*
X131814250Y-96165000D01*
X131223691Y-96165000D01*
X130990302Y-96261673D01*
X130811673Y-96440301D01*
X130715000Y-96673690D01*
X129627067Y-96673690D01*
X129627109Y-96625829D01*
X129531855Y-96395297D01*
X129355631Y-96218765D01*
X129125265Y-96123109D01*
X128875829Y-96122891D01*
X128645297Y-96218145D01*
X128468765Y-96394369D01*
X128373109Y-96624735D01*
X128372891Y-96874171D01*
X103402000Y-96874171D01*
X103402000Y-94573690D01*
X132315000Y-94573690D01*
X132315000Y-95014250D01*
X132473750Y-95173000D01*
X133423000Y-95173000D01*
X133423000Y-94223750D01*
X133264250Y-94065000D01*
X132823691Y-94065000D01*
X132590302Y-94161673D01*
X132411673Y-94340301D01*
X132315000Y-94573690D01*
X103402000Y-94573690D01*
X103402000Y-80960000D01*
X104671594Y-80960000D01*
X104671594Y-86040000D01*
X104673000Y-86047472D01*
X104673000Y-87100000D01*
X104724534Y-87359077D01*
X104844747Y-87538988D01*
X104871289Y-87578711D01*
X106267800Y-88975222D01*
X106274534Y-89009077D01*
X106421289Y-89228711D01*
X106640923Y-89375466D01*
X106900000Y-89427000D01*
X107950000Y-89427000D01*
X108209077Y-89375466D01*
X108428711Y-89228711D01*
X108575466Y-89009077D01*
X108627000Y-88750000D01*
X108575466Y-88490923D01*
X108428711Y-88271289D01*
X108209077Y-88124534D01*
X107950000Y-88073000D01*
X107280422Y-88073000D01*
X106027000Y-86819578D01*
X106027000Y-86373406D01*
X107795000Y-86373406D01*
X107916179Y-86350605D01*
X108027474Y-86278988D01*
X108102138Y-86169714D01*
X108128406Y-86040000D01*
X108128406Y-80960000D01*
X108105605Y-80838821D01*
X108033988Y-80727526D01*
X107924714Y-80652862D01*
X107795000Y-80626594D01*
X105005000Y-80626594D01*
X104883821Y-80649395D01*
X104772526Y-80721012D01*
X104697862Y-80830286D01*
X104671594Y-80960000D01*
X103402000Y-80960000D01*
X103402000Y-79300000D01*
X105923000Y-79300000D01*
X105974534Y-79559077D01*
X106121289Y-79778711D01*
X106340923Y-79925466D01*
X106600000Y-79977000D01*
X108867857Y-79977000D01*
X108169603Y-81658582D01*
X108166403Y-85325331D01*
X109566651Y-88714190D01*
X112157172Y-91309236D01*
X115543582Y-92715397D01*
X119210331Y-92718597D01*
X122599190Y-91318349D01*
X125194236Y-88727828D01*
X126600397Y-85341418D01*
X126603597Y-81674669D01*
X125203349Y-78285810D01*
X124254946Y-77335750D01*
X132565000Y-77335750D01*
X132565000Y-77776310D01*
X132661673Y-78009699D01*
X132840302Y-78188327D01*
X133073691Y-78285000D01*
X133514250Y-78285000D01*
X133673000Y-78126250D01*
X133673000Y-77177000D01*
X132723750Y-77177000D01*
X132565000Y-77335750D01*
X124254946Y-77335750D01*
X123244651Y-76323690D01*
X132565000Y-76323690D01*
X132565000Y-76764250D01*
X132723750Y-76923000D01*
X133673000Y-76923000D01*
X133673000Y-75973750D01*
X133514250Y-75815000D01*
X133073691Y-75815000D01*
X132840302Y-75911673D01*
X132661673Y-76090301D01*
X132565000Y-76323690D01*
X123244651Y-76323690D01*
X122612828Y-75690764D01*
X119226418Y-74284603D01*
X115559669Y-74281403D01*
X112170810Y-75681651D01*
X109575764Y-78272172D01*
X109430087Y-78623000D01*
X106600000Y-78623000D01*
X106340923Y-78674534D01*
X106121289Y-78821289D01*
X105974534Y-79040923D01*
X105923000Y-79300000D01*
X103402000Y-79300000D01*
X103402000Y-75503877D01*
X105872866Y-75503877D01*
X105990908Y-75789560D01*
X106209290Y-76008324D01*
X106494767Y-76126865D01*
X106803877Y-76127134D01*
X107089560Y-76009092D01*
X107308324Y-75790710D01*
X107426865Y-75505233D01*
X107426866Y-75503877D01*
X108872866Y-75503877D01*
X108990908Y-75789560D01*
X109209290Y-76008324D01*
X109494767Y-76126865D01*
X109803877Y-76127134D01*
X110089560Y-76009092D01*
X110308324Y-75790710D01*
X110426865Y-75505233D01*
X110427134Y-75196123D01*
X110309092Y-74910440D01*
X110090710Y-74691676D01*
X109805233Y-74573135D01*
X109496123Y-74572866D01*
X109210440Y-74690908D01*
X108991676Y-74909290D01*
X108873135Y-75194767D01*
X108872866Y-75503877D01*
X107426866Y-75503877D01*
X107427134Y-75196123D01*
X107309092Y-74910440D01*
X107090710Y-74691676D01*
X106805233Y-74573135D01*
X106496123Y-74572866D01*
X106210440Y-74690908D01*
X105991676Y-74909290D01*
X105873135Y-75194767D01*
X105872866Y-75503877D01*
X103402000Y-75503877D01*
X103402000Y-73402000D01*
X138573000Y-73402000D01*
X138573000Y-87250000D01*
X138573000Y-87250000D01*
G37*
X138573000Y-87250000D02*
X138583006Y-87299410D01*
X138611447Y-87341035D01*
X138653841Y-87368315D01*
X138700000Y-87377000D01*
X156573000Y-87377000D01*
X156573000Y-88748000D01*
X155434728Y-88748000D01*
X155355631Y-88668765D01*
X155125265Y-88573109D01*
X154875829Y-88572891D01*
X154645297Y-88668145D01*
X154468765Y-88844369D01*
X154373109Y-89074735D01*
X154372891Y-89324171D01*
X154468145Y-89554703D01*
X154644369Y-89731235D01*
X154874735Y-89826891D01*
X155124171Y-89827109D01*
X155354703Y-89731855D01*
X155434698Y-89652000D01*
X156573000Y-89652000D01*
X156573000Y-90700000D01*
X156577658Y-90723000D01*
X153318918Y-90723000D01*
X153310605Y-90678821D01*
X153238988Y-90567526D01*
X153166824Y-90518218D01*
X153359699Y-90438327D01*
X153538327Y-90259698D01*
X153635000Y-90026309D01*
X153635000Y-89585750D01*
X153476250Y-89427000D01*
X152527000Y-89427000D01*
X152527000Y-89447000D01*
X152273000Y-89447000D01*
X152273000Y-89427000D01*
X151323750Y-89427000D01*
X151165000Y-89585750D01*
X151165000Y-90026309D01*
X151261673Y-90259698D01*
X151440301Y-90438327D01*
X151633695Y-90518433D01*
X151567526Y-90561012D01*
X151492862Y-90670286D01*
X151482187Y-90723000D01*
X149668918Y-90723000D01*
X149660605Y-90678821D01*
X149588988Y-90567526D01*
X149516824Y-90518218D01*
X149709699Y-90438327D01*
X149888327Y-90259698D01*
X149985000Y-90026309D01*
X149985000Y-89585750D01*
X149826250Y-89427000D01*
X148877000Y-89427000D01*
X148877000Y-89447000D01*
X148623000Y-89447000D01*
X148623000Y-89427000D01*
X146777000Y-89427000D01*
X146777000Y-89447000D01*
X146523000Y-89447000D01*
X146523000Y-89427000D01*
X145573750Y-89427000D01*
X145415000Y-89585750D01*
X145415000Y-90026309D01*
X145511673Y-90259698D01*
X145690301Y-90438327D01*
X145883695Y-90518433D01*
X145817526Y-90561012D01*
X145742862Y-90670286D01*
X145732187Y-90723000D01*
X139818918Y-90723000D01*
X139810605Y-90678821D01*
X139738988Y-90567526D01*
X139629714Y-90492862D01*
X139500000Y-90466594D01*
X138300000Y-90466594D01*
X138178821Y-90489395D01*
X138067526Y-90561012D01*
X137992862Y-90670286D01*
X137982187Y-90723000D01*
X134680422Y-90723000D01*
X134277000Y-90319578D01*
X134277000Y-89118918D01*
X134321179Y-89110605D01*
X134432474Y-89038988D01*
X134481782Y-88966824D01*
X134561673Y-89159699D01*
X134740302Y-89338327D01*
X134973691Y-89435000D01*
X135414250Y-89435000D01*
X135573000Y-89276250D01*
X135573000Y-88327000D01*
X135827000Y-88327000D01*
X135827000Y-89276250D01*
X135985750Y-89435000D01*
X136426309Y-89435000D01*
X136659698Y-89338327D01*
X136838327Y-89159699D01*
X136935000Y-88926310D01*
X136935000Y-88573691D01*
X145415000Y-88573691D01*
X145415000Y-89014250D01*
X145573750Y-89173000D01*
X146523000Y-89173000D01*
X146523000Y-88223750D01*
X146777000Y-88223750D01*
X146777000Y-89173000D01*
X148623000Y-89173000D01*
X148623000Y-88223750D01*
X148877000Y-88223750D01*
X148877000Y-89173000D01*
X149826250Y-89173000D01*
X149985000Y-89014250D01*
X149985000Y-88573691D01*
X151165000Y-88573691D01*
X151165000Y-89014250D01*
X151323750Y-89173000D01*
X152273000Y-89173000D01*
X152273000Y-88223750D01*
X152527000Y-88223750D01*
X152527000Y-89173000D01*
X153476250Y-89173000D01*
X153635000Y-89014250D01*
X153635000Y-88573691D01*
X153538327Y-88340302D01*
X153359699Y-88161673D01*
X153126310Y-88065000D01*
X152685750Y-88065000D01*
X152527000Y-88223750D01*
X152273000Y-88223750D01*
X152114250Y-88065000D01*
X151673690Y-88065000D01*
X151440301Y-88161673D01*
X151261673Y-88340302D01*
X151165000Y-88573691D01*
X149985000Y-88573691D01*
X149888327Y-88340302D01*
X149709699Y-88161673D01*
X149476310Y-88065000D01*
X149035750Y-88065000D01*
X148877000Y-88223750D01*
X148623000Y-88223750D01*
X148464250Y-88065000D01*
X148023690Y-88065000D01*
X147790301Y-88161673D01*
X147700000Y-88251975D01*
X147609699Y-88161673D01*
X147376310Y-88065000D01*
X146935750Y-88065000D01*
X146777000Y-88223750D01*
X146523000Y-88223750D01*
X146364250Y-88065000D01*
X145923690Y-88065000D01*
X145690301Y-88161673D01*
X145511673Y-88340302D01*
X145415000Y-88573691D01*
X136935000Y-88573691D01*
X136935000Y-88485750D01*
X136776250Y-88327000D01*
X135827000Y-88327000D01*
X135573000Y-88327000D01*
X135553000Y-88327000D01*
X135553000Y-88073000D01*
X135573000Y-88073000D01*
X135573000Y-88053000D01*
X135827000Y-88053000D01*
X135827000Y-88073000D01*
X136776250Y-88073000D01*
X136935000Y-87914250D01*
X136935000Y-87473690D01*
X136838327Y-87240301D01*
X136659698Y-87061673D01*
X136426309Y-86965000D01*
X136249571Y-86965000D01*
X136378711Y-86878711D01*
X136525466Y-86659077D01*
X136577000Y-86400000D01*
X136530715Y-86167311D01*
X136688327Y-86009698D01*
X136785000Y-85776309D01*
X136785000Y-85708750D01*
X136626250Y-85550000D01*
X136025000Y-85550000D01*
X136025000Y-85597000D01*
X135775000Y-85597000D01*
X135775000Y-85550000D01*
X135753000Y-85550000D01*
X135753000Y-85350000D01*
X135775000Y-85350000D01*
X135775000Y-85303000D01*
X136025000Y-85303000D01*
X136025000Y-85350000D01*
X136626250Y-85350000D01*
X136785000Y-85191250D01*
X136785000Y-85123691D01*
X136688327Y-84890302D01*
X136530715Y-84732689D01*
X136577000Y-84500000D01*
X136577000Y-83658406D01*
X136655000Y-83658406D01*
X136776179Y-83635605D01*
X136887474Y-83563988D01*
X136962138Y-83454714D01*
X136988406Y-83325000D01*
X136988406Y-80275000D01*
X136965605Y-80153821D01*
X136893988Y-80042526D01*
X136784714Y-79967862D01*
X136655000Y-79941594D01*
X136577000Y-79941594D01*
X136577000Y-77968918D01*
X136621179Y-77960605D01*
X136732474Y-77888988D01*
X136807138Y-77779714D01*
X136833406Y-77650000D01*
X136833406Y-76450000D01*
X136810605Y-76328821D01*
X136738988Y-76217526D01*
X136629714Y-76142862D01*
X136500000Y-76116594D01*
X135300000Y-76116594D01*
X135178821Y-76139395D01*
X135067526Y-76211012D01*
X135018218Y-76283176D01*
X134938327Y-76090301D01*
X134759698Y-75911673D01*
X134526309Y-75815000D01*
X134085750Y-75815000D01*
X133927000Y-75973750D01*
X133927000Y-76923000D01*
X133947000Y-76923000D01*
X133947000Y-77177000D01*
X133927000Y-77177000D01*
X133927000Y-78126250D01*
X134085750Y-78285000D01*
X134526309Y-78285000D01*
X134759698Y-78188327D01*
X134938327Y-78009699D01*
X135018433Y-77816305D01*
X135061012Y-77882474D01*
X135170286Y-77957138D01*
X135223000Y-77967813D01*
X135223000Y-79941594D01*
X135135000Y-79941594D01*
X135013821Y-79964395D01*
X134902526Y-80036012D01*
X134827862Y-80145286D01*
X134801594Y-80275000D01*
X134801594Y-83325000D01*
X134824395Y-83446179D01*
X134896012Y-83557474D01*
X135005286Y-83632138D01*
X135051151Y-83641426D01*
X134277000Y-84415578D01*
X134277000Y-83658406D01*
X134365000Y-83658406D01*
X134486179Y-83635605D01*
X134597474Y-83563988D01*
X134672138Y-83454714D01*
X134698406Y-83325000D01*
X134698406Y-80275000D01*
X134675605Y-80153821D01*
X134603988Y-80042526D01*
X134494714Y-79967862D01*
X134365000Y-79941594D01*
X132845000Y-79941594D01*
X132723821Y-79964395D01*
X132612526Y-80036012D01*
X132537862Y-80145286D01*
X132511594Y-80275000D01*
X132511594Y-83325000D01*
X132534395Y-83446179D01*
X132606012Y-83557474D01*
X132715286Y-83632138D01*
X132845000Y-83658406D01*
X132923000Y-83658406D01*
X132923000Y-84500000D01*
X132974534Y-84759077D01*
X132983837Y-84773000D01*
X130600423Y-84773000D01*
X130098406Y-84270983D01*
X130098406Y-80960000D01*
X130075605Y-80838821D01*
X130003988Y-80727526D01*
X129894714Y-80652862D01*
X129765000Y-80626594D01*
X129008529Y-80626594D01*
X128995467Y-80560924D01*
X128848712Y-80341289D01*
X127778711Y-79271289D01*
X127559076Y-79124534D01*
X127300000Y-79073000D01*
X127040924Y-79124534D01*
X126821289Y-79271289D01*
X126674534Y-79490924D01*
X126623000Y-79750000D01*
X126674534Y-80009076D01*
X126821289Y-80228711D01*
X127219172Y-80626594D01*
X126975000Y-80626594D01*
X126853821Y-80649395D01*
X126742526Y-80721012D01*
X126667862Y-80830286D01*
X126641594Y-80960000D01*
X126641594Y-86040000D01*
X126664395Y-86161179D01*
X126736012Y-86272474D01*
X126845286Y-86347138D01*
X126975000Y-86373406D01*
X129765000Y-86373406D01*
X129886179Y-86350605D01*
X129997474Y-86278988D01*
X130072138Y-86169714D01*
X130090051Y-86081260D01*
X130320000Y-86127000D01*
X132983837Y-86127000D01*
X132974534Y-86140923D01*
X132923000Y-86400000D01*
X132923000Y-87281082D01*
X132878821Y-87289395D01*
X132767526Y-87361012D01*
X132692862Y-87470286D01*
X132666594Y-87600000D01*
X132666594Y-88800000D01*
X132689395Y-88921179D01*
X132761012Y-89032474D01*
X132870286Y-89107138D01*
X132923000Y-89117813D01*
X132923000Y-90600000D01*
X132974534Y-90859077D01*
X133015433Y-90920286D01*
X133121289Y-91078711D01*
X134973000Y-92930422D01*
X134973000Y-94381082D01*
X134928821Y-94389395D01*
X134817526Y-94461012D01*
X134768218Y-94533176D01*
X134688327Y-94340301D01*
X134509698Y-94161673D01*
X134276309Y-94065000D01*
X133835750Y-94065000D01*
X133677000Y-94223750D01*
X133677000Y-95173000D01*
X133697000Y-95173000D01*
X133697000Y-95427000D01*
X133677000Y-95427000D01*
X133677000Y-96376250D01*
X133835750Y-96535000D01*
X134276309Y-96535000D01*
X134509698Y-96438327D01*
X134688327Y-96259699D01*
X134768433Y-96066305D01*
X134811012Y-96132474D01*
X134920286Y-96207138D01*
X134973000Y-96217813D01*
X134973000Y-96466594D01*
X134950000Y-96466594D01*
X134828821Y-96489395D01*
X134717526Y-96561012D01*
X134642862Y-96670286D01*
X134616594Y-96800000D01*
X134616594Y-98600000D01*
X134639395Y-98721179D01*
X134711012Y-98832474D01*
X134820286Y-98907138D01*
X134950000Y-98933406D01*
X135023000Y-98933406D01*
X135023000Y-99193141D01*
X134917526Y-99261012D01*
X134868218Y-99333176D01*
X134788327Y-99140301D01*
X134609698Y-98961673D01*
X134376309Y-98865000D01*
X133935750Y-98865000D01*
X133777000Y-99023750D01*
X133777000Y-99973000D01*
X133797000Y-99973000D01*
X133797000Y-100227000D01*
X133777000Y-100227000D01*
X133777000Y-101176250D01*
X133935750Y-101335000D01*
X134376309Y-101335000D01*
X134609698Y-101238327D01*
X134788327Y-101059699D01*
X134868433Y-100866305D01*
X134911012Y-100932474D01*
X135020286Y-101007138D01*
X135073000Y-101017813D01*
X135073000Y-101269578D01*
X130369578Y-105973000D01*
X125100000Y-105973000D01*
X124840923Y-106024534D01*
X124765792Y-106074735D01*
X124621288Y-106171289D01*
X122521292Y-108271286D01*
X122521289Y-108271288D01*
X122471289Y-108321289D01*
X122324534Y-108540923D01*
X122273000Y-108800000D01*
X122273000Y-111800000D01*
X122324534Y-112059077D01*
X122398842Y-112170286D01*
X122471289Y-112278711D01*
X129271289Y-119078711D01*
X129490923Y-119225466D01*
X129750000Y-119277000D01*
X130531082Y-119277000D01*
X130539395Y-119321179D01*
X130611012Y-119432474D01*
X130683176Y-119481782D01*
X130490301Y-119561673D01*
X130311673Y-119740302D01*
X130215000Y-119973691D01*
X130215000Y-120414250D01*
X130373750Y-120573000D01*
X131323000Y-120573000D01*
X131323000Y-120553000D01*
X131577000Y-120553000D01*
X131577000Y-120573000D01*
X132526250Y-120573000D01*
X132685000Y-120414250D01*
X132685000Y-119973691D01*
X132588327Y-119740302D01*
X132409699Y-119561673D01*
X132216305Y-119481567D01*
X132282474Y-119438988D01*
X132357138Y-119329714D01*
X132367813Y-119277000D01*
X133131082Y-119277000D01*
X133139395Y-119321179D01*
X133211012Y-119432474D01*
X133283176Y-119481782D01*
X133090301Y-119561673D01*
X132911673Y-119740302D01*
X132815000Y-119973691D01*
X132815000Y-120414250D01*
X132973750Y-120573000D01*
X133923000Y-120573000D01*
X133923000Y-120553000D01*
X134177000Y-120553000D01*
X134177000Y-120573000D01*
X135126250Y-120573000D01*
X135175560Y-120523690D01*
X137615000Y-120523690D01*
X137615000Y-121114250D01*
X137773750Y-121273000D01*
X138973000Y-121273000D01*
X138973000Y-120173750D01*
X139227000Y-120173750D01*
X139227000Y-121273000D01*
X140426250Y-121273000D01*
X140585000Y-121114250D01*
X140585000Y-120523690D01*
X140488327Y-120290301D01*
X140309698Y-120111673D01*
X140076309Y-120015000D01*
X139385750Y-120015000D01*
X139227000Y-120173750D01*
X138973000Y-120173750D01*
X138814250Y-120015000D01*
X138123691Y-120015000D01*
X137890302Y-120111673D01*
X137711673Y-120290301D01*
X137615000Y-120523690D01*
X135175560Y-120523690D01*
X135285000Y-120414250D01*
X135285000Y-119973691D01*
X135188327Y-119740302D01*
X135009699Y-119561673D01*
X134816305Y-119481567D01*
X134882474Y-119438988D01*
X134957138Y-119329714D01*
X134983406Y-119200000D01*
X134983406Y-119177000D01*
X152973000Y-119177000D01*
X152973000Y-120000000D01*
X153024534Y-120259077D01*
X153171289Y-120478711D01*
X153390923Y-120625466D01*
X153650000Y-120677000D01*
X153909077Y-120625466D01*
X154061395Y-120523690D01*
X155415000Y-120523690D01*
X155415000Y-121114250D01*
X155573750Y-121273000D01*
X156773000Y-121273000D01*
X156773000Y-120173750D01*
X156614250Y-120015000D01*
X155923691Y-120015000D01*
X155690302Y-120111673D01*
X155511673Y-120290301D01*
X155415000Y-120523690D01*
X154061395Y-120523690D01*
X154128711Y-120478711D01*
X154275466Y-120259077D01*
X154327000Y-120000000D01*
X154327000Y-118866224D01*
X154680388Y-119219612D01*
X154827027Y-119317594D01*
X155000000Y-119352000D01*
X158616594Y-119352000D01*
X158616594Y-119500000D01*
X158639395Y-119621179D01*
X158711012Y-119732474D01*
X158783176Y-119781782D01*
X158590301Y-119861673D01*
X158411673Y-120040302D01*
X158315000Y-120273691D01*
X158315000Y-120354695D01*
X158288327Y-120290301D01*
X158109698Y-120111673D01*
X157876309Y-120015000D01*
X157185750Y-120015000D01*
X157027000Y-120173750D01*
X157027000Y-121273000D01*
X157047000Y-121273000D01*
X157047000Y-121527000D01*
X157027000Y-121527000D01*
X157027000Y-121547000D01*
X156773000Y-121547000D01*
X156773000Y-121527000D01*
X155573750Y-121527000D01*
X155415000Y-121685750D01*
X155415000Y-122276310D01*
X155511673Y-122509699D01*
X155599974Y-122598000D01*
X140400026Y-122598000D01*
X140488327Y-122509699D01*
X140585000Y-122276310D01*
X140585000Y-121685750D01*
X140426250Y-121527000D01*
X139227000Y-121527000D01*
X139227000Y-121547000D01*
X138973000Y-121547000D01*
X138973000Y-121527000D01*
X137773750Y-121527000D01*
X137615000Y-121685750D01*
X137615000Y-122276310D01*
X137711673Y-122509699D01*
X137799974Y-122598000D01*
X103402000Y-122598000D01*
X103402000Y-120985750D01*
X130215000Y-120985750D01*
X130215000Y-121426309D01*
X130311673Y-121659698D01*
X130490301Y-121838327D01*
X130723690Y-121935000D01*
X131164250Y-121935000D01*
X131323000Y-121776250D01*
X131323000Y-120827000D01*
X131577000Y-120827000D01*
X131577000Y-121776250D01*
X131735750Y-121935000D01*
X132176310Y-121935000D01*
X132409699Y-121838327D01*
X132588327Y-121659698D01*
X132685000Y-121426309D01*
X132685000Y-120985750D01*
X132815000Y-120985750D01*
X132815000Y-121426309D01*
X132911673Y-121659698D01*
X133090301Y-121838327D01*
X133323690Y-121935000D01*
X133764250Y-121935000D01*
X133923000Y-121776250D01*
X133923000Y-120827000D01*
X134177000Y-120827000D01*
X134177000Y-121776250D01*
X134335750Y-121935000D01*
X134776310Y-121935000D01*
X135009699Y-121838327D01*
X135188327Y-121659698D01*
X135285000Y-121426309D01*
X135285000Y-120985750D01*
X135126250Y-120827000D01*
X134177000Y-120827000D01*
X133923000Y-120827000D01*
X132973750Y-120827000D01*
X132815000Y-120985750D01*
X132685000Y-120985750D01*
X132526250Y-120827000D01*
X131577000Y-120827000D01*
X131323000Y-120827000D01*
X130373750Y-120827000D01*
X130215000Y-120985750D01*
X103402000Y-120985750D01*
X103402000Y-104174171D01*
X119372891Y-104174171D01*
X119468145Y-104404703D01*
X119548000Y-104484698D01*
X119548000Y-106765272D01*
X119468765Y-106844369D01*
X119373109Y-107074735D01*
X119372891Y-107324171D01*
X119468145Y-107554703D01*
X119644369Y-107731235D01*
X119874735Y-107826891D01*
X120124171Y-107827109D01*
X120354703Y-107731855D01*
X120531235Y-107555631D01*
X120626891Y-107325265D01*
X120627109Y-107075829D01*
X120531855Y-106845297D01*
X120452000Y-106765302D01*
X120452000Y-104484728D01*
X120531235Y-104405631D01*
X120626891Y-104175265D01*
X120627109Y-103925829D01*
X120531855Y-103695297D01*
X120355631Y-103518765D01*
X120125265Y-103423109D01*
X119875829Y-103422891D01*
X119645297Y-103518145D01*
X119468765Y-103694369D01*
X119373109Y-103924735D01*
X119372891Y-104174171D01*
X103402000Y-104174171D01*
X103402000Y-96874171D01*
X128372891Y-96874171D01*
X128468145Y-97104703D01*
X128548000Y-97184698D01*
X128548000Y-99365272D01*
X128468765Y-99444369D01*
X128373109Y-99674735D01*
X128372891Y-99924171D01*
X128468145Y-100154703D01*
X128644369Y-100331235D01*
X128874735Y-100426891D01*
X129124171Y-100427109D01*
X129224267Y-100385750D01*
X132415000Y-100385750D01*
X132415000Y-100826310D01*
X132511673Y-101059699D01*
X132690302Y-101238327D01*
X132923691Y-101335000D01*
X133364250Y-101335000D01*
X133523000Y-101176250D01*
X133523000Y-100227000D01*
X132573750Y-100227000D01*
X132415000Y-100385750D01*
X129224267Y-100385750D01*
X129354703Y-100331855D01*
X129531235Y-100155631D01*
X129626891Y-99925265D01*
X129627109Y-99675829D01*
X129531855Y-99445297D01*
X129452000Y-99365302D01*
X129452000Y-97985750D01*
X130715000Y-97985750D01*
X130715000Y-98726310D01*
X130811673Y-98959699D01*
X130990302Y-99138327D01*
X131223691Y-99235000D01*
X131814250Y-99235000D01*
X131973000Y-99076250D01*
X131973000Y-97827000D01*
X132227000Y-97827000D01*
X132227000Y-99076250D01*
X132385750Y-99235000D01*
X132472447Y-99235000D01*
X132415000Y-99373690D01*
X132415000Y-99814250D01*
X132573750Y-99973000D01*
X133523000Y-99973000D01*
X133523000Y-99023750D01*
X133409012Y-98909762D01*
X133485000Y-98726310D01*
X133485000Y-97985750D01*
X133326250Y-97827000D01*
X132227000Y-97827000D01*
X131973000Y-97827000D01*
X130873750Y-97827000D01*
X130715000Y-97985750D01*
X129452000Y-97985750D01*
X129452000Y-97184728D01*
X129531235Y-97105631D01*
X129626891Y-96875265D01*
X129627067Y-96673690D01*
X130715000Y-96673690D01*
X130715000Y-97414250D01*
X130873750Y-97573000D01*
X131973000Y-97573000D01*
X131973000Y-96323750D01*
X132227000Y-96323750D01*
X132227000Y-97573000D01*
X133326250Y-97573000D01*
X133485000Y-97414250D01*
X133485000Y-96673690D01*
X133388327Y-96440301D01*
X133373638Y-96425612D01*
X133423000Y-96376250D01*
X133423000Y-95427000D01*
X132473750Y-95427000D01*
X132315000Y-95585750D01*
X132315000Y-96026310D01*
X132376344Y-96174406D01*
X132227000Y-96323750D01*
X131973000Y-96323750D01*
X131814250Y-96165000D01*
X131223691Y-96165000D01*
X130990302Y-96261673D01*
X130811673Y-96440301D01*
X130715000Y-96673690D01*
X129627067Y-96673690D01*
X129627109Y-96625829D01*
X129531855Y-96395297D01*
X129355631Y-96218765D01*
X129125265Y-96123109D01*
X128875829Y-96122891D01*
X128645297Y-96218145D01*
X128468765Y-96394369D01*
X128373109Y-96624735D01*
X128372891Y-96874171D01*
X103402000Y-96874171D01*
X103402000Y-94573690D01*
X132315000Y-94573690D01*
X132315000Y-95014250D01*
X132473750Y-95173000D01*
X133423000Y-95173000D01*
X133423000Y-94223750D01*
X133264250Y-94065000D01*
X132823691Y-94065000D01*
X132590302Y-94161673D01*
X132411673Y-94340301D01*
X132315000Y-94573690D01*
X103402000Y-94573690D01*
X103402000Y-80960000D01*
X104671594Y-80960000D01*
X104671594Y-86040000D01*
X104673000Y-86047472D01*
X104673000Y-87100000D01*
X104724534Y-87359077D01*
X104844747Y-87538988D01*
X104871289Y-87578711D01*
X106267800Y-88975222D01*
X106274534Y-89009077D01*
X106421289Y-89228711D01*
X106640923Y-89375466D01*
X106900000Y-89427000D01*
X107950000Y-89427000D01*
X108209077Y-89375466D01*
X108428711Y-89228711D01*
X108575466Y-89009077D01*
X108627000Y-88750000D01*
X108575466Y-88490923D01*
X108428711Y-88271289D01*
X108209077Y-88124534D01*
X107950000Y-88073000D01*
X107280422Y-88073000D01*
X106027000Y-86819578D01*
X106027000Y-86373406D01*
X107795000Y-86373406D01*
X107916179Y-86350605D01*
X108027474Y-86278988D01*
X108102138Y-86169714D01*
X108128406Y-86040000D01*
X108128406Y-80960000D01*
X108105605Y-80838821D01*
X108033988Y-80727526D01*
X107924714Y-80652862D01*
X107795000Y-80626594D01*
X105005000Y-80626594D01*
X104883821Y-80649395D01*
X104772526Y-80721012D01*
X104697862Y-80830286D01*
X104671594Y-80960000D01*
X103402000Y-80960000D01*
X103402000Y-79300000D01*
X105923000Y-79300000D01*
X105974534Y-79559077D01*
X106121289Y-79778711D01*
X106340923Y-79925466D01*
X106600000Y-79977000D01*
X108867857Y-79977000D01*
X108169603Y-81658582D01*
X108166403Y-85325331D01*
X109566651Y-88714190D01*
X112157172Y-91309236D01*
X115543582Y-92715397D01*
X119210331Y-92718597D01*
X122599190Y-91318349D01*
X125194236Y-88727828D01*
X126600397Y-85341418D01*
X126603597Y-81674669D01*
X125203349Y-78285810D01*
X124254946Y-77335750D01*
X132565000Y-77335750D01*
X132565000Y-77776310D01*
X132661673Y-78009699D01*
X132840302Y-78188327D01*
X133073691Y-78285000D01*
X133514250Y-78285000D01*
X133673000Y-78126250D01*
X133673000Y-77177000D01*
X132723750Y-77177000D01*
X132565000Y-77335750D01*
X124254946Y-77335750D01*
X123244651Y-76323690D01*
X132565000Y-76323690D01*
X132565000Y-76764250D01*
X132723750Y-76923000D01*
X133673000Y-76923000D01*
X133673000Y-75973750D01*
X133514250Y-75815000D01*
X133073691Y-75815000D01*
X132840302Y-75911673D01*
X132661673Y-76090301D01*
X132565000Y-76323690D01*
X123244651Y-76323690D01*
X122612828Y-75690764D01*
X119226418Y-74284603D01*
X115559669Y-74281403D01*
X112170810Y-75681651D01*
X109575764Y-78272172D01*
X109430087Y-78623000D01*
X106600000Y-78623000D01*
X106340923Y-78674534D01*
X106121289Y-78821289D01*
X105974534Y-79040923D01*
X105923000Y-79300000D01*
X103402000Y-79300000D01*
X103402000Y-75503877D01*
X105872866Y-75503877D01*
X105990908Y-75789560D01*
X106209290Y-76008324D01*
X106494767Y-76126865D01*
X106803877Y-76127134D01*
X107089560Y-76009092D01*
X107308324Y-75790710D01*
X107426865Y-75505233D01*
X107426866Y-75503877D01*
X108872866Y-75503877D01*
X108990908Y-75789560D01*
X109209290Y-76008324D01*
X109494767Y-76126865D01*
X109803877Y-76127134D01*
X110089560Y-76009092D01*
X110308324Y-75790710D01*
X110426865Y-75505233D01*
X110427134Y-75196123D01*
X110309092Y-74910440D01*
X110090710Y-74691676D01*
X109805233Y-74573135D01*
X109496123Y-74572866D01*
X109210440Y-74690908D01*
X108991676Y-74909290D01*
X108873135Y-75194767D01*
X108872866Y-75503877D01*
X107426866Y-75503877D01*
X107427134Y-75196123D01*
X107309092Y-74910440D01*
X107090710Y-74691676D01*
X106805233Y-74573135D01*
X106496123Y-74572866D01*
X106210440Y-74690908D01*
X105991676Y-74909290D01*
X105873135Y-75194767D01*
X105872866Y-75503877D01*
X103402000Y-75503877D01*
X103402000Y-73402000D01*
X138573000Y-73402000D01*
X138573000Y-87250000D01*
G36*
X141791594Y-117406520D02*
X141773000Y-117500000D01*
X141773000Y-117647000D01*
X141708406Y-117647000D01*
X141708406Y-117353000D01*
X141791594Y-117353000D01*
X141791594Y-117406520D01*
X141791594Y-117406520D01*
G37*
X141791594Y-117406520D02*
X141773000Y-117500000D01*
X141773000Y-117647000D01*
X141708406Y-117647000D01*
X141708406Y-117353000D01*
X141791594Y-117353000D01*
X141791594Y-117406520D01*
G36*
X137989395Y-92121179D02*
X138061012Y-92232474D01*
X138170286Y-92307138D01*
X138300000Y-92333406D01*
X139500000Y-92333406D01*
X139621179Y-92310605D01*
X139732474Y-92238988D01*
X139807138Y-92129714D01*
X139817813Y-92077000D01*
X145731082Y-92077000D01*
X145739395Y-92121179D01*
X145811012Y-92232474D01*
X145920286Y-92307138D01*
X146050000Y-92333406D01*
X147250000Y-92333406D01*
X147371179Y-92310605D01*
X147482474Y-92238988D01*
X147557138Y-92129714D01*
X147567813Y-92077000D01*
X147831082Y-92077000D01*
X147839395Y-92121179D01*
X147911012Y-92232474D01*
X148020286Y-92307138D01*
X148150000Y-92333406D01*
X148298000Y-92333406D01*
X148298000Y-93916594D01*
X148100000Y-93916594D01*
X147996327Y-93936101D01*
X147953724Y-93927474D01*
X147938327Y-93890301D01*
X147759698Y-93711673D01*
X147526309Y-93615000D01*
X147483750Y-93615000D01*
X147325000Y-93773750D01*
X147325000Y-94073251D01*
X147292862Y-94120286D01*
X147266594Y-94250000D01*
X147266594Y-95197000D01*
X147233406Y-95197000D01*
X147233406Y-94250000D01*
X147210605Y-94128821D01*
X147202000Y-94115449D01*
X147202000Y-93800000D01*
X147167594Y-93627027D01*
X147069612Y-93480388D01*
X146769612Y-93180388D01*
X146622973Y-93082406D01*
X146450000Y-93048000D01*
X139833406Y-93048000D01*
X139833406Y-92900000D01*
X139810605Y-92778821D01*
X139738988Y-92667526D01*
X139629714Y-92592862D01*
X139500000Y-92566594D01*
X138300000Y-92566594D01*
X138178821Y-92589395D01*
X138067526Y-92661012D01*
X137992862Y-92770286D01*
X137966594Y-92900000D01*
X137966594Y-94100000D01*
X137989395Y-94221179D01*
X138061012Y-94332474D01*
X138170286Y-94407138D01*
X138300000Y-94433406D01*
X139500000Y-94433406D01*
X139621179Y-94410605D01*
X139732474Y-94338988D01*
X139807138Y-94229714D01*
X139833406Y-94100000D01*
X139833406Y-93952000D01*
X142959232Y-93952000D01*
X142867526Y-94011012D01*
X142792862Y-94120286D01*
X142766594Y-94250000D01*
X142766594Y-95850000D01*
X142789395Y-95971179D01*
X142861012Y-96082474D01*
X142970286Y-96157138D01*
X143100000Y-96183406D01*
X143400000Y-96183406D01*
X143503673Y-96163899D01*
X143600000Y-96183406D01*
X143900000Y-96183406D01*
X144003673Y-96163899D01*
X144100000Y-96183406D01*
X144400000Y-96183406D01*
X144503673Y-96163899D01*
X144600000Y-96183406D01*
X144900000Y-96183406D01*
X145003673Y-96163899D01*
X145100000Y-96183406D01*
X145400000Y-96183406D01*
X145503673Y-96163899D01*
X145546276Y-96172526D01*
X145561673Y-96209699D01*
X145740302Y-96388327D01*
X145973691Y-96485000D01*
X146016250Y-96485000D01*
X146122998Y-96378252D01*
X146122998Y-96485000D01*
X146181132Y-96485000D01*
X146123109Y-96624735D01*
X146122891Y-96874171D01*
X146218145Y-97104703D01*
X146311279Y-97198000D01*
X142783406Y-97198000D01*
X142783406Y-97000000D01*
X142763899Y-96896327D01*
X142783406Y-96800000D01*
X142783406Y-96500000D01*
X142760605Y-96378821D01*
X142688988Y-96267526D01*
X142579714Y-96192862D01*
X142450000Y-96166594D01*
X140850000Y-96166594D01*
X140728821Y-96189395D01*
X140617526Y-96261012D01*
X140542862Y-96370286D01*
X140516594Y-96500000D01*
X140516594Y-96800000D01*
X140536101Y-96903673D01*
X140516594Y-97000000D01*
X140516594Y-97198000D01*
X136783406Y-97198000D01*
X136783406Y-96800000D01*
X136760605Y-96678821D01*
X136688988Y-96567526D01*
X136579714Y-96492862D01*
X136450000Y-96466594D01*
X136327000Y-96466594D01*
X136327000Y-96218918D01*
X136371179Y-96210605D01*
X136482474Y-96138988D01*
X136557138Y-96029714D01*
X136583406Y-95900000D01*
X136583406Y-94700000D01*
X136560605Y-94578821D01*
X136488988Y-94467526D01*
X136379714Y-94392862D01*
X136327000Y-94382187D01*
X136327000Y-92930422D01*
X137180422Y-92077000D01*
X137981082Y-92077000D01*
X137989395Y-92121179D01*
X137989395Y-92121179D01*
G37*
X137989395Y-92121179D02*
X138061012Y-92232474D01*
X138170286Y-92307138D01*
X138300000Y-92333406D01*
X139500000Y-92333406D01*
X139621179Y-92310605D01*
X139732474Y-92238988D01*
X139807138Y-92129714D01*
X139817813Y-92077000D01*
X145731082Y-92077000D01*
X145739395Y-92121179D01*
X145811012Y-92232474D01*
X145920286Y-92307138D01*
X146050000Y-92333406D01*
X147250000Y-92333406D01*
X147371179Y-92310605D01*
X147482474Y-92238988D01*
X147557138Y-92129714D01*
X147567813Y-92077000D01*
X147831082Y-92077000D01*
X147839395Y-92121179D01*
X147911012Y-92232474D01*
X148020286Y-92307138D01*
X148150000Y-92333406D01*
X148298000Y-92333406D01*
X148298000Y-93916594D01*
X148100000Y-93916594D01*
X147996327Y-93936101D01*
X147953724Y-93927474D01*
X147938327Y-93890301D01*
X147759698Y-93711673D01*
X147526309Y-93615000D01*
X147483750Y-93615000D01*
X147325000Y-93773750D01*
X147325000Y-94073251D01*
X147292862Y-94120286D01*
X147266594Y-94250000D01*
X147266594Y-95197000D01*
X147233406Y-95197000D01*
X147233406Y-94250000D01*
X147210605Y-94128821D01*
X147202000Y-94115449D01*
X147202000Y-93800000D01*
X147167594Y-93627027D01*
X147069612Y-93480388D01*
X146769612Y-93180388D01*
X146622973Y-93082406D01*
X146450000Y-93048000D01*
X139833406Y-93048000D01*
X139833406Y-92900000D01*
X139810605Y-92778821D01*
X139738988Y-92667526D01*
X139629714Y-92592862D01*
X139500000Y-92566594D01*
X138300000Y-92566594D01*
X138178821Y-92589395D01*
X138067526Y-92661012D01*
X137992862Y-92770286D01*
X137966594Y-92900000D01*
X137966594Y-94100000D01*
X137989395Y-94221179D01*
X138061012Y-94332474D01*
X138170286Y-94407138D01*
X138300000Y-94433406D01*
X139500000Y-94433406D01*
X139621179Y-94410605D01*
X139732474Y-94338988D01*
X139807138Y-94229714D01*
X139833406Y-94100000D01*
X139833406Y-93952000D01*
X142959232Y-93952000D01*
X142867526Y-94011012D01*
X142792862Y-94120286D01*
X142766594Y-94250000D01*
X142766594Y-95850000D01*
X142789395Y-95971179D01*
X142861012Y-96082474D01*
X142970286Y-96157138D01*
X143100000Y-96183406D01*
X143400000Y-96183406D01*
X143503673Y-96163899D01*
X143600000Y-96183406D01*
X143900000Y-96183406D01*
X144003673Y-96163899D01*
X144100000Y-96183406D01*
X144400000Y-96183406D01*
X144503673Y-96163899D01*
X144600000Y-96183406D01*
X144900000Y-96183406D01*
X145003673Y-96163899D01*
X145100000Y-96183406D01*
X145400000Y-96183406D01*
X145503673Y-96163899D01*
X145546276Y-96172526D01*
X145561673Y-96209699D01*
X145740302Y-96388327D01*
X145973691Y-96485000D01*
X146016250Y-96485000D01*
X146122998Y-96378252D01*
X146122998Y-96485000D01*
X146181132Y-96485000D01*
X146123109Y-96624735D01*
X146122891Y-96874171D01*
X146218145Y-97104703D01*
X146311279Y-97198000D01*
X142783406Y-97198000D01*
X142783406Y-97000000D01*
X142763899Y-96896327D01*
X142783406Y-96800000D01*
X142783406Y-96500000D01*
X142760605Y-96378821D01*
X142688988Y-96267526D01*
X142579714Y-96192862D01*
X142450000Y-96166594D01*
X140850000Y-96166594D01*
X140728821Y-96189395D01*
X140617526Y-96261012D01*
X140542862Y-96370286D01*
X140516594Y-96500000D01*
X140516594Y-96800000D01*
X140536101Y-96903673D01*
X140516594Y-97000000D01*
X140516594Y-97198000D01*
X136783406Y-97198000D01*
X136783406Y-96800000D01*
X136760605Y-96678821D01*
X136688988Y-96567526D01*
X136579714Y-96492862D01*
X136450000Y-96466594D01*
X136327000Y-96466594D01*
X136327000Y-96218918D01*
X136371179Y-96210605D01*
X136482474Y-96138988D01*
X136557138Y-96029714D01*
X136583406Y-95900000D01*
X136583406Y-94700000D01*
X136560605Y-94578821D01*
X136488988Y-94467526D01*
X136379714Y-94392862D01*
X136327000Y-94382187D01*
X136327000Y-92930422D01*
X137180422Y-92077000D01*
X137981082Y-92077000D01*
X137989395Y-92121179D01*
G36*
X148100000Y-96183406D02*
X148298000Y-96183406D01*
X148298000Y-96212776D01*
X147312776Y-97198000D01*
X147188705Y-97198000D01*
X147281235Y-97105631D01*
X147376891Y-96875265D01*
X147377109Y-96625829D01*
X147318920Y-96485000D01*
X147377002Y-96485000D01*
X147377002Y-96378252D01*
X147483750Y-96485000D01*
X147526309Y-96485000D01*
X147759698Y-96388327D01*
X147938327Y-96209699D01*
X147953378Y-96173362D01*
X148003673Y-96163899D01*
X148100000Y-96183406D01*
X148100000Y-96183406D01*
G37*
X148100000Y-96183406D02*
X148298000Y-96183406D01*
X148298000Y-96212776D01*
X147312776Y-97198000D01*
X147188705Y-97198000D01*
X147281235Y-97105631D01*
X147376891Y-96875265D01*
X147377109Y-96625829D01*
X147318920Y-96485000D01*
X147377002Y-96485000D01*
X147377002Y-96378252D01*
X147483750Y-96485000D01*
X147526309Y-96485000D01*
X147759698Y-96388327D01*
X147938327Y-96209699D01*
X147953378Y-96173362D01*
X148003673Y-96163899D01*
X148100000Y-96183406D01*
G36*
X146266594Y-95197000D02*
X146233406Y-95197000D01*
X146233406Y-94903000D01*
X146266594Y-94903000D01*
X146266594Y-95197000D01*
X146266594Y-95197000D01*
G37*
X146266594Y-95197000D02*
X146233406Y-95197000D01*
X146233406Y-94903000D01*
X146266594Y-94903000D01*
X146266594Y-95197000D01*
M02*
