G04 #@! TF.FileFunction,Soldermask,Top*
%FSLAX46Y46*%
G04 Gerber Fmt 4.6, Leading zero omitted, Abs format (unit mm)*
G04 Created by KiCad (PCBNEW 4.0.2+dfsg1-stable) date Sat 12 May 2018 06:52:34 PM EDT*
%MOMM*%
G01*
G04 APERTURE LIST*
%ADD10C,0.100000*%
%ADD11R,2.200000X1.900000*%
%ADD12C,1.924000*%
%ADD13R,1.750000X1.750000*%
%ADD14R,0.900000X1.700000*%
%ADD15R,1.200000X1.000000*%
%ADD16C,1.100000*%
%ADD17C,1.000000*%
G04 APERTURE END LIST*
D10*
D11*
X173100000Y-75700000D03*
X173100000Y-79300000D03*
X175550000Y-75700000D03*
X175550000Y-79300000D03*
X178000000Y-75700000D03*
X178000000Y-79300000D03*
D12*
X190900000Y-118700000D03*
X188400000Y-118700000D03*
X185900000Y-118700000D03*
X183400000Y-118700000D03*
X180900000Y-118700000D03*
X180900000Y-121200000D03*
X183400000Y-121200000D03*
X185900000Y-121200000D03*
X188400000Y-121200000D03*
X190900000Y-121200000D03*
D13*
X115500000Y-102000000D03*
X115500000Y-109950000D03*
X120000000Y-109950000D03*
X120000000Y-102000000D03*
X124500000Y-94000000D03*
X124500000Y-101950000D03*
X129000000Y-101950000D03*
X129000000Y-94000000D03*
X106500000Y-94000000D03*
X106500000Y-101950000D03*
X111000000Y-101950000D03*
X111000000Y-94000000D03*
X115500000Y-86000000D03*
X115500000Y-93950000D03*
X120000000Y-93950000D03*
X120000000Y-86000000D03*
X180500000Y-110000000D03*
X180500000Y-102050000D03*
X176000000Y-102050000D03*
X176000000Y-110000000D03*
X189500000Y-102000000D03*
X189500000Y-94050000D03*
X185000000Y-94050000D03*
X185000000Y-102000000D03*
X171500000Y-102000000D03*
X171500000Y-94050000D03*
X167000000Y-94050000D03*
X167000000Y-102000000D03*
X180500000Y-94000000D03*
X180500000Y-86050000D03*
X176000000Y-86050000D03*
X176000000Y-94000000D03*
X190450000Y-75550000D03*
X182500000Y-75550000D03*
X182500000Y-80050000D03*
X190450000Y-80050000D03*
D14*
X105900000Y-77100000D03*
X107400000Y-77100000D03*
X110400000Y-77100000D03*
D15*
X111800000Y-74385000D03*
X111800000Y-76315000D03*
X104500000Y-74385000D03*
X104500000Y-76315000D03*
D16*
X109650000Y-75350000D03*
X106650000Y-75350000D03*
D17*
X107950000Y-88750000D03*
X127300000Y-79750000D03*
X106600000Y-79300000D03*
X153850000Y-115150000D03*
X160350000Y-94750000D03*
X160350000Y-103100000D03*
X153650000Y-120000000D03*
X164000000Y-120750000D03*
X180200000Y-114550000D03*
X160350000Y-108650000D03*
X169800000Y-79300000D03*
X147000000Y-115600000D03*
X147000000Y-112200000D03*
X184600000Y-81000000D03*
X146750000Y-96750000D03*
X173100000Y-77350000D03*
X175550000Y-77350000D03*
X155300000Y-97600000D03*
X178000000Y-77300000D03*
X158600000Y-93300000D03*
X151250000Y-97790000D03*
X151890000Y-98350000D03*
X153220000Y-99880000D03*
X185470000Y-115940000D03*
X187190000Y-119930000D03*
X152530000Y-99050000D03*
X152900000Y-113250000D03*
X139700000Y-111450000D03*
X139400000Y-108100000D03*
X145450000Y-108100000D03*
X159100000Y-96400000D03*
X158750000Y-100050000D03*
X162100000Y-101300000D03*
X165200000Y-94150000D03*
X167000000Y-92150000D03*
X161350000Y-100300000D03*
X120000000Y-107200000D03*
X120000000Y-104050000D03*
X149250000Y-106100000D03*
X129000000Y-96750000D03*
X129000000Y-99800000D03*
X147700000Y-104100000D03*
X148350000Y-105150000D03*
X146950000Y-103100000D03*
X176000000Y-106200000D03*
X176000000Y-108150000D03*
X162050000Y-108300000D03*
X162450000Y-107150000D03*
X167000000Y-98200000D03*
X167000000Y-95700000D03*
X162900000Y-106100000D03*
X161650000Y-105650000D03*
X155000000Y-89200000D03*
X154150000Y-99900000D03*
X173900000Y-100250000D03*
X165650000Y-97200000D03*
X159200000Y-86700000D03*
X158200000Y-81250000D03*
X147650000Y-98500000D03*
X147650000Y-96500000D03*
X145450000Y-96800000D03*
X144750000Y-98500000D03*
X170550000Y-83550000D03*
X167100000Y-87000000D03*
X144950000Y-89550000D03*
X146650000Y-92800000D03*
X188550000Y-75550000D03*
X184600000Y-75550000D03*
X180500000Y-84050000D03*
M02*
