G04 #@! TF.FileFunction,Soldermask,Bot*
%FSLAX46Y46*%
G04 Gerber Fmt 4.6, Leading zero omitted, Abs format (unit mm)*
G04 Created by KiCad (PCBNEW 4.0.2+dfsg1-stable) date Sat 12 May 2018 06:52:34 PM EDT*
%MOMM*%
G01*
G04 APERTURE LIST*
%ADD10C,0.100000*%
%ADD11C,1.000000*%
%ADD12R,2.990000X5.280000*%
%ADD13C,17.980000*%
%ADD14R,1.600000X1.600000*%
%ADD15R,1.900000X2.200000*%
%ADD16R,0.990000X0.850000*%
%ADD17R,1.920000X3.450000*%
%ADD18R,3.450000X1.920000*%
%ADD19C,1.924000*%
%ADD20R,0.650000X1.500000*%
%ADD21R,2.100000X1.900000*%
%ADD22C,1.100000*%
%ADD23R,1.700000X0.400000*%
%ADD24R,0.400000X1.700000*%
%ADD25R,1.200000X0.900000*%
%ADD26R,0.700000X0.600000*%
%ADD27R,0.800000X1.600000*%
%ADD28R,2.900000X2.100000*%
G04 APERTURE END LIST*
D10*
D11*
X138550000Y-95650000D03*
X178350000Y-110150000D03*
X170450000Y-111150000D03*
X182500000Y-88500000D03*
X178500000Y-104500000D03*
X145000000Y-106500000D03*
X105000000Y-116500000D03*
X112000000Y-120500000D03*
X130500000Y-75500000D03*
X130000000Y-78000000D03*
X177500000Y-83500000D03*
X172500000Y-86500000D03*
X168000000Y-78000000D03*
X169500000Y-75000000D03*
X186500000Y-77500000D03*
X186500000Y-86000000D03*
X190000000Y-85000000D03*
X189500000Y-89500000D03*
X186500000Y-92000000D03*
X187500000Y-99500000D03*
X178500000Y-91500000D03*
X180500000Y-98000000D03*
X176000000Y-98000000D03*
X171500000Y-105500000D03*
X170500000Y-108500000D03*
X166000000Y-108500000D03*
X186000000Y-104500000D03*
X190000000Y-105000000D03*
X187000000Y-109000000D03*
X189500000Y-112000000D03*
X185000000Y-112500000D03*
X149500000Y-121500000D03*
X144000000Y-121500000D03*
X116000000Y-107000000D03*
X132500000Y-108000000D03*
X150000000Y-108000000D03*
X149000000Y-100000000D03*
X144500000Y-100000000D03*
X141500000Y-89000000D03*
X129500000Y-89000000D03*
X126000000Y-91000000D03*
X108000000Y-91000000D03*
X106500000Y-97000000D03*
X115000000Y-97500000D03*
X120500000Y-98500000D03*
X130500000Y-115500000D03*
X116500000Y-118000000D03*
X126000000Y-120500000D03*
X121500000Y-115000000D03*
X110500000Y-108500000D03*
D12*
X128370000Y-83500000D03*
X106400000Y-83500000D03*
D13*
X117385000Y-83500000D03*
D14*
X133800000Y-77050000D03*
X135900000Y-77050000D03*
X133550000Y-95300000D03*
X135650000Y-95300000D03*
X133650000Y-100100000D03*
X135750000Y-100100000D03*
X168650000Y-104250000D03*
X168650000Y-102150000D03*
X167400000Y-99950000D03*
X165300000Y-99950000D03*
X135700000Y-88200000D03*
X133600000Y-88200000D03*
X148750000Y-89300000D03*
X148750000Y-91400000D03*
X146650000Y-89300000D03*
X146650000Y-91400000D03*
X182500000Y-82850000D03*
X184600000Y-82850000D03*
X152400000Y-89300000D03*
X152400000Y-91400000D03*
X176900000Y-112450000D03*
X176900000Y-114550000D03*
X165800000Y-112650000D03*
X165800000Y-114750000D03*
X158650000Y-116850000D03*
X158650000Y-114750000D03*
X160850000Y-116850000D03*
X160850000Y-114750000D03*
X159550000Y-121000000D03*
X159550000Y-118900000D03*
X135750000Y-115900000D03*
X137850000Y-115900000D03*
X131450000Y-120700000D03*
X131450000Y-118600000D03*
X134050000Y-120700000D03*
X134050000Y-118600000D03*
D15*
X135700000Y-97700000D03*
X132100000Y-97700000D03*
D16*
X128695000Y-111550000D03*
X125405000Y-111550000D03*
X133745000Y-111550000D03*
X130455000Y-111550000D03*
D17*
X135895000Y-81800000D03*
X133605000Y-81800000D03*
X173595000Y-117250000D03*
X171305000Y-117250000D03*
D18*
X165300000Y-102155000D03*
X165300000Y-104445000D03*
D19*
X190900000Y-118700000D03*
X188400000Y-118700000D03*
X185900000Y-118700000D03*
X183400000Y-118700000D03*
X180900000Y-118700000D03*
X180900000Y-121200000D03*
X183400000Y-121200000D03*
X185900000Y-121200000D03*
X188400000Y-121200000D03*
X190900000Y-121200000D03*
D20*
X141250000Y-117500000D03*
X141750000Y-117500000D03*
X142250000Y-117500000D03*
X142750000Y-117500000D03*
X143250000Y-117500000D03*
X143750000Y-117500000D03*
X144250000Y-117500000D03*
X144750000Y-117500000D03*
X145250000Y-117500000D03*
X145750000Y-117500000D03*
X146250000Y-117500000D03*
X146750000Y-117500000D03*
X147250000Y-117500000D03*
X147750000Y-117500000D03*
X148250000Y-117500000D03*
X148750000Y-117500000D03*
X149250000Y-117500000D03*
X149750000Y-117500000D03*
X150250000Y-117500000D03*
X150750000Y-117500000D03*
X151250000Y-117500000D03*
X151750000Y-117500000D03*
X152250000Y-117500000D03*
X152750000Y-117500000D03*
X153250000Y-117500000D03*
X153750000Y-117500000D03*
X154250000Y-117500000D03*
X154750000Y-117500000D03*
X140750000Y-117500000D03*
X155250000Y-117500000D03*
D21*
X139100000Y-121400000D03*
X156900000Y-121400000D03*
D14*
X173100000Y-79100000D03*
X173100000Y-81200000D03*
X137950000Y-108100000D03*
X135850000Y-108100000D03*
X138900000Y-91400000D03*
X138900000Y-93500000D03*
X173350000Y-91650000D03*
X173350000Y-89550000D03*
X171150000Y-91650000D03*
X171150000Y-89550000D03*
X168950000Y-91650000D03*
X168950000Y-89550000D03*
X163500000Y-112650000D03*
X163500000Y-114750000D03*
X168100000Y-114750000D03*
X168100000Y-112650000D03*
X175550000Y-79100000D03*
X175550000Y-81200000D03*
X178000000Y-79100000D03*
X178000000Y-81200000D03*
X135800000Y-111550000D03*
X137900000Y-111550000D03*
X135750000Y-113900000D03*
X137850000Y-113900000D03*
D22*
X109650000Y-75350000D03*
X106650000Y-75350000D03*
D23*
X156850000Y-96650000D03*
X156850000Y-97150000D03*
X156850000Y-97650000D03*
X156850000Y-98150000D03*
X156850000Y-98650000D03*
X156850000Y-99150000D03*
X156850000Y-99650000D03*
X156850000Y-100150000D03*
X156850000Y-100650000D03*
X156850000Y-101150000D03*
X156850000Y-101650000D03*
X156850000Y-102150000D03*
X156850000Y-102650000D03*
X156850000Y-103150000D03*
X156850000Y-103650000D03*
X156850000Y-104150000D03*
X156850000Y-104650000D03*
X156850000Y-105150000D03*
X156850000Y-105650000D03*
X156850000Y-106150000D03*
X156850000Y-106650000D03*
X156850000Y-107150000D03*
X156850000Y-107650000D03*
X156850000Y-108150000D03*
X156850000Y-108650000D03*
D24*
X155250000Y-110250000D03*
X154750000Y-110250000D03*
X154250000Y-110250000D03*
X153750000Y-110250000D03*
X153250000Y-110250000D03*
X152750000Y-110250000D03*
X152250000Y-110250000D03*
X151750000Y-110250000D03*
X151250000Y-110250000D03*
X150750000Y-110250000D03*
X150250000Y-110250000D03*
X149750000Y-110250000D03*
X149250000Y-110250000D03*
X148750000Y-110250000D03*
X148250000Y-110250000D03*
X147750000Y-110250000D03*
X147250000Y-110250000D03*
X146750000Y-110250000D03*
X146250000Y-110250000D03*
X145750000Y-110250000D03*
X145250000Y-110250000D03*
X144750000Y-110250000D03*
X144250000Y-110250000D03*
X143750000Y-110250000D03*
X143250000Y-110250000D03*
D23*
X141650000Y-108650000D03*
X141650000Y-108150000D03*
X141650000Y-107650000D03*
X141650000Y-107150000D03*
X141650000Y-106650000D03*
X141650000Y-106150000D03*
X141650000Y-105650000D03*
X141650000Y-105150000D03*
X141650000Y-104650000D03*
X141650000Y-104150000D03*
X141650000Y-103650000D03*
X141650000Y-103150000D03*
X141650000Y-102650000D03*
X141650000Y-102150000D03*
X141650000Y-101650000D03*
X141650000Y-101150000D03*
X141650000Y-100650000D03*
X141650000Y-100150000D03*
X141650000Y-99650000D03*
X141650000Y-99150000D03*
X141650000Y-98650000D03*
X141650000Y-98150000D03*
X141650000Y-97650000D03*
X141650000Y-97150000D03*
X141650000Y-96650000D03*
D24*
X143250000Y-95050000D03*
X143750000Y-95050000D03*
X144250000Y-95050000D03*
X144750000Y-95050000D03*
X145250000Y-95050000D03*
X145750000Y-95050000D03*
X146250000Y-95050000D03*
X146750000Y-95050000D03*
X147250000Y-95050000D03*
X147750000Y-95050000D03*
X148250000Y-95050000D03*
X148750000Y-95050000D03*
X149250000Y-95050000D03*
X149750000Y-95050000D03*
X150250000Y-95050000D03*
X150750000Y-95050000D03*
X151250000Y-95050000D03*
X151750000Y-95050000D03*
X152250000Y-95050000D03*
X152750000Y-95050000D03*
X153250000Y-95050000D03*
X153750000Y-95050000D03*
X154250000Y-95050000D03*
X154750000Y-95050000D03*
X155250000Y-95050000D03*
D25*
X171300000Y-112650000D03*
X171300000Y-113600000D03*
X171300000Y-114550000D03*
X173900000Y-112650000D03*
X173900000Y-114550000D03*
D26*
X133600000Y-84500000D03*
X133600000Y-86400000D03*
X135900000Y-86400000D03*
X135900000Y-85450000D03*
X135900000Y-84500000D03*
D14*
X161200000Y-86700000D03*
X163300000Y-86700000D03*
D27*
X160345000Y-93100000D03*
X160345000Y-89200000D03*
X161615000Y-93100000D03*
X161615000Y-89200000D03*
X162885000Y-93100000D03*
X162885000Y-89200000D03*
X164155000Y-93100000D03*
X164155000Y-89200000D03*
D28*
X167500000Y-117900000D03*
X163500000Y-117900000D03*
D11*
X106500000Y-105500000D03*
X113500000Y-114000000D03*
X106000000Y-110500000D03*
X138000000Y-100000000D03*
X137500000Y-103000000D03*
X107950000Y-88750000D03*
X127300000Y-79750000D03*
X106600000Y-79300000D03*
X153850000Y-115150000D03*
X160350000Y-94750000D03*
X160350000Y-103100000D03*
X153650000Y-120000000D03*
X164000000Y-120750000D03*
X180200000Y-114550000D03*
X160350000Y-108650000D03*
X169800000Y-79300000D03*
X147000000Y-115600000D03*
X147000000Y-112200000D03*
X184600000Y-81000000D03*
X146750000Y-96750000D03*
X173100000Y-77350000D03*
X175550000Y-77350000D03*
X155300000Y-97600000D03*
X178000000Y-77300000D03*
X158600000Y-93300000D03*
X151250000Y-97790000D03*
X151890000Y-98350000D03*
X153220000Y-99880000D03*
X185470000Y-115940000D03*
X187190000Y-119930000D03*
X152530000Y-99050000D03*
X152900000Y-113250000D03*
X139700000Y-111450000D03*
X139400000Y-108100000D03*
X145450000Y-108100000D03*
X159100000Y-96400000D03*
X158750000Y-100050000D03*
X162100000Y-101300000D03*
X165200000Y-94150000D03*
X167000000Y-92150000D03*
X161350000Y-100300000D03*
X120000000Y-107200000D03*
X120000000Y-104050000D03*
X149250000Y-106100000D03*
X129000000Y-96750000D03*
X129000000Y-99800000D03*
X147700000Y-104100000D03*
X148350000Y-105150000D03*
X146950000Y-103100000D03*
X176000000Y-106200000D03*
X176000000Y-108150000D03*
X162050000Y-108300000D03*
X162450000Y-107150000D03*
X167000000Y-98200000D03*
X167000000Y-95700000D03*
X162900000Y-106100000D03*
X161650000Y-105650000D03*
X155000000Y-89200000D03*
X154150000Y-99900000D03*
X173900000Y-100250000D03*
X165650000Y-97200000D03*
X159200000Y-86700000D03*
X158200000Y-81250000D03*
X147650000Y-98500000D03*
X147650000Y-96500000D03*
X145450000Y-96800000D03*
X144750000Y-98500000D03*
X170550000Y-83550000D03*
X167100000Y-87000000D03*
X144950000Y-89550000D03*
X146650000Y-92800000D03*
X188550000Y-75550000D03*
X184600000Y-75550000D03*
X180500000Y-84050000D03*
M02*
