G04 #@! TF.FileFunction,Legend,Top*
%FSLAX46Y46*%
G04 Gerber Fmt 4.6, Leading zero omitted, Abs format (unit mm)*
G04 Created by KiCad (PCBNEW 4.0.2+dfsg1-stable) date Sat 12 May 2018 06:52:34 PM EDT*
%MOMM*%
G01*
G04 APERTURE LIST*
%ADD10C,0.100000*%
%ADD11C,0.300000*%
%ADD12C,0.200000*%
%ADD13C,0.150000*%
G04 APERTURE END LIST*
D10*
D11*
X113735714Y-76078571D02*
X113735714Y-74578571D01*
X114307142Y-74578571D01*
X114450000Y-74650000D01*
X114521428Y-74721429D01*
X114592857Y-74864286D01*
X114592857Y-75078571D01*
X114521428Y-75221429D01*
X114450000Y-75292857D01*
X114307142Y-75364286D01*
X113735714Y-75364286D01*
X115521428Y-74578571D02*
X115807142Y-74578571D01*
X115950000Y-74650000D01*
X116092857Y-74792857D01*
X116164285Y-75078571D01*
X116164285Y-75578571D01*
X116092857Y-75864286D01*
X115950000Y-76007143D01*
X115807142Y-76078571D01*
X115521428Y-76078571D01*
X115378571Y-76007143D01*
X115235714Y-75864286D01*
X115164285Y-75578571D01*
X115164285Y-75078571D01*
X115235714Y-74792857D01*
X115378571Y-74650000D01*
X115521428Y-74578571D01*
X116664286Y-74578571D02*
X117021429Y-76078571D01*
X117307143Y-75007143D01*
X117592857Y-76078571D01*
X117950000Y-74578571D01*
X118521429Y-75292857D02*
X119021429Y-75292857D01*
X119235715Y-76078571D02*
X118521429Y-76078571D01*
X118521429Y-74578571D01*
X119235715Y-74578571D01*
X120735715Y-76078571D02*
X120235715Y-75364286D01*
X119878572Y-76078571D02*
X119878572Y-74578571D01*
X120450000Y-74578571D01*
X120592858Y-74650000D01*
X120664286Y-74721429D01*
X120735715Y-74864286D01*
X120735715Y-75078571D01*
X120664286Y-75221429D01*
X120592858Y-75292857D01*
X120450000Y-75364286D01*
X119878572Y-75364286D01*
X184521429Y-83278571D02*
X184021429Y-82564286D01*
X183664286Y-83278571D02*
X183664286Y-81778571D01*
X184235714Y-81778571D01*
X184378572Y-81850000D01*
X184450000Y-81921429D01*
X184521429Y-82064286D01*
X184521429Y-82278571D01*
X184450000Y-82421429D01*
X184378572Y-82492857D01*
X184235714Y-82564286D01*
X183664286Y-82564286D01*
X185164286Y-82492857D02*
X185664286Y-82492857D01*
X185878572Y-83278571D02*
X185164286Y-83278571D01*
X185164286Y-81778571D01*
X185878572Y-81778571D01*
X186450000Y-83207143D02*
X186664286Y-83278571D01*
X187021429Y-83278571D01*
X187164286Y-83207143D01*
X187235715Y-83135714D01*
X187307143Y-82992857D01*
X187307143Y-82850000D01*
X187235715Y-82707143D01*
X187164286Y-82635714D01*
X187021429Y-82564286D01*
X186735715Y-82492857D01*
X186592857Y-82421429D01*
X186521429Y-82350000D01*
X186450000Y-82207143D01*
X186450000Y-82064286D01*
X186521429Y-81921429D01*
X186592857Y-81850000D01*
X186735715Y-81778571D01*
X187092857Y-81778571D01*
X187307143Y-81850000D01*
X187950000Y-82492857D02*
X188450000Y-82492857D01*
X188664286Y-83278571D02*
X187950000Y-83278571D01*
X187950000Y-81778571D01*
X188664286Y-81778571D01*
X189092857Y-81778571D02*
X189950000Y-81778571D01*
X189521429Y-83278571D02*
X189521429Y-81778571D01*
X173300001Y-96978571D02*
X174300001Y-98478571D01*
X174300001Y-96978571D02*
X173300001Y-98478571D01*
X178200000Y-96164286D02*
X178200000Y-96878571D01*
X177700000Y-95378571D02*
X178200000Y-96164286D01*
X178700000Y-95378571D01*
X182907143Y-97692857D02*
X183121429Y-97764286D01*
X183192857Y-97835714D01*
X183264286Y-97978571D01*
X183264286Y-98192857D01*
X183192857Y-98335714D01*
X183121429Y-98407143D01*
X182978571Y-98478571D01*
X182407143Y-98478571D01*
X182407143Y-96978571D01*
X182907143Y-96978571D01*
X183050000Y-97050000D01*
X183121429Y-97121429D01*
X183192857Y-97264286D01*
X183192857Y-97407143D01*
X183121429Y-97550000D01*
X183050000Y-97621429D01*
X182907143Y-97692857D01*
X182407143Y-97692857D01*
X177842857Y-100050000D02*
X178557143Y-100050000D01*
X177700000Y-100478571D02*
X178200000Y-98978571D01*
X178700000Y-100478571D01*
X106073810Y-114130952D02*
X105240476Y-112940476D01*
X104645238Y-114130952D02*
X104645238Y-111630952D01*
X105597619Y-111630952D01*
X105835714Y-111750000D01*
X105954762Y-111869048D01*
X106073810Y-112107143D01*
X106073810Y-112464286D01*
X105954762Y-112702381D01*
X105835714Y-112821429D01*
X105597619Y-112940476D01*
X104645238Y-112940476D01*
X107502381Y-114130952D02*
X107264286Y-114011905D01*
X107145238Y-113892857D01*
X107026190Y-113654762D01*
X107026190Y-112940476D01*
X107145238Y-112702381D01*
X107264286Y-112583333D01*
X107502381Y-112464286D01*
X107859524Y-112464286D01*
X108097619Y-112583333D01*
X108216667Y-112702381D01*
X108335714Y-112940476D01*
X108335714Y-113654762D01*
X108216667Y-113892857D01*
X108097619Y-114011905D01*
X107859524Y-114130952D01*
X107502381Y-114130952D01*
X109407143Y-114130952D02*
X109407143Y-112464286D01*
X109407143Y-112940476D02*
X109526191Y-112702381D01*
X109645238Y-112583333D01*
X109883334Y-112464286D01*
X110121429Y-112464286D01*
X110716667Y-112464286D02*
X111311905Y-114130952D01*
X111907143Y-112464286D02*
X111311905Y-114130952D01*
X111073810Y-114726190D01*
X110954762Y-114845238D01*
X110716667Y-114964286D01*
X116192858Y-114130952D02*
X115359524Y-112940476D01*
X114764286Y-114130952D02*
X114764286Y-111630952D01*
X115716667Y-111630952D01*
X115954762Y-111750000D01*
X116073810Y-111869048D01*
X116192858Y-112107143D01*
X116192858Y-112464286D01*
X116073810Y-112702381D01*
X115954762Y-112821429D01*
X115716667Y-112940476D01*
X114764286Y-112940476D01*
X118335715Y-112464286D02*
X118335715Y-114130952D01*
X117264286Y-112464286D02*
X117264286Y-113773810D01*
X117383334Y-114011905D01*
X117621429Y-114130952D01*
X117978572Y-114130952D01*
X118216667Y-114011905D01*
X118335715Y-113892857D01*
X120597620Y-114130952D02*
X120597620Y-111630952D01*
X120597620Y-114011905D02*
X120359524Y-114130952D01*
X119883334Y-114130952D01*
X119645239Y-114011905D01*
X119526191Y-113892857D01*
X119407143Y-113654762D01*
X119407143Y-112940476D01*
X119526191Y-112702381D01*
X119645239Y-112583333D01*
X119883334Y-112464286D01*
X120359524Y-112464286D01*
X120597620Y-112583333D01*
X122145239Y-114130952D02*
X121907144Y-114011905D01*
X121788096Y-113892857D01*
X121669048Y-113654762D01*
X121669048Y-112940476D01*
X121788096Y-112702381D01*
X121907144Y-112583333D01*
X122145239Y-112464286D01*
X122502382Y-112464286D01*
X122740477Y-112583333D01*
X122859525Y-112702381D01*
X122978572Y-112940476D01*
X122978572Y-113654762D01*
X122859525Y-113892857D01*
X122740477Y-114011905D01*
X122502382Y-114130952D01*
X122145239Y-114130952D01*
X124407144Y-114130952D02*
X124169049Y-114011905D01*
X124050001Y-113773810D01*
X124050001Y-111630952D01*
X125359525Y-112464286D02*
X125359525Y-114964286D01*
X125359525Y-112583333D02*
X125597620Y-112464286D01*
X126073811Y-112464286D01*
X126311906Y-112583333D01*
X126430954Y-112702381D01*
X126550001Y-112940476D01*
X126550001Y-113654762D01*
X126430954Y-113892857D01*
X126311906Y-114011905D01*
X126073811Y-114130952D01*
X125597620Y-114130952D01*
X125359525Y-114011905D01*
X127621430Y-114130952D02*
X127621430Y-111630952D01*
X128692859Y-114130952D02*
X128692859Y-112821429D01*
X128573811Y-112583333D01*
X128335716Y-112464286D01*
X127978573Y-112464286D01*
X127740478Y-112583333D01*
X127621430Y-112702381D01*
X104526190Y-115669048D02*
X104645238Y-115550000D01*
X104883333Y-115430952D01*
X105478571Y-115430952D01*
X105716667Y-115550000D01*
X105835714Y-115669048D01*
X105954762Y-115907143D01*
X105954762Y-116145238D01*
X105835714Y-116502381D01*
X104407143Y-117930952D01*
X105954762Y-117930952D01*
X107502381Y-115430952D02*
X107740476Y-115430952D01*
X107978571Y-115550000D01*
X108097619Y-115669048D01*
X108216666Y-115907143D01*
X108335714Y-116383333D01*
X108335714Y-116978571D01*
X108216666Y-117454762D01*
X108097619Y-117692857D01*
X107978571Y-117811905D01*
X107740476Y-117930952D01*
X107502381Y-117930952D01*
X107264285Y-117811905D01*
X107145238Y-117692857D01*
X107026190Y-117454762D01*
X106907142Y-116978571D01*
X106907142Y-116383333D01*
X107026190Y-115907143D01*
X107145238Y-115669048D01*
X107264285Y-115550000D01*
X107502381Y-115430952D01*
X110716666Y-117930952D02*
X109288094Y-117930952D01*
X110002380Y-117930952D02*
X110002380Y-115430952D01*
X109764285Y-115788095D01*
X109526190Y-116026190D01*
X109288094Y-116145238D01*
X112145237Y-116502381D02*
X111907142Y-116383333D01*
X111788094Y-116264286D01*
X111669046Y-116026190D01*
X111669046Y-115907143D01*
X111788094Y-115669048D01*
X111907142Y-115550000D01*
X112145237Y-115430952D01*
X112621427Y-115430952D01*
X112859523Y-115550000D01*
X112978570Y-115669048D01*
X113097618Y-115907143D01*
X113097618Y-116026190D01*
X112978570Y-116264286D01*
X112859523Y-116383333D01*
X112621427Y-116502381D01*
X112145237Y-116502381D01*
X111907142Y-116621429D01*
X111788094Y-116740476D01*
X111669046Y-116978571D01*
X111669046Y-117454762D01*
X111788094Y-117692857D01*
X111907142Y-117811905D01*
X112145237Y-117930952D01*
X112621427Y-117930952D01*
X112859523Y-117811905D01*
X112978570Y-117692857D01*
X113097618Y-117454762D01*
X113097618Y-116978571D01*
X112978570Y-116740476D01*
X112859523Y-116621429D01*
X112621427Y-116502381D01*
X114169046Y-116978571D02*
X116073808Y-116978571D01*
X117740475Y-115430952D02*
X117978570Y-115430952D01*
X118216665Y-115550000D01*
X118335713Y-115669048D01*
X118454760Y-115907143D01*
X118573808Y-116383333D01*
X118573808Y-116978571D01*
X118454760Y-117454762D01*
X118335713Y-117692857D01*
X118216665Y-117811905D01*
X117978570Y-117930952D01*
X117740475Y-117930952D01*
X117502379Y-117811905D01*
X117383332Y-117692857D01*
X117264284Y-117454762D01*
X117145236Y-116978571D01*
X117145236Y-116383333D01*
X117264284Y-115907143D01*
X117383332Y-115669048D01*
X117502379Y-115550000D01*
X117740475Y-115430952D01*
X120835712Y-115430952D02*
X119645236Y-115430952D01*
X119526188Y-116621429D01*
X119645236Y-116502381D01*
X119883331Y-116383333D01*
X120478569Y-116383333D01*
X120716665Y-116502381D01*
X120835712Y-116621429D01*
X120954760Y-116859524D01*
X120954760Y-117454762D01*
X120835712Y-117692857D01*
X120716665Y-117811905D01*
X120478569Y-117930952D01*
X119883331Y-117930952D01*
X119645236Y-117811905D01*
X119526188Y-117692857D01*
X122026188Y-116978571D02*
X123930950Y-116978571D01*
X126430950Y-117930952D02*
X125002378Y-117930952D01*
X125716664Y-117930952D02*
X125716664Y-115430952D01*
X125478569Y-115788095D01*
X125240474Y-116026190D01*
X125002378Y-116145238D01*
X127383330Y-115669048D02*
X127502378Y-115550000D01*
X127740473Y-115430952D01*
X128335711Y-115430952D01*
X128573807Y-115550000D01*
X128692854Y-115669048D01*
X128811902Y-115907143D01*
X128811902Y-116145238D01*
X128692854Y-116502381D01*
X127264283Y-117930952D01*
X128811902Y-117930952D01*
X104645238Y-120421429D02*
X105478571Y-120421429D01*
X105835714Y-121730952D02*
X104645238Y-121730952D01*
X104645238Y-119230952D01*
X105835714Y-119230952D01*
X107740476Y-120421429D02*
X108097619Y-120540476D01*
X108216667Y-120659524D01*
X108335715Y-120897619D01*
X108335715Y-121254762D01*
X108216667Y-121492857D01*
X108097619Y-121611905D01*
X107859524Y-121730952D01*
X106907143Y-121730952D01*
X106907143Y-119230952D01*
X107740476Y-119230952D01*
X107978572Y-119350000D01*
X108097619Y-119469048D01*
X108216667Y-119707143D01*
X108216667Y-119945238D01*
X108097619Y-120183333D01*
X107978572Y-120302381D01*
X107740476Y-120421429D01*
X106907143Y-120421429D01*
X110835715Y-121492857D02*
X110716667Y-121611905D01*
X110359524Y-121730952D01*
X110121429Y-121730952D01*
X109764286Y-121611905D01*
X109526191Y-121373810D01*
X109407143Y-121135714D01*
X109288095Y-120659524D01*
X109288095Y-120302381D01*
X109407143Y-119826190D01*
X109526191Y-119588095D01*
X109764286Y-119350000D01*
X110121429Y-119230952D01*
X110359524Y-119230952D01*
X110716667Y-119350000D01*
X110835715Y-119469048D01*
X115240477Y-121730952D02*
X114407143Y-120540476D01*
X113811905Y-121730952D02*
X113811905Y-119230952D01*
X114764286Y-119230952D01*
X115002381Y-119350000D01*
X115121429Y-119469048D01*
X115240477Y-119707143D01*
X115240477Y-120064286D01*
X115121429Y-120302381D01*
X115002381Y-120421429D01*
X114764286Y-120540476D01*
X113811905Y-120540476D01*
X117264286Y-121611905D02*
X117026191Y-121730952D01*
X116550000Y-121730952D01*
X116311905Y-121611905D01*
X116192857Y-121373810D01*
X116192857Y-120421429D01*
X116311905Y-120183333D01*
X116550000Y-120064286D01*
X117026191Y-120064286D01*
X117264286Y-120183333D01*
X117383334Y-120421429D01*
X117383334Y-120659524D01*
X116192857Y-120897619D01*
X118216667Y-120064286D02*
X118811905Y-121730952D01*
X119407143Y-120064286D01*
X123097619Y-120421429D02*
X123454762Y-120540476D01*
X123573810Y-120659524D01*
X123692858Y-120897619D01*
X123692858Y-121254762D01*
X123573810Y-121492857D01*
X123454762Y-121611905D01*
X123216667Y-121730952D01*
X122264286Y-121730952D01*
X122264286Y-119230952D01*
X123097619Y-119230952D01*
X123335715Y-119350000D01*
X123454762Y-119469048D01*
X123573810Y-119707143D01*
X123573810Y-119945238D01*
X123454762Y-120183333D01*
X123335715Y-120302381D01*
X123097619Y-120421429D01*
X122264286Y-120421429D01*
D12*
X164000000Y-81000000D02*
X164000000Y-114000000D01*
X132000000Y-81000000D02*
X164000000Y-81000000D01*
X132000000Y-114000000D02*
X132000000Y-81000000D01*
X164000000Y-114000000D02*
X132000000Y-114000000D01*
D10*
X173400000Y-74900000D02*
X172800000Y-74900000D01*
X172200000Y-77500000D02*
X172200000Y-77000000D01*
X172200000Y-77500000D02*
X172200000Y-78000000D01*
X174000000Y-77500000D02*
X174000000Y-77000000D01*
X174000000Y-77500000D02*
X174000000Y-78000000D01*
X175850000Y-74900000D02*
X175250000Y-74900000D01*
X174650000Y-77500000D02*
X174650000Y-77000000D01*
X174650000Y-77500000D02*
X174650000Y-78000000D01*
X176450000Y-77500000D02*
X176450000Y-77000000D01*
X176450000Y-77500000D02*
X176450000Y-78000000D01*
X178300000Y-74900000D02*
X177700000Y-74900000D01*
X177100000Y-77500000D02*
X177100000Y-77000000D01*
X177100000Y-77500000D02*
X177100000Y-78000000D01*
X178900000Y-77500000D02*
X178900000Y-77000000D01*
X178900000Y-77500000D02*
X178900000Y-78000000D01*
X121000000Y-103000000D02*
X119000000Y-103000000D01*
X119000000Y-103000000D02*
X119000000Y-101000000D01*
X121000000Y-101000000D02*
X121000000Y-111000000D01*
X121000000Y-111000000D02*
X114400000Y-111000000D01*
X114400000Y-111000000D02*
X114400000Y-101000000D01*
X114400000Y-101000000D02*
X121000000Y-101000000D01*
X130000000Y-95000000D02*
X128000000Y-95000000D01*
X128000000Y-95000000D02*
X128000000Y-93000000D01*
X130000000Y-93000000D02*
X130000000Y-103000000D01*
X130000000Y-103000000D02*
X123400000Y-103000000D01*
X123400000Y-103000000D02*
X123400000Y-93000000D01*
X123400000Y-93000000D02*
X130000000Y-93000000D01*
X112000000Y-95000000D02*
X110000000Y-95000000D01*
X110000000Y-95000000D02*
X110000000Y-93000000D01*
X112000000Y-93000000D02*
X112000000Y-103000000D01*
X112000000Y-103000000D02*
X105400000Y-103000000D01*
X105400000Y-103000000D02*
X105400000Y-93000000D01*
X105400000Y-93000000D02*
X112000000Y-93000000D01*
X121000000Y-87000000D02*
X119000000Y-87000000D01*
X119000000Y-87000000D02*
X119000000Y-85000000D01*
X121000000Y-85000000D02*
X121000000Y-95000000D01*
X121000000Y-95000000D02*
X114400000Y-95000000D01*
X114400000Y-95000000D02*
X114400000Y-85000000D01*
X114400000Y-85000000D02*
X121000000Y-85000000D01*
X175000000Y-109000000D02*
X177000000Y-109000000D01*
X177000000Y-109000000D02*
X177000000Y-111000000D01*
X175000000Y-111000000D02*
X175000000Y-101000000D01*
X175000000Y-101000000D02*
X181600000Y-101000000D01*
X181600000Y-101000000D02*
X181600000Y-111000000D01*
X181600000Y-111000000D02*
X175000000Y-111000000D01*
X184000000Y-101000000D02*
X186000000Y-101000000D01*
X186000000Y-101000000D02*
X186000000Y-103000000D01*
X184000000Y-103000000D02*
X184000000Y-93000000D01*
X184000000Y-93000000D02*
X190600000Y-93000000D01*
X190600000Y-93000000D02*
X190600000Y-103000000D01*
X190600000Y-103000000D02*
X184000000Y-103000000D01*
X166000000Y-101000000D02*
X168000000Y-101000000D01*
X168000000Y-101000000D02*
X168000000Y-103000000D01*
X166000000Y-103000000D02*
X166000000Y-93000000D01*
X166000000Y-93000000D02*
X172600000Y-93000000D01*
X172600000Y-93000000D02*
X172600000Y-103000000D01*
X172600000Y-103000000D02*
X166000000Y-103000000D01*
X175000000Y-93000000D02*
X177000000Y-93000000D01*
X177000000Y-93000000D02*
X177000000Y-95000000D01*
X175000000Y-95000000D02*
X175000000Y-85000000D01*
X175000000Y-85000000D02*
X181600000Y-85000000D01*
X181600000Y-85000000D02*
X181600000Y-95000000D01*
X181600000Y-95000000D02*
X175000000Y-95000000D01*
X189450000Y-81050000D02*
X189450000Y-79050000D01*
X189450000Y-79050000D02*
X191450000Y-79050000D01*
X191450000Y-81050000D02*
X181450000Y-81050000D01*
X181450000Y-81050000D02*
X181450000Y-74450000D01*
X181450000Y-74450000D02*
X191450000Y-74450000D01*
X191450000Y-74450000D02*
X191450000Y-81050000D01*
X191612000Y-118700000D02*
G75*
G03X191612000Y-118700000I-712000J0D01*
G01*
X189112000Y-118700000D02*
G75*
G03X189112000Y-118700000I-712000J0D01*
G01*
X186612000Y-118700000D02*
G75*
G03X186612000Y-118700000I-712000J0D01*
G01*
X184112000Y-118700000D02*
G75*
G03X184112000Y-118700000I-712000J0D01*
G01*
X181612000Y-118700000D02*
G75*
G03X181612000Y-118700000I-712000J0D01*
G01*
X181612000Y-121200000D02*
G75*
G03X181612000Y-121200000I-712000J0D01*
G01*
X184112000Y-121200000D02*
G75*
G03X184112000Y-121200000I-712000J0D01*
G01*
X186612000Y-121200000D02*
G75*
G03X186612000Y-121200000I-712000J0D01*
G01*
X189112000Y-121200000D02*
G75*
G03X189112000Y-121200000I-712000J0D01*
G01*
X191612000Y-121200000D02*
G75*
G03X191612000Y-121200000I-712000J0D01*
G01*
X110050000Y-75350000D02*
G75*
G03X110050000Y-75350000I-400000J0D01*
G01*
X107050000Y-75350000D02*
G75*
G03X107050000Y-75350000I-400000J0D01*
G01*
D13*
X117238095Y-106404762D02*
X117380952Y-106452381D01*
X117619048Y-106452381D01*
X117714286Y-106404762D01*
X117761905Y-106357143D01*
X117809524Y-106261905D01*
X117809524Y-106166667D01*
X117761905Y-106071429D01*
X117714286Y-106023810D01*
X117619048Y-105976190D01*
X117428571Y-105928571D01*
X117333333Y-105880952D01*
X117285714Y-105833333D01*
X117238095Y-105738095D01*
X117238095Y-105642857D01*
X117285714Y-105547619D01*
X117333333Y-105500000D01*
X117428571Y-105452381D01*
X117666667Y-105452381D01*
X117809524Y-105500000D01*
X118761905Y-106452381D02*
X118190476Y-106452381D01*
X118476190Y-106452381D02*
X118476190Y-105452381D01*
X118380952Y-105595238D01*
X118285714Y-105690476D01*
X118190476Y-105738095D01*
X126238095Y-98404762D02*
X126380952Y-98452381D01*
X126619048Y-98452381D01*
X126714286Y-98404762D01*
X126761905Y-98357143D01*
X126809524Y-98261905D01*
X126809524Y-98166667D01*
X126761905Y-98071429D01*
X126714286Y-98023810D01*
X126619048Y-97976190D01*
X126428571Y-97928571D01*
X126333333Y-97880952D01*
X126285714Y-97833333D01*
X126238095Y-97738095D01*
X126238095Y-97642857D01*
X126285714Y-97547619D01*
X126333333Y-97500000D01*
X126428571Y-97452381D01*
X126666667Y-97452381D01*
X126809524Y-97500000D01*
X127190476Y-97547619D02*
X127238095Y-97500000D01*
X127333333Y-97452381D01*
X127571429Y-97452381D01*
X127666667Y-97500000D01*
X127714286Y-97547619D01*
X127761905Y-97642857D01*
X127761905Y-97738095D01*
X127714286Y-97880952D01*
X127142857Y-98452381D01*
X127761905Y-98452381D01*
X108238095Y-98404762D02*
X108380952Y-98452381D01*
X108619048Y-98452381D01*
X108714286Y-98404762D01*
X108761905Y-98357143D01*
X108809524Y-98261905D01*
X108809524Y-98166667D01*
X108761905Y-98071429D01*
X108714286Y-98023810D01*
X108619048Y-97976190D01*
X108428571Y-97928571D01*
X108333333Y-97880952D01*
X108285714Y-97833333D01*
X108238095Y-97738095D01*
X108238095Y-97642857D01*
X108285714Y-97547619D01*
X108333333Y-97500000D01*
X108428571Y-97452381D01*
X108666667Y-97452381D01*
X108809524Y-97500000D01*
X109142857Y-97452381D02*
X109761905Y-97452381D01*
X109428571Y-97833333D01*
X109571429Y-97833333D01*
X109666667Y-97880952D01*
X109714286Y-97928571D01*
X109761905Y-98023810D01*
X109761905Y-98261905D01*
X109714286Y-98357143D01*
X109666667Y-98404762D01*
X109571429Y-98452381D01*
X109285714Y-98452381D01*
X109190476Y-98404762D01*
X109142857Y-98357143D01*
X117238095Y-90404762D02*
X117380952Y-90452381D01*
X117619048Y-90452381D01*
X117714286Y-90404762D01*
X117761905Y-90357143D01*
X117809524Y-90261905D01*
X117809524Y-90166667D01*
X117761905Y-90071429D01*
X117714286Y-90023810D01*
X117619048Y-89976190D01*
X117428571Y-89928571D01*
X117333333Y-89880952D01*
X117285714Y-89833333D01*
X117238095Y-89738095D01*
X117238095Y-89642857D01*
X117285714Y-89547619D01*
X117333333Y-89500000D01*
X117428571Y-89452381D01*
X117666667Y-89452381D01*
X117809524Y-89500000D01*
X118666667Y-89785714D02*
X118666667Y-90452381D01*
X118428571Y-89404762D02*
X118190476Y-90119048D01*
X118809524Y-90119048D01*
X177238095Y-106404762D02*
X177380952Y-106452381D01*
X177619048Y-106452381D01*
X177714286Y-106404762D01*
X177761905Y-106357143D01*
X177809524Y-106261905D01*
X177809524Y-106166667D01*
X177761905Y-106071429D01*
X177714286Y-106023810D01*
X177619048Y-105976190D01*
X177428571Y-105928571D01*
X177333333Y-105880952D01*
X177285714Y-105833333D01*
X177238095Y-105738095D01*
X177238095Y-105642857D01*
X177285714Y-105547619D01*
X177333333Y-105500000D01*
X177428571Y-105452381D01*
X177666667Y-105452381D01*
X177809524Y-105500000D01*
X178714286Y-105452381D02*
X178238095Y-105452381D01*
X178190476Y-105928571D01*
X178238095Y-105880952D01*
X178333333Y-105833333D01*
X178571429Y-105833333D01*
X178666667Y-105880952D01*
X178714286Y-105928571D01*
X178761905Y-106023810D01*
X178761905Y-106261905D01*
X178714286Y-106357143D01*
X178666667Y-106404762D01*
X178571429Y-106452381D01*
X178333333Y-106452381D01*
X178238095Y-106404762D01*
X178190476Y-106357143D01*
X186238095Y-98404762D02*
X186380952Y-98452381D01*
X186619048Y-98452381D01*
X186714286Y-98404762D01*
X186761905Y-98357143D01*
X186809524Y-98261905D01*
X186809524Y-98166667D01*
X186761905Y-98071429D01*
X186714286Y-98023810D01*
X186619048Y-97976190D01*
X186428571Y-97928571D01*
X186333333Y-97880952D01*
X186285714Y-97833333D01*
X186238095Y-97738095D01*
X186238095Y-97642857D01*
X186285714Y-97547619D01*
X186333333Y-97500000D01*
X186428571Y-97452381D01*
X186666667Y-97452381D01*
X186809524Y-97500000D01*
X187666667Y-97452381D02*
X187476190Y-97452381D01*
X187380952Y-97500000D01*
X187333333Y-97547619D01*
X187238095Y-97690476D01*
X187190476Y-97880952D01*
X187190476Y-98261905D01*
X187238095Y-98357143D01*
X187285714Y-98404762D01*
X187380952Y-98452381D01*
X187571429Y-98452381D01*
X187666667Y-98404762D01*
X187714286Y-98357143D01*
X187761905Y-98261905D01*
X187761905Y-98023810D01*
X187714286Y-97928571D01*
X187666667Y-97880952D01*
X187571429Y-97833333D01*
X187380952Y-97833333D01*
X187285714Y-97880952D01*
X187238095Y-97928571D01*
X187190476Y-98023810D01*
X168238095Y-98404762D02*
X168380952Y-98452381D01*
X168619048Y-98452381D01*
X168714286Y-98404762D01*
X168761905Y-98357143D01*
X168809524Y-98261905D01*
X168809524Y-98166667D01*
X168761905Y-98071429D01*
X168714286Y-98023810D01*
X168619048Y-97976190D01*
X168428571Y-97928571D01*
X168333333Y-97880952D01*
X168285714Y-97833333D01*
X168238095Y-97738095D01*
X168238095Y-97642857D01*
X168285714Y-97547619D01*
X168333333Y-97500000D01*
X168428571Y-97452381D01*
X168666667Y-97452381D01*
X168809524Y-97500000D01*
X169142857Y-97452381D02*
X169809524Y-97452381D01*
X169380952Y-98452381D01*
X177238095Y-90404762D02*
X177380952Y-90452381D01*
X177619048Y-90452381D01*
X177714286Y-90404762D01*
X177761905Y-90357143D01*
X177809524Y-90261905D01*
X177809524Y-90166667D01*
X177761905Y-90071429D01*
X177714286Y-90023810D01*
X177619048Y-89976190D01*
X177428571Y-89928571D01*
X177333333Y-89880952D01*
X177285714Y-89833333D01*
X177238095Y-89738095D01*
X177238095Y-89642857D01*
X177285714Y-89547619D01*
X177333333Y-89500000D01*
X177428571Y-89452381D01*
X177666667Y-89452381D01*
X177809524Y-89500000D01*
X178380952Y-89880952D02*
X178285714Y-89833333D01*
X178238095Y-89785714D01*
X178190476Y-89690476D01*
X178190476Y-89642857D01*
X178238095Y-89547619D01*
X178285714Y-89500000D01*
X178380952Y-89452381D01*
X178571429Y-89452381D01*
X178666667Y-89500000D01*
X178714286Y-89547619D01*
X178761905Y-89642857D01*
X178761905Y-89690476D01*
X178714286Y-89785714D01*
X178666667Y-89833333D01*
X178571429Y-89880952D01*
X178380952Y-89880952D01*
X178285714Y-89928571D01*
X178238095Y-89976190D01*
X178190476Y-90071429D01*
X178190476Y-90261905D01*
X178238095Y-90357143D01*
X178285714Y-90404762D01*
X178380952Y-90452381D01*
X178571429Y-90452381D01*
X178666667Y-90404762D01*
X178714286Y-90357143D01*
X178761905Y-90261905D01*
X178761905Y-90071429D01*
X178714286Y-89976190D01*
X178666667Y-89928571D01*
X178571429Y-89880952D01*
X182938095Y-78104762D02*
X183080952Y-78152381D01*
X183319048Y-78152381D01*
X183414286Y-78104762D01*
X183461905Y-78057143D01*
X183509524Y-77961905D01*
X183509524Y-77866667D01*
X183461905Y-77771429D01*
X183414286Y-77723810D01*
X183319048Y-77676190D01*
X183128571Y-77628571D01*
X183033333Y-77580952D01*
X182985714Y-77533333D01*
X182938095Y-77438095D01*
X182938095Y-77342857D01*
X182985714Y-77247619D01*
X183033333Y-77200000D01*
X183128571Y-77152381D01*
X183366667Y-77152381D01*
X183509524Y-77200000D01*
X183985714Y-78152381D02*
X184176190Y-78152381D01*
X184271429Y-78104762D01*
X184319048Y-78057143D01*
X184414286Y-77914286D01*
X184461905Y-77723810D01*
X184461905Y-77342857D01*
X184414286Y-77247619D01*
X184366667Y-77200000D01*
X184271429Y-77152381D01*
X184080952Y-77152381D01*
X183985714Y-77200000D01*
X183938095Y-77247619D01*
X183890476Y-77342857D01*
X183890476Y-77580952D01*
X183938095Y-77676190D01*
X183985714Y-77723810D01*
X184080952Y-77771429D01*
X184271429Y-77771429D01*
X184366667Y-77723810D01*
X184414286Y-77676190D01*
X184461905Y-77580952D01*
M02*
