M48
;DRILL file {KiCad 4.0.2+dfsg1-stable} date Sat 12 May 2018 06:53:25 PM EDT
;FORMAT={-:-/ absolute / inch / decimal}
FMAT,2
INCH,TZ
T1C0.012
T2C0.016
T3C0.030
T4C0.035
%
G90
G05
M72
T1
X4.1339Y-4.5866
X4.1732Y-4.3504
X4.1929Y-3.8189
X4.1929Y-4.1535
X4.252Y-3.5827
X4.3504Y-4.2717
X4.4094Y-4.7441
X4.4685Y-4.4882
X4.5276Y-3.8386
X4.5669Y-4.2126
X4.5866Y-4.6457
X4.7441Y-3.878
X4.7835Y-4.5276
X4.9606Y-3.5827
X4.9606Y-4.7441
X5.0984Y-3.5039
X5.1181Y-3.0709
X5.1378Y-2.9724
X5.1378Y-4.5472
X5.2165Y-4.252
X5.4134Y-4.0551
X5.4331Y-3.937
X5.4547Y-3.7657
X5.5709Y-3.5039
X5.6693Y-4.7835
X5.689Y-3.937
X5.7087Y-4.1929
X5.8661Y-3.937
X5.8858Y-4.7835
X5.9055Y-4.252
X6.5354Y-4.2717
X6.6142Y-3.0709
X6.6732Y-2.9528
X6.7106Y-4.376
X6.7126Y-4.2717
X6.752Y-4.1535
X6.7913Y-3.4055
X6.9291Y-3.8583
X6.9882Y-3.2874
X7.0217Y-4.3366
X7.0276Y-3.6024
X7.0276Y-4.1142
X7.1063Y-3.8583
X7.185Y-3.4843
X7.2835Y-4.4291
X7.3228Y-4.1142
X7.3425Y-3.0512
X7.3425Y-3.3858
X7.3425Y-3.622
X7.3622Y-4.2913
X7.3819Y-3.9173
X7.4606Y-3.5236
X7.4606Y-4.4094
X7.4803Y-3.3465
X7.4803Y-4.1339
T2
X4.1969Y-3.122
X4.25Y-3.4941
X4.7244Y-4.0965
X4.7244Y-4.2205
X5.0118Y-3.1398
X5.0787Y-3.8091
X5.0787Y-3.9291
X5.4882Y-4.2559
X5.5Y-4.3878
X5.6988Y-3.878
X5.7067Y-3.5256
X5.7264Y-3.811
X5.7264Y-4.2559
X5.7736Y-3.6535
X5.7776Y-3.8091
X5.7854Y-4.0591
X5.7874Y-4.4173
X5.7874Y-4.5512
X5.813Y-3.7992
X5.813Y-3.878
X5.815Y-4.0984
X5.8406Y-4.1398
X5.876Y-4.1772
X5.9547Y-3.85
X5.9799Y-3.872
X6.0051Y-3.8996
X6.0197Y-4.4587
X6.0323Y-3.9323
X6.0492Y-4.7244
X6.0571Y-4.5335
X6.0689Y-3.9331
X6.1024Y-3.5118
X6.1142Y-3.8425
X6.2283Y-3.1988
X6.2441Y-3.6732
X6.25Y-3.939
X6.2638Y-3.7953
X6.2677Y-3.4134
X6.313Y-3.7303
X6.313Y-4.0591
X6.313Y-4.2776
X6.3524Y-3.9488
X6.3642Y-4.1594
X6.3799Y-4.2638
X6.3819Y-3.9882
X6.3957Y-4.2185
X6.4134Y-4.1772
X6.4567Y-4.7539
X6.5039Y-3.7067
X6.5217Y-3.8268
X6.5748Y-3.628
X6.5748Y-3.7677
X6.5748Y-3.8661
X6.5787Y-3.4252
X6.685Y-3.122
X6.7146Y-3.2894
X6.815Y-3.0453
X6.8465Y-3.9469
X6.9114Y-3.0453
X6.9291Y-4.1811
X6.9291Y-4.2579
X7.0079Y-3.0433
X7.0945Y-4.5098
X7.1063Y-3.3091
X7.2677Y-2.9744
X7.2677Y-3.189
X7.302Y-4.5646
X7.3697Y-4.7217
X7.4232Y-2.9744
T3
X7.122Y-4.6732
X7.122Y-4.7717
X7.2205Y-4.6732
X7.2205Y-4.7717
X7.3189Y-4.6732
X7.3189Y-4.7717
X7.4173Y-4.6732
X7.4173Y-4.7717
X7.5157Y-4.6732
X7.5157Y-4.7717
T4
X4.1988Y-2.9665
X4.3169Y-2.9665
T0
M30
